<svg xmlns="http://www.w3.org/2000/svg" xmlns:xlink="http://www.w3.org/1999/xlink" version="1.1" x="0px" y="0px" viewBox="0 0 64 80" enable-background="new 0 0 64 64" xml:space="preserve"><path d="M56,32c-2.46,4.36-6.07,7.96-10.43,10.43C32.32,49.92,15.5,45.25,8,32c2.46-4.36,6.07-7.96,10.43-10.43  C31.68,14.08,48.5,18.75,56,32z M45.57,35.2c1.18-0.95,2.25-2.03,3.2-3.2c-4.17-5.14-10.2-7.87-16.34-7.99  c-0.28-0.01-0.56-0.01-0.84,0c-4.63,0.08-9.28,1.65-13.16,4.79c-1.18,0.95-2.25,2.03-3.2,3.2c4.17,5.14,10.2,7.87,16.34,7.99  c0.28,0.01,0.56,0.01,0.84,0C37.04,39.91,41.69,38.34,45.57,35.2z"/><path d="M32.43,24.01C36.65,24.24,40,27.72,40,32s-3.36,7.78-7.59,7.99c-0.28,0.01-0.56,0.01-0.84,0C27.35,39.76,24,36.28,24,32  s3.36-7.78,7.59-7.99C31.87,24,32.15,24,32.43,24.01z"/></svg>