<?xml version="1.0" encoding="UTF-8"?>
<svg width="1200pt" height="1200pt" version="1.1" viewBox="0 0 1200 1200" xmlns="http://www.w3.org/2000/svg">
 <g>
  <path d="m450 637.5h-262.5c-29.836 0-58.453 11.852-79.551 32.949-21.098 21.098-32.949 49.715-32.949 79.551v262.5c0 29.836 11.852 58.453 32.949 79.551 21.098 21.098 49.715 32.949 79.551 32.949h262.5c29.836 0 58.453-11.852 79.551-32.949 21.098-21.098 32.949-49.715 32.949-79.551v-262.5c0-29.836-11.852-58.453-32.949-79.551-21.098-21.098-49.715-32.949-79.551-32.949zm37.5 375c0 9.9453-3.9492 19.484-10.984 26.516-7.0312 7.0352-16.57 10.984-26.516 10.984h-262.5c-9.9453 0-19.484-3.9492-26.516-10.984-7.0352-7.0312-10.984-16.57-10.984-26.516v-262.5c0-9.9453 3.9492-19.484 10.984-26.516 7.0312-7.0352 16.57-10.984 26.516-10.984h262.5c9.9453 0 19.484 3.9492 26.516 10.984 7.0352 7.0312 10.984 16.57 10.984 26.516z"/>
  <path d="m881.25 637.5c-64.648 0-126.64 25.68-172.36 71.395-45.715 45.711-71.395 107.71-71.395 172.36s25.68 126.64 71.395 172.36c45.711 45.715 107.71 71.395 172.36 71.395s126.64-25.68 172.36-71.395c45.715-45.711 71.395-107.71 71.395-172.36-0.078125-64.621-25.785-126.57-71.48-172.27-45.695-45.695-107.65-71.402-172.27-71.48zm0 412.5c-44.754 0-87.676-17.777-119.32-49.426-31.648-31.648-49.426-74.57-49.426-119.32s17.777-87.676 49.426-119.32c31.648-31.648 74.57-49.426 119.32-49.426s87.676 17.777 119.32 49.426c31.648 31.648 49.426 74.57 49.426 119.32-0.050781 44.738-17.844 87.633-49.48 119.27s-74.531 49.43-119.27 49.48z"/>
  <path d="m434.21 562.5h331.58c26.809 0 52.734-9.5781 73.109-27s33.855-41.551 38.02-68.035c4.1602-26.48-1.2695-53.582-15.316-76.414l-165.79-269.44c-20.477-33.273-56.746-53.543-95.812-53.543s-75.336 20.27-95.812 53.543l-165.79 269.44c-14.047 22.832-19.477 49.934-15.316 76.414 4.1641 26.484 17.645 50.613 38.02 68.035s46.301 27 73.109 27zm-31.914-132.11 165.75-269.44h0.003906c6.8359-11.031 18.895-17.746 31.875-17.746s25.035 6.7148 31.875 17.746l165.75 269.44c4.6602 7.5938 6.4609 16.598 5.0898 25.398-1.375 8.8047-5.8398 16.828-12.59 22.641-6.7539 5.8086-15.355 9.0273-24.262 9.0742h-331.58c-8.9258-0.011719-17.555-3.207-24.332-9.0117-6.7812-5.8047-11.27-13.836-12.66-22.652-1.3867-8.8164 0.41406-17.84 5.082-25.449z"/>
 </g>
</svg>
