<?xml version="1.0" encoding="UTF-8"?>
<svg width="1200pt" height="1200pt" version="1.1" viewBox="0 0 1200 1200" xmlns="http://www.w3.org/2000/svg">
 <path d="m792 756h-384c-28.633 0.03125-56.086 11.418-76.332 31.668-20.25 20.246-31.637 47.699-31.668 76.332v96c0.03125 28.633 11.418 56.086 31.668 76.332 20.246 20.25 47.699 31.637 76.332 31.668h384c28.633-0.03125 56.086-11.418 76.332-31.668 20.25-20.246 31.637-47.699 31.668-76.332v-96c-0.03125-28.633-11.418-56.086-31.668-76.332-20.246-20.25-47.699-31.637-76.332-31.668zm36 204c-0.011719 9.543-3.8047 18.695-10.555 25.445s-15.902 10.543-25.445 10.555h-384c-9.543-0.011719-18.695-3.8047-25.445-10.555s-10.543-15.902-10.555-25.445v-96c0.011719-9.543 3.8047-18.695 10.555-25.445s15.902-10.543 25.445-10.555h384c9.543 0.011719 18.695 3.8047 25.445 10.555s10.543 15.902 10.555 25.445zm-660 132h16.805c7.457 20.941 21.172 39.082 39.289 51.961 18.117 12.879 39.758 19.875 61.984 20.039h627.84c22.227-0.16406 43.867-7.1602 61.984-20.039 18.117-12.879 31.832-31.02 39.289-51.961h16.805c34.996-0.042969 68.547-13.961 93.293-38.707 24.746-24.746 38.664-58.297 38.707-93.293v-216c-0.042969-34.996-13.961-68.547-38.707-93.293-24.746-24.746-58.297-38.664-93.293-38.707h-14.289c-6.75-132.36-20.102-254.29-44.684-327.02h0.003906c6.2344-38.164-4.6133-77.141-29.668-106.59-25.055-29.457-61.785-46.414-100.46-46.383h-62.906v-12c-0.027344-22.27-8.8867-43.621-24.633-59.367-15.746-15.746-37.098-24.605-59.367-24.633h-192c-22.27 0.027344-43.621 8.8867-59.367 24.633-15.746 15.746-24.605 37.098-24.633 59.367v12h-62.906c-38.648-0.035156-75.367 16.91-100.42 46.34-25.055 29.43-35.922 68.379-29.723 106.53-24.605 72.77-37.961 194.74-44.707 327.13h-14.246c-34.996 0.042969-68.547 13.961-93.293 38.707-24.746 24.746-38.664 58.297-38.707 93.293v216c0.042969 34.996 13.961 68.547 38.707 93.293 24.746 24.746 58.297 38.664 93.293 38.707zm781.9-35.062c-0.16016 9.4062-4.0312 18.371-10.77 24.938-6.7383 6.5664-15.797 10.207-25.207 10.125h-627.84c-9.4102 0.082031-18.473-3.5625-25.211-10.129-6.7383-6.5703-10.605-15.535-10.766-24.945-6.5586-194.12-1.6914-388.45 14.574-582l0.44922 2.25c4.9453 24.457 18.184 46.457 37.477 62.277 19.297 15.82 43.461 24.492 68.414 24.547h0.98438v60c0 12.863 6.8633 24.746 18 31.176 11.137 6.4336 24.863 6.4336 36 0 11.137-6.4297 18-18.312 18-31.176v-60h312v60c0 12.863 6.8633 24.746 18 31.176 11.137 6.4336 24.863 6.4336 36 0 11.137-6.4297 18-18.312 18-31.176v-60h0.98438c24.953-0.054688 49.117-8.7266 68.414-24.547 19.293-15.82 32.531-37.82 37.477-62.277l0.42188-2.1133c16.258 193.5 21.133 387.8 14.602 581.88zm82.102-372.94c15.906 0.015625 31.16 6.3438 42.406 17.594 11.25 11.246 17.578 26.5 17.594 42.406v216c-0.015625 15.906-6.3438 31.16-17.594 42.406-11.246 11.25-26.5 17.578-42.406 17.594h-9.3594c1.6641-96.895 2.0742-217.65-1.918-336zm-540-564c0.007812-6.625 5.375-11.992 12-12h192c6.625 0.007812 11.992 5.375 12 12v12h-216zm-181.29 105.96c11.371-13.926 28.406-21.992 46.383-21.961h485.81c17.973 0.007812 35 8.0703 46.395 21.973 11.391 13.902 15.957 32.18 12.434 49.805l-37.453 187.29c-1.6484 8.1523-6.0586 15.484-12.492 20.758-6.4336 5.2734-14.488 8.1602-22.805 8.1758h-0.98438v-36c0-12.863-6.8633-24.746-18-31.176-11.137-6.4336-24.863-6.4336-36 0-11.137 6.4297-18 18.312-18 31.176v36h-312v-36c0-12.863-6.8633-24.746-18-31.176-11.137-6.4336-24.863-6.4336-36 0-11.137 6.4297-18 18.312-18 31.176v36h-0.98438c-8.3164-0.015625-16.371-2.9023-22.805-8.1758-6.4336-5.2734-10.844-12.605-12.492-20.758l-37.453-187.29c-3.5508-17.633 1.0195-35.926 12.445-49.816zm-202.71 518.04c0.015625-15.906 6.3438-31.16 17.594-42.406 11.246-11.25 26.5-17.578 42.406-17.594h11.242c-3.9844 118.36-3.5586 239.11-1.8828 336h-9.3594c-15.906-0.015625-31.16-6.3438-42.406-17.594-11.25-11.246-17.578-26.5-17.594-42.406z"/>
</svg>
