<?xml version="1.0" encoding="UTF-8"?>
<svg width="1200pt" height="1200pt" version="1.1" viewBox="0 0 1200 1200" xmlns="http://www.w3.org/2000/svg">
 <g>
  <path d="m859.53 873-12.711-3.043c-97.684-23.426-207.43-61.523-317.4-110.19-109.96-48.578-212.16-104.12-295.56-160.6l-10.84-7.3477 0.74219-13.082c5.207-91.078 43.312-177.25 107.32-242.64 71.316-72.711 166.77-112.75 268.8-112.75 207.69 0 376.67 168.96 376.67 376.66 0 6.875-0.25781 13.746-0.53125 20.621-4.9336 91.18-43.043 177.37-107.34 243.04zm-588.69-304.62c79.066 52.406 174.6 103.82 277.25 149.18 102.61 45.41 204.8 81.355 296.53 104.34 51.043-56.34 81.219-128.08 85.301-203.45 0.23828-5.9258 0.47266-12.191 0.47266-18.457 0-182.24-148.27-330.5-330.52-330.5-89.523 0-173.28 35.121-235.83 98.898-53.129 54.281-85.941 124.88-93.211 199.99z"/>
  <path d="m599.88 976.66c-207.69 0-376.66-168.98-376.66-376.67 0-7.1328 0.25781-13.996 0.53125-20.855l1.6328-41.465 34.367 23.27c81.141 54.965 180.84 109.12 288.34 156.61 107.46 47.562 214.48 84.734 309.48 107.51l39.539 9.4883-28.406 29.082c-71.191 72.891-166.66 113.03-268.82 113.03zm-329.71-353.72c11.82 171.59 155.18 307.57 329.71 307.57 75.633 0 147.06-25.059 205.04-71.293-86.664-23.605-181.01-57.625-275.5-99.453-94.48-41.746-183.24-88.621-259.25-136.82z"/>
  <path d="m267.53 621.98-33.668-22.828c-103.18-69.953-219.24-168.96-186.2-243.4 32.938-74.156 184.2-55.043 305.31-25.949l39.562 9.5-28.453 29.082c-56.203 57.41-89.66 133.05-94.223 212.99zm-94.957-271.56c-48.859 0-76.41 9.8047-82.73 24.059-10.738 24.191 28.855 84.715 138.35 164.33 10.41-62.977 36.676-122.36 76.34-172.55-54.184-11.156-98.172-15.844-131.96-15.844z"/>
  <path d="m1027.3 896c-56.004 0-121.81-11.867-180.54-26.062l-39.473-9.5547 28.418-29.027c56.441-57.648 89.895-133.27 94.211-212.91l2.207-40.812 33.805 22.977c103.24 70.176 219.38 169.41 186.44 243.64-17.012 38.324-65.5 51.754-125.07 51.754zm-132.08-62.469c132.7 27.539 204.25 16.191 214.97-8.0117 10.691-24.09-28.98-84.613-138.54-164.47-10.312 62.832-36.613 122.18-76.434 172.48z"/>
 </g>
</svg>
