<?xml version="1.0" encoding="UTF-8"?>
<svg width="1200pt" height="1200pt" version="1.1" viewBox="0 0 1200 1200" xmlns="http://www.w3.org/2000/svg">
 <g>
  <path d="m477.48 534.28c5.9766 5.7734 14.555 7.9648 22.57 5.7695 8.0117-2.1992 14.273-8.457 16.469-16.473 2.1992-8.0117 0.003907-16.59-5.7656-22.566l-77.484-77.48 77.484-77.484c5.7695-5.9766 7.9648-14.555 5.7656-22.566-2.1953-8.0156-8.457-14.273-16.469-16.473-8.0156-2.1953-16.594-0.003906-22.57 5.7695l-77.48 77.48-77.48-77.48c-5.9766-5.7734-14.555-7.9648-22.57-5.7695-8.0117 2.1992-14.273 8.457-16.469 16.473-2.1992 8.0117-0.003907 16.59 5.7656 22.566l77.461 77.484-77.457 77.48h-0.003906c-4.5391 4.3828-7.125 10.41-7.1797 16.719-0.054687 6.3125 2.4258 12.379 6.8906 16.844 4.4609 4.4609 10.531 6.9453 16.84 6.8906 6.3125-0.054688 12.336-2.6445 16.723-7.1836l77.48-77.48z"/>
  <path d="m910.75 312.78c-4.4141-4.4102-10.398-6.8906-16.637-6.8906-6.2383 0-12.223 2.4805-16.637 6.8906l-77.48 77.48-77.48-77.48c-5.9766-5.7734-14.555-7.9648-22.57-5.7695-8.0117 2.1992-14.273 8.457-16.469 16.473-2.1992 8.0117-0.003907 16.59 5.7656 22.566l77.484 77.484-77.48 77.48h-0.003906c-4.5391 4.3828-7.125 10.41-7.1797 16.719-0.054687 6.3125 2.4258 12.379 6.8906 16.844 4.4609 4.4609 10.531 6.9453 16.84 6.8906 6.3125-0.054688 12.336-2.6445 16.723-7.1836l77.48-77.48 77.48 77.48c5.9766 5.7734 14.555 7.9648 22.57 5.7695 8.0117-2.1992 14.273-8.457 16.469-16.473 2.1992-8.0117 0.003907-16.59-5.7656-22.566l-77.484-77.48 77.484-77.484c4.4102-4.4141 6.8867-10.395 6.8867-16.637 0-6.2383-2.4766-12.223-6.8867-16.633z"/>
  <path d="m1024.3 175.74c-74.34-75.082-167.19-129.2-269.16-156.89-101.97-27.684-209.44-27.949-311.54-0.77344-102.1 27.176-195.22 80.836-269.93 155.55-74.711 74.715-128.37 167.83-155.55 269.93-27.176 102.11-26.91 209.57 0.77344 311.54 27.688 101.97 81.809 194.82 156.89 269.16 74.34 75.082 167.19 129.2 269.16 156.89 101.97 27.684 209.44 27.949 311.54 0.77344 102.1-27.176 195.22-80.836 269.93-155.55 74.711-74.715 128.37-167.83 155.55-269.93 27.176-102.11 26.91-209.57-0.77344-311.54-27.688-101.97-81.809-194.82-156.89-269.16zm-424.26 977.2c-304.89 0-552.94-248.05-552.94-552.94s248.05-552.94 552.94-552.94 552.94 248.05 552.94 552.94-248.05 552.94-552.94 552.94z"/>
  <path d="m600 713.46c-46.629 0-91.348 18.523-124.32 51.496-32.973 32.973-51.496 77.688-51.496 124.32 0 46.629 18.523 91.348 51.496 124.32 32.969 32.969 77.688 51.492 124.32 51.492s91.348-18.523 124.32-51.492c32.973-32.973 51.496-77.691 51.496-124.32-0.058594-46.609-18.598-91.297-51.559-124.25-32.957-32.961-77.645-51.5-124.25-51.559zm0 304.57c-34.148 0-66.895-13.566-91.043-37.711-24.145-24.145-37.711-56.895-37.711-91.043 0-34.145 13.566-66.895 37.711-91.043 24.148-24.145 56.895-37.707 91.043-37.707s66.895 13.562 91.043 37.707c24.145 24.148 37.711 56.898 37.711 91.043-0.042968 34.137-13.625 66.859-37.762 90.996-24.133 24.137-56.859 37.715-90.992 37.758z"/>
 </g>
</svg>
