<?xml version="1.0" encoding="UTF-8"?>
<svg width="1200pt" height="1200pt" version="1.1" viewBox="0 0 1200 1200" xmlns="http://www.w3.org/2000/svg">
 <path d="m962.25 483.38c-7.1289-84.586-43.41-164.07-102.64-224.88s-137.74-99.156-222.11-108.5v-37.5c0-13.398-7.1484-25.777-18.75-32.477-11.602-6.6992-25.898-6.6992-37.5 0-11.602 6.6992-18.75 19.078-18.75 32.477v37.5c-84.145 9.1914-162.51 47.238-221.78 107.67-59.27 60.434-95.785 139.52-103.34 223.83l-37.5 438.38c-2.9219 34.648 3.8516 69.43 19.559 100.45 15.707 31.023 39.734 57.066 69.391 75.223 29.656 18.152 63.777 27.699 98.551 27.578h423.75c34.773 0.12109 68.895-9.4258 98.551-27.578 29.656-18.156 53.684-44.199 69.391-75.223 15.707-31.02 22.48-65.801 19.559-100.45zm-174.75 79.125h-262.5v37.5c0 13.398-7.1484 25.777-18.75 32.477-11.602 6.6992-25.898 6.6992-37.5 0-11.602-6.6992-18.75-19.078-18.75-32.477v-37.5h-37.5c-13.398 0-25.777-7.1484-32.477-18.75-6.6992-11.602-6.6992-25.898 0-37.5 6.6992-11.602 19.078-18.75 32.477-18.75h375c13.398 0 25.777 7.1484 32.477 18.75 6.6992 11.602 6.6992 25.898 0 37.5-6.6992 11.602-19.078 18.75-32.477 18.75z"/>
</svg>
