<?xml version="1.0" encoding="UTF-8"?>
<svg width="1200pt" height="1200pt" version="1.1" viewBox="0 0 1200 1200" xmlns="http://www.w3.org/2000/svg">
 <g>
  <path d="m583.53 374.2c-12.242 3.3242-22.219 9.3711-31.137 19.043-9.5234 10.277-15.113 21.312-19.348 38.543l-3.0234 12.543h-18.59c-24.938 0-27.961 1.3594-40.809 17.23-5.4414 6.6484-12.848 18.289-16.625 25.844-10.43 21.16-11.184 27.508-11.184 87.965v52.297l-6.1953 5.2891c-10.73 9.2188-10.43 7.1055-10.43 86.758 0 89.176-2.2656 81.465 28.719 97.336l14.359 7.4062h264.65l12.848-6.6484c18.59-9.6719 24.184-13.754 27.66-20.555 3.0234-5.8945 3.1758-8.0117 3.1758-78.746v-72.547l-4.082-6.1953c-2.2656-3.4766-6.1953-7.4062-8.7656-8.918l-4.5352-2.7188v-54.715c0-48.969-0.30078-55.773-2.8711-65.898-4.6836-18.137-15.266-36.426-30.832-53.051-8.0117-8.6133-13.301-10.125-34.613-10.125h-18.59l-2.7188-12.09c-6.9531-30.984-26.449-52.75-52.598-58.793-9.3711-2.2656-24.789-1.8125-34.461 0.75391zm-7.707 19.043c-7.707 11.789-15.113 34.309-15.113 46.402v4.6836h-18.289l1.0586-5.7422c3.9297-20.859 14.66-38.238 29.32-47.004 6.8008-4.082 6.9531-4.082 3.0234 1.6641zm37.938 2.5703c9.2188 9.6719 16.473 28.867 16.473 44.133v4.3828h-57.438v-4.5352c0-14.66 9.9766-39.145 19.195-46.703 8.3125-6.9531 13-6.3477 21.766 2.7188zm25.996 3.0234c8.1602 7.707 14.965 19.801 18.438 32.949 3.3242 12.695 3.4766 12.543-6.6484 12.543h-8.7656l-1.0586-10.125c-1.2109-12.09-7.2539-30.684-12.395-38.543-1.9648-3.1758-3.6289-6.0469-3.6289-6.5 0-1.8125 6.9531 3.0234 14.055 9.6719zm74.059 60.758c6.8008 5.2891 7.4062 10.277 6.8008 65.598l-0.45312 51.387-4.2305 7.1055c-4.6836 8.1602-9.8242 12.242-18.438 14.66-4.3828 1.3594-31.285 1.6641-99 1.3594-102.02-0.45312-96.582 0-106.41-9.6719-9.3711-9.5234-9.2188-8.1602-9.2188-69.074v-55.773l4.9883-4.3828 4.8359-4.3828h108.67c107.16 0 108.67 0 112.45 3.1758zm-238.8 127.11c4.5352 9.2188 13 17.531 22.824 22.672 5.7422 3.0234 8.7656 3.0234 103.53 3.3242l97.637 0.15234 8.6133-4.2305c9.2188-4.5352 15.871-11.184 21.16-21.16 3.3242-6.0469 3.4766-8.1602 4.2305-54.715l0.75391-48.367 4.8359 8.4648c8.918 15.266 9.5234 20.402 9.5234 79.352v53.352l-4.082 0.45312c-7.8594 0.90625-8.0117 1.2109-8.0117 89.93 0 80.105 0 82.07 3.0234 85.094 3.6289 3.6289 5.1406 3.7773 8.1602 0.60547 2.1172-2.1172 2.418-11.637 2.418-82.371 0-86.906-0.45312-82.223 8.1602-78.293 8.3125 3.9297 8.6133 5.8945 8.4648 78.441-0.15234 40.656-0.75391 68.316-1.8125 71.039-1.0586 3.4766-4.9883 6.3477-17.531 13.602-14.66 8.1602-16.93 9.0703-24.938 9.0703h-8.7656l3.4766-4.8359 3.4766-4.9883 0.45312-76.328c0.30078-49.121 0-78.141-1.0586-81.617-0.90625-2.8711-4.082-8.0117-7.2539-11.184-10.73-11.035-6.0469-10.578-106.25-10.883-53.352-0.30078-93.105 0.30078-97.789 1.0586-9.6719 1.8125-18.742 8.3125-22.52 15.871-2.7188 5.5938-2.7188 9.8242-2.2656 82.977 0.45312 71.188 0.60547 77.535 3.1758 83.43l2.8711 6.5h-8.1602c-6.8008 0-10.43-1.2109-21.461-6.9531-7.2539-3.7773-15.113-8.918-17.383-11.336l-4.2305-4.3828v-70.734c0-78.293-0.30078-75.422 9.9766-79.805 2.7188-1.2109 5.4414-2.1172 5.8945-2.1172s0.75391 36.273 0.75391 80.711c0 71.492 0.30078 81.012 2.418 83.129 2.7188 2.8711 3.0234 2.8711 6.8008 0.90625 2.7188-1.5117 2.8711-4.082 2.8711-86.906 0-92.801 0.30078-89.93-8.4648-89.93h-3.6289v-51.844c0-57.281 0.75391-63.176 9.5234-81.012l4.8359-9.9766 1.5078 95.219 4.2305 8.6133zm226.11 53.504c11.184 9.3711 9.8242 35.066-1.9648 42.02-2.1172 1.3594-3.0234 1.2109-3.6289-0.60547-0.45313-1.2109-3.0234-4.5352-5.7422-7.2539-3.9297-3.9297-6.0469-4.8359-11.035-4.8359-8.3125 0-14.359 3.3242-16.777 9.0703l-1.8125 4.5352h-117.44l-2.418-4.3828c-3.3242-6.6484-8.0117-9.2188-16.324-9.2188-6.0469 0-8.0117 0.75391-11.789 4.3828-2.418 2.418-4.3828 5.5938-4.3828 6.8008 0 3.7773-3.6289 2.8711-8.3125-2.1172-3.9297-4.082-4.5352-6.0469-4.9883-15.266-0.75391-12.09 1.2109-17.836 7.5586-23.277l4.5352-3.7773h189.84l4.6836 3.9297zm-168.68 40.203c1.8125 2.2656 2.5703 5.7422 2.5703 12.848v9.6719l-10.125-0.45312-10.277-0.45312-0.45312-7.707c-0.30078-4.082 0.30078-9.3711 1.0586-11.637 2.8711-7.4062 11.789-8.4648 17.23-2.2656zm151.29-1.6641c3.6289 2.8711 3.9297 4.082 3.9297 13.602v10.43h-19.648v-10.277c0-10.883 0.60547-12.395 5.2891-15.113 4.2305-2.418 5.8945-2.2656 10.43 1.3594zm-177.74 20.707c0.30078 1.6641-1.2109 4.6836-3.3242 6.9531-5.1406 4.9883-4.9883 9.2188 0.60547 14.812l4.5352 4.5352v43.828l4.3828 4.2305c7.8594 8.0117 19.801 7.8594 26.449-0.15234 3.7773-4.5352 3.9297-5.2891 3.9297-26.301 0-19.348 0.30078-21.914 2.7188-23.73 3.3242-2.2656 6.3477-7.5586 6.3477-11.035 0-1.3594-1.9648-4.5352-4.5352-7.1055-9.0703-8.918-10.277-8.7656 53.656-8.7656 56.68 0 58.191 0 58.191 3.0234 0 1.5117-1.6641 4.5352-3.7773 6.6484-4.9883 4.9883-4.8359 9.2188 0.75391 14.812l4.5352 4.5352v20.254c0 22.672 1.3594 27.66 9.0703 31.59 9.3711 4.8359 20.555 1.5117 24.789-7.4062 1.8125-3.9297 2.418-9.6719 2.418-24.938 0-18.895 0.15234-19.801 3.7773-23.426 2.2656-2.2656 3.7773-5.5938 3.7773-8.1602 0-2.5703-1.5117-5.7422-3.7773-7.8594-4.3828-4.082-4.8359-8.4648-1.0586-9.5234 1.3594-0.30078 3.7773-1.2109 5.2891-1.8125 2.418-1.0586 2.5703 1.9648 2.5703 51.238 0 57.133-0.15234 58.039-8.6133 63.781-4.082 2.7188-8.3125 2.8711-97.184 2.8711-88.871 0-93.105-0.15234-97.184-2.8711-8.4648-5.7422-8.6133-6.6484-8.6133-64.234v-52.898l4.9883 2.1172c2.7188 1.0586 4.9883 3.3242 5.2891 4.9883zm36.273 14.207c0.45312 2.418-1.2109 2.7188-17.684 2.7188-14.207 0-18.289-0.45312-18.289-1.9648 0-3.7773 2.1172-4.2305 18.742-3.7773 14.508 0.45313 16.777 0.75391 17.23 3.0234zm153.41-1.2109c0.45312 1.2109 0.45312 2.5703 0 3.0234-1.6641 1.5117-34.914 1.0586-35.973-0.60547-2.1172-3.4766 1.8125-4.5352 18.137-4.5352 13.301 0 17.23 0.45312 17.836 2.1172zm-160.66 32.648c0 19.195-0.30078 21.461-3.0234 24.184-4.3828 4.3828-11.184 3.9297-14.965-0.90625-2.8711-3.6289-3.1758-6.0469-3.1758-23.277 0-10.578 0.45312-19.648 1.0586-20.102 0.45312-0.60547 5.2891-1.0586 10.578-1.0586h9.5234v21.16zm152.65 0.30078c0 23.879-1.0586 26.902-9.5234 26.902-9.2188 0-10.125-2.5703-10.125-26.754v-21.613h19.648z"/>
  <path d="m575.82 554.66c-1.6641 1.6641-3.0234 4.6836-3.0234 6.8008 0 2.1172 1.3594 5.1406 3.0234 6.8008 2.7188 2.7188 4.9883 3.0234 25.695 3.0234s22.973-0.30078 25.695-3.0234c1.6641-1.6641 3.0234-4.6836 3.0234-6.8008 0-2.1172-1.3594-5.1406-3.0234-6.8008-2.7188-2.7188-4.9883-3.0234-25.695-3.0234s-22.973 0.30078-25.695 3.0234zm44.438 3.9297c1.3594 0.45312 2.418 1.8125 2.418 3.0234 0 1.6641-4.082 2.1172-21.16 2.1172-17.23 0-21.16-0.45312-21.16-2.1172 0-1.2109 0.90625-2.5703 1.9648-2.8711 2.7188-1.2109 35.066-1.2109 37.938-0.15234z"/>
 </g>
</svg>
