<?xml version="1.0" encoding="UTF-8"?>
<svg width="1200pt" height="1200pt" version="1.1" viewBox="0 0 1200 1200" xmlns="http://www.w3.org/2000/svg">
 <g>
  <path d="m723.79 838.21c-0.53125 1.0859-0.68359 2.8438-0.68359 2.8438 0-0.003906 0.015625-0.066406 0.68359-2.8438z"/>
  <path d="m600 91.578c-280.34 0-508.42 228.08-508.42 508.42s228.08 508.42 508.42 508.42c280.33 0 508.42-228.07 508.42-508.42 0-280.34-228.09-508.42-508.42-508.42zm0 1004.2c-90.996 0-176.29-24.758-249.68-67.719 0.55469-0.65625 0.93359-1.25 1.707-2.0078 7.1133-7.0977 8.8672-14.199 8.8672-14.199v-12.418l-1.7695-14.199-5.332-8.8672-1.7812-23.078h-5.3164l-1.7812-12.418h8.8672l17.746-17.746v-8.8789l-1.7812-10.648h-5.332l1.7812-28.395 13.211-24.848s-2.5625-12.418-0.79688-24.848c1.7695-12.43 0-17.746 0-17.746l-8.8672-3.5508c-8.8789-3.5508-12.418-10.648-17.746-14.199-5.3164-3.5508-10.648-14.199-10.648-14.199s-12.418-10.648-23.066-14.199c-10.648-3.5508 0 0-7.1133-1.7812-7.0977-1.7812-28.395-10.648-31.934-15.965-3.5508-5.332-23.078-14.199-28.395-19.516-5.332-5.332-8.9688-8.8789-8.9688-8.8789l-1.3125-8.8789s3.1719-8.8672-0.36719-15.965c-3.5508-7.0977 1.7812-8.8789 0-14.199-1.7812-5.3164 0-10.648 0-10.648l-8.8789-14.199-3.5352-7.0977c-3.5508-7.0977-3.5508-12.418-10.648-17.746-7.1133-5.332-12.43-17.746-21.309-20.527-8.8672-2.7773-21.297-29.18-21.297-29.18s-3.5508-12.418-15.98-23.066c-12.418-10.648-12.418 0-21.297 10.648s-8.8789 0-8.8789 0-5.7109 14.438-10.648 12.418c-4.5742-1.8711-8.7266-3.5742-12.719-5.1914 0.76953-13.656 2.1484-27.133 3.9922-40.473h2.918l9.4727-7.8945 0.003906-7.8633 11.848-7.8945v-9.4727h11.848v-23.812l-6.3164-7.7695v-26.84h-7.8945v-0.0625c3.4844-10.207 7.2266-20.285 11.355-30.176 1.5547 0.42969 2.5781 1.0234 2.8555 1.8203 0 0 113.68-123.16 195.79-132.63l20.527-55.262s0 12.633 7.8945 0c7.8945-12.633-7.8945 3.1562 7.8945-12.633 15.789-15.789 15.789-18.949 25.262-23.684 9.4727-4.7383 14.211-7.8945 18.949-11.051 4.7383-3.1562 22.105-12.633 22.105-12.633h7.8945l-9.4727 11.051-9.4727 9.4727-11.051 9.4727-7.8945 4.7383-4.7383 11.051 4.7383 11.051s3.1562 0 14.211-1.5781c11.051-1.5781 26.844-1.5781 23.684-6.3164-3.1562-4.7383 6.3164-11.051 11.051-14.211l4.7383-3.1562 12.633-6.3164 18.945-9.4766 14.211-15.789h7.8945l9.4727-17.367v-22.105l-7.8945-7.8945s5.3164 7.9961-12.617-3.5859c29.301-5.3906 59.379-8.3477 90.16-8.3477 12.605 0 25.047 0.63281 37.426 1.5664-1.7305 8.9805-2.0977 15.32-0.14062 17.355l6.0234 6.2266 7.543 14.02 12.039 3.1055 3.0078 7.793-7.5273 10.902-15.059-1.5664h-9.0312-21.07-12.469s-1.0859 4.6875-7.1133 9.3477c-6.0234 4.6719-7.5273-1.1992-10.547 6.4023-3.0078 7.6055-6.0234 20.07-6.0234 20.07l1.5156 9.3359 10.535 6.2383h11.621c4.9375 0 21.5 1.5664 21.5 1.5664 4.4961-9.3477-4.5078-24.922-4.5078-24.922h-9.0312l7.5273-12.289h16.559l10.535 13.844 3.0078 12.453v12.453l-6.0273 10.898-10.535 4.6719h-15.043l-13.969 7.793-16.145 12.453-7.5273 12.469c-7.5273 12.453-13.543 21.801-13.543 21.801l1.5039 12.453 3.0078 9.3477c-10.547 6.2266 4.5078 1.5547-18.062 6.2266-22.586 4.6719-22.586 4.6719-22.586 4.6719s-3.0078 1.5547-6.0234 4.6602c-3.0195 3.1211 1.5039-12.453-3.0195 3.1211-4.5078 15.574-9.0312 23.367-9.0312 23.367l12.051 9.3477s-10.547 7.793 0 9.3477c10.535 1.5547-4.5078 0 10.535 1.5547 15.059 1.5664 28.598 0 28.598 0l7.543-10.902 15.043-14.008 10.547-14.008 7.1133-9.3477 12.469-6.2266s7.5156-7.7812 10.523-1.5664c3.0078 6.2148 1.5156 24.922 1.5156 24.922l18.062 4.6719h7.543s3.0078 1.5664 7.5273 4.6719c4.5078 3.1055 13.543 4.6719 13.543 4.6719l6.0234-12.469 10.535-10.902s6.0391-1.5664 10.547-1.5664c4.5234 0 12.039 4.6719 12.039 4.6719l14.148 3.1211h37.047l15.043-6.2266 7.543 4.6719c4.5078 12.453 2.9922 17.129 0 21.801-3.0195 4.6719-3.0195 4.6719-3.0195 4.6719s-1.4922 1.5547-15.043 7.7812c-13.543 6.2266-42.152 12.453-48.176 12.453h-6.0234s-3.0078-1.5547-13.543-3.1055c-10.547-1.5664-28.609-9.3477-28.609-9.3477l-16.559-6.2266h-15.059s-15.07-1.5547-24.09-1.5547c-9.043 0-13.969 3.1211-13.969 3.1211l-7.1133 1.5547-21.082 14.02-18.062 10.902-9.0312 6.2266-9.043 6.7695-7.5273 10.371-22.586 18.684-6.0234 7.793-21.082 44.992v12.633l-9.0312 7.7812v21.816s7.5273 38.941 0 43.605c-7.5273 4.6719 0 18.695 0 18.695l-3.3477 10.016 19.742 21.121 19.742 15.574 43.668 26.477h37.641s-3.0195-7.793 19.566-10.902c22.586-3.1055 22.586-3.1211 22.586-3.1211l10.535-3.1055 15.059 1.5664 9.0312 1.5547 10.535 6.2266 19.578 7.793h6.0391v62.285l15.031 12.453v10.902h6.0234l9.043 18.684s3.0078 12.469 0 24.922l-3.0078 12.469-4.5078 14.008s3.0078 7.793 1.5039 14.02c-0.35547 1.4648-0.61719 2.5391-0.82031 3.3984 0.97266-1.9961 3.2227-1.8047 8.1836 15.297l7.6914 26.477s1.4922 6.2266 0 12.453c-1.5156 6.2383-6.0391 29.598-6.0391 29.598l6.6953 9.3477v6.2266h6.8594s-10.535 4.6719 0 4.6719h10.535l10.535-7.7812s0-7.7812 13.543-14.008c13.555-6.2266 13.555-6.2266 13.555-6.2266l7.5273-6.2383 7.5273-9.3359s10.547-12.469 16.574-17.129l6.0234-4.6719s3.0078-1.5547 12.051-12.453l9.0312-10.902v-6.2383l16.574-23.367 7.5156-14.008 9.043-31.527s15.043-41.672 15.043-46.332v-17.129l9.043-12.469s4.5078-35.809 6.0234-43.605c1.5039-7.793 1.5039-7.793 1.5039-7.793s3.0078 3.1211 9.0312-20.234l6.0234-23.367v-12.453s-6.0234-3.1211 0-10.914c6.0391-7.7812 6.0391-7.7812 6.0391-7.7812v-14.008l1.4922-21.801-21.07-7.793-13.555-9.3359-9.0312-6.2383-12.039-14.008-9.043-15.75c-10.535-4.4961-1.5039 0.17578-10.535-4.4961l-9.0312-4.6719s-19.578-23.355-19.578-28.031v-4.6719l-1.5039-10.902s6.0234-14.02 15.059 0c9.0195 14.02 3.0078 0 9.0195 14.02 6.0391 14.008-7.5156 0 6.0391 14.008 13.543 14.02 16.574-0.16406 16.574-0.16406s3.0078-4.8398 9.0312 0c6.0234 4.8398 13.543 24.91 13.543 24.91h13.566s3.0078-0.15234 7.5273 0c4.5078 0.17578 9.0312 0 9.0312 0s0-15.41 6.0234-20.07c6.0234-4.6719 4.5234 6.2266 6.0234-4.6719 1.5039-10.902 12.051-10.902 0-23.355-12.039-12.453-18.062-15.574-19.566-21.816-1.5039-6.2266-3.0078-2.0352-7.5273-11.91-4.5234-9.8789-12.039-19.227-21.082-22.344-9.0312-3.1055-12.039-1.5547-16.559-7.793-4.5234-6.2266-15.043-14.008-15.043-14.008l3.0078-7.793h10.535s3.0078 6.2383 7.5273 9.3477c4.5234 3.1055 12.039 10.902 12.039 10.902s10.547 1.5547 19.578 1.5547-1.5039 4.6875 9.0312 0c10.547-4.6719 23.773-9.3359 23.773-9.3359l16.875-1.5664 6.0391-10.902 7.5273-17.129v-10.902s-4.8516-25.262-13.895-55.477c65.469 73.277 109.44 166.05 122.17 268.42-18.215-13.754-28.559-11.926-13.984 46.359 6.9844 27.891-23.66 16.332-23.66 16.332l-17.395 24.719-22.105 27.535v79.832h-15.789v25.262l-18.949 50.527v51.727h12.633l8.7266 22.145s0.96094 1.7188 2.3359 4.3828c-90.07 125.98-237.42 208.39-403.75 208.39z"/>
  <path d="m723.79 838.21c-0.53125 1.0859-0.68359 2.8438-0.68359 2.8438 0-0.003906 0.015625-0.066406 0.68359-2.8438z"/>
  <path d="m600 91.578c-280.34 0-508.42 228.08-508.42 508.42s228.08 508.42 508.42 508.42c280.33 0 508.42-228.07 508.42-508.42 0-280.34-228.09-508.42-508.42-508.42zm0 1004.2c-90.996 0-176.29-24.758-249.68-67.719 0.55469-0.65625 0.93359-1.25 1.707-2.0078 7.1133-7.0977 8.8672-14.199 8.8672-14.199v-12.418l-1.7695-14.199-5.332-8.8672-1.7812-23.078h-5.3164l-1.7812-12.418h8.8672l17.746-17.746v-8.8789l-1.7812-10.648h-5.332l1.7812-28.395 13.211-24.848s-2.5625-12.418-0.79688-24.848c1.7695-12.43 0-17.746 0-17.746l-8.8672-3.5508c-8.8789-3.5508-12.418-10.648-17.746-14.199-5.3164-3.5508-10.648-14.199-10.648-14.199s-12.418-10.648-23.066-14.199c-10.648-3.5508 0 0-7.1133-1.7812-7.0977-1.7812-28.395-10.648-31.934-15.965-3.5508-5.332-23.078-14.199-28.395-19.516-5.332-5.332-8.9688-8.8789-8.9688-8.8789l-1.3125-8.8789s3.1719-8.8672-0.36719-15.965c-3.5508-7.0977 1.7812-8.8789 0-14.199-1.7812-5.3164 0-10.648 0-10.648l-8.8789-14.199-3.5352-7.0977c-3.5508-7.0977-3.5508-12.418-10.648-17.746-7.1133-5.332-12.43-17.746-21.309-20.527-8.8672-2.7773-21.297-29.18-21.297-29.18s-3.5508-12.418-15.98-23.066c-12.418-10.648-12.418 0-21.297 10.648s-8.8789 0-8.8789 0-5.7109 14.438-10.648 12.418c-4.5742-1.8711-8.7266-3.5742-12.719-5.1914 0.76953-13.656 2.1484-27.133 3.9922-40.473h2.918l9.4727-7.8945 0.003906-7.8633 11.848-7.8945v-9.4727h11.848v-23.812l-6.3164-7.7695v-26.84h-7.8945v-0.0625c3.4844-10.207 7.2266-20.285 11.355-30.176 1.5547 0.42969 2.5781 1.0234 2.8555 1.8203 0 0 113.68-123.16 195.79-132.63l20.527-55.262s0 12.633 7.8945 0c7.8945-12.633-7.8945 3.1562 7.8945-12.633 15.789-15.789 15.789-18.949 25.262-23.684 9.4727-4.7383 14.211-7.8945 18.949-11.051 4.7383-3.1562 22.105-12.633 22.105-12.633h7.8945l-9.4727 11.051-9.4727 9.4727-11.051 9.4727-7.8945 4.7383-4.7383 11.051 4.7383 11.051s3.1562 0 14.211-1.5781c11.051-1.5781 26.844-1.5781 23.684-6.3164-3.1562-4.7383 6.3164-11.051 11.051-14.211l4.7383-3.1562 12.633-6.3164 18.945-9.4766 14.211-15.789h7.8945l9.4727-17.367v-22.105l-7.8945-7.8945s5.3164 7.9961-12.617-3.5859c29.301-5.3906 59.379-8.3477 90.16-8.3477 12.605 0 25.047 0.63281 37.426 1.5664-1.7305 8.9805-2.0977 15.32-0.14062 17.355l6.0234 6.2266 7.543 14.02 12.039 3.1055 3.0078 7.793-7.5273 10.902-15.059-1.5664h-9.0312-21.07-12.469s-1.0859 4.6875-7.1133 9.3477c-6.0234 4.6719-7.5273-1.1992-10.547 6.4023-3.0078 7.6055-6.0234 20.07-6.0234 20.07l1.5156 9.3359 10.535 6.2383h11.621c4.9375 0 21.5 1.5664 21.5 1.5664 4.4961-9.3477-4.5078-24.922-4.5078-24.922h-9.0312l7.5273-12.289h16.559l10.535 13.844 3.0078 12.453v12.453l-6.0273 10.898-10.535 4.6719h-15.043l-13.969 7.793-16.145 12.453-7.5273 12.469c-7.5273 12.453-13.543 21.801-13.543 21.801l1.5039 12.453 3.0078 9.3477c-10.547 6.2266 4.5078 1.5547-18.062 6.2266-22.586 4.6719-22.586 4.6719-22.586 4.6719s-3.0078 1.5547-6.0234 4.6602c-3.0195 3.1211 1.5039-12.453-3.0195 3.1211-4.5078 15.574-9.0312 23.367-9.0312 23.367l12.051 9.3477s-10.547 7.793 0 9.3477c10.535 1.5547-4.5078 0 10.535 1.5547 15.059 1.5664 28.598 0 28.598 0l7.543-10.902 15.043-14.008 10.547-14.008 7.1133-9.3477 12.469-6.2266s7.5156-7.7812 10.523-1.5664c3.0078 6.2148 1.5156 24.922 1.5156 24.922l18.062 4.6719h7.543s3.0078 1.5664 7.5273 4.6719c4.5078 3.1055 13.543 4.6719 13.543 4.6719l6.0234-12.469 10.535-10.902s6.0391-1.5664 10.547-1.5664c4.5234 0 12.039 4.6719 12.039 4.6719l14.148 3.1211h37.047l15.043-6.2266 7.543 4.6719c4.5078 12.453 2.9922 17.129 0 21.801-3.0195 4.6719-3.0195 4.6719-3.0195 4.6719s-1.4922 1.5547-15.043 7.7812c-13.543 6.2266-42.152 12.453-48.176 12.453h-6.0234s-3.0078-1.5547-13.543-3.1055c-10.547-1.5664-28.609-9.3477-28.609-9.3477l-16.559-6.2266h-15.059s-15.07-1.5547-24.09-1.5547c-9.043 0-13.969 3.1211-13.969 3.1211l-7.1133 1.5547-21.082 14.02-18.062 10.902-9.0312 6.2266-9.043 6.7695-7.5273 10.371-22.586 18.684-6.0234 7.793-21.082 44.992v12.633l-9.0312 7.7812v21.816s7.5273 38.941 0 43.605c-7.5273 4.6719 0 18.695 0 18.695l-3.3477 10.016 19.742 21.121 19.742 15.574 43.668 26.477h37.641s-3.0195-7.793 19.566-10.902c22.586-3.1055 22.586-3.1211 22.586-3.1211l10.535-3.1055 15.059 1.5664 9.0312 1.5547 10.535 6.2266 19.578 7.793h6.0391v62.285l15.031 12.453v10.902h6.0234l9.043 18.684s3.0078 12.469 0 24.922l-3.0078 12.469-4.5078 14.008s3.0078 7.793 1.5039 14.02c-0.35547 1.4648-0.61719 2.5391-0.82031 3.3984 0.97266-1.9961 3.2227-1.8047 8.1836 15.297l7.6914 26.477s1.4922 6.2266 0 12.453c-1.5156 6.2383-6.0391 29.598-6.0391 29.598l6.6953 9.3477v6.2266h6.8594s-10.535 4.6719 0 4.6719h10.535l10.535-7.7812s0-7.7812 13.543-14.008c13.555-6.2266 13.555-6.2266 13.555-6.2266l7.5273-6.2383 7.5273-9.3359s10.547-12.469 16.574-17.129l6.0234-4.6719s3.0078-1.5547 12.051-12.453l9.0312-10.902v-6.2383l16.574-23.367 7.5156-14.008 9.043-31.527s15.043-41.672 15.043-46.332v-17.129l9.043-12.469s4.5078-35.809 6.0234-43.605c1.5039-7.793 1.5039-7.793 1.5039-7.793s3.0078 3.1211 9.0312-20.234l6.0234-23.367v-12.453s-6.0234-3.1211 0-10.914c6.0391-7.7812 6.0391-7.7812 6.0391-7.7812v-14.008l1.4922-21.801-21.07-7.793-13.555-9.3359-9.0312-6.2383-12.039-14.008-9.043-15.75c-10.535-4.4961-1.5039 0.17578-10.535-4.4961l-9.0312-4.6719s-19.578-23.355-19.578-28.031v-4.6719l-1.5039-10.902s6.0234-14.02 15.059 0c9.0195 14.02 3.0078 0 9.0195 14.02 6.0391 14.008-7.5156 0 6.0391 14.008 13.543 14.02 16.574-0.16406 16.574-0.16406s3.0078-4.8398 9.0312 0c6.0234 4.8398 13.543 24.91 13.543 24.91h13.566s3.0078-0.15234 7.5273 0c4.5078 0.17578 9.0312 0 9.0312 0s0-15.41 6.0234-20.07c6.0234-4.6719 4.5234 6.2266 6.0234-4.6719 1.5039-10.902 12.051-10.902 0-23.355-12.039-12.453-18.062-15.574-19.566-21.816-1.5039-6.2266-3.0078-2.0352-7.5273-11.91-4.5234-9.8789-12.039-19.227-21.082-22.344-9.0312-3.1055-12.039-1.5547-16.559-7.793-4.5234-6.2266-15.043-14.008-15.043-14.008l3.0078-7.793h10.535s3.0078 6.2383 7.5273 9.3477c4.5234 3.1055 12.039 10.902 12.039 10.902s10.547 1.5547 19.578 1.5547-1.5039 4.6875 9.0312 0c10.547-4.6719 23.773-9.3359 23.773-9.3359l16.875-1.5664 6.0391-10.902 7.5273-17.129v-10.902s-4.8516-25.262-13.895-55.477c65.469 73.277 109.44 166.05 122.17 268.42-18.215-13.754-28.559-11.926-13.984 46.359 6.9844 27.891-23.66 16.332-23.66 16.332l-17.395 24.719-22.105 27.535v79.832h-15.789v25.262l-18.949 50.527v51.727h12.633l8.7266 22.145s0.96094 1.7188 2.3359 4.3828c-90.07 125.98-237.42 208.39-403.75 208.39z"/>
 </g>
</svg>
