<?xml version="1.0" encoding="UTF-8"?>
<svg width="1200pt" height="1200pt" version="1.1" viewBox="0 0 1200 1200" xmlns="http://www.w3.org/2000/svg">
 <path d="m612.28 923.78s-4.7227-7.8398-4.25-22.883c0.23438-10.414 2.125-14.148 3.543-19.199 1.1797-4.4883 2.3594-9.7539 3.0703-18.965 1.418-26.52-6.1406-33.961-9.4492-37.785-4.4844-4.9141-11.805-5.4336-16.766-1.1562-4.9609 4.2734-5.4297 11.734-1.1797 16.648 1.8867 2.1016 4.4844 6.4688 3.7773 20.945-0.47266 8.5039-1.8906 12.473-3.0703 16.438-1.6523 5.3398-3.0703 10.699-3.543 22.223-0.94531 24.82 8.7383 37.434 8.7383 37.434 3.7773 5.3125 11.102 6.5391 16.531 2.7617 5.1953-3.7773 6.3789-11.148 2.5977-16.461zm-163.42-37.125s-0.47266-9.2578 7.5547-22.008c5.668-8.8555 8.9766-11.219 12.754-14.879 3.3086-3.2578 7.0859-7.2031 12.043-14.926 14.645-22.199 11.809-32.449 10.629-37.43-1.1797-6.4023-7.3203-10.582-13.695-9.332-6.3789 1.2305-10.629 7.4414-9.4492 13.84 0.71094 2.7188 0.71094 7.8672-7.3203 19.98-4.4883 7.1328-7.5586 9.918-10.625 12.754-4.0156 3.8242-8.2656 7.6758-14.406 17.449-12.992 21.043-11.102 36.773-11.102 36.773 0.71094 6.4922 6.375 11.262 12.988 10.648 6.3789-0.63672 11.102-6.3984 10.629-12.871zm323.78-12.492s-8.2656-4.3203-15.352-17.617c-4.7227-9.2344-5.1953-13.297-6.375-18.398-1.1836-4.5312-2.8359-9.7031-7.0859-17.945-11.809-23.711-22.199-26.355-26.922-28.012-6.1406-2.1016-12.988 1.1602-15.117 7.3242-2.125 6.1641 1.1836 12.895 7.3242 15.02 2.5977 0.89453 7.3203 3.3516 13.695 16.293 3.7773 7.6055 4.7227 11.668 5.668 15.707 1.1797 5.4531 2.5977 10.887 8.0312 21.062 11.57 21.941 26.211 28.059 26.211 28.059 5.9062 2.6914 12.992 0.09375 15.59-5.8359 2.832-5.9258 0.23437-12.941-5.668-15.656zm-172.87-463.44c-104.38 0-189.16 84.805-189.16 189.28 0 104.48 84.781 189.29 189.16 189.29 104.62 0 189.4-84.805 189.4-189.29 0-104.48-84.785-189.28-189.4-189.28zm-273.95 361.99s4.25-8.1953 17.477-15.234c9.207-4.8867 13.461-5.2891 18.418-6.5625 4.4883-1.1367 9.6836-2.7188 17.949-6.875 23.852-11.926 26.449-22.246 28.102-27.039 2.125-6.1641-1.1797-12.895-7.3203-15.02-6.1406-2.125-12.988 1.1562-15.113 7.3203-0.94531 2.6211-3.3086 7.1328-16.297 13.648-7.5547 3.8516-11.57 4.75-15.586 5.668-5.4297 1.2773-10.863 2.5977-21.254 7.9844-21.727 11.641-27.867 26.285-27.867 26.285-2.832 5.9258-0.23438 12.941 5.668 15.656 5.9023 2.6914 12.988 0.09375 15.824-5.832zm560.64-21.633s-9.2109 0.35547-21.965-7.6523c-8.7344-5.5273-11.098-8.8555-14.875-12.633-3.3086-3.3555-7.0859-7.0625-14.879-12.117-22.199-14.547-32.355-11.688-37.312-10.723-6.6133 1.2539-10.629 7.4648-9.4492 13.84 1.1836 6.4023 7.3203 10.605 13.934 9.3516 2.5977-0.54297 7.793-0.66016 19.84 7.2734 7.082 4.6758 9.918 7.7461 12.75 10.77 3.7812 4.0859 7.793 8.1484 17.477 14.266 21.02 13.176 36.844 11.145 36.844 11.145 6.375-0.61328 11.098-6.375 10.625-12.871-0.70703-6.4922-6.375-11.262-12.988-10.648zm-286.7-316.74c91.629 0 165.79 74.223 165.79 165.66s-74.156 165.67-165.79 165.67c-91.395 0-165.55-74.227-165.55-165.67s74.152-165.66 165.55-165.66zm323.78 153.2s-7.793 4.9141-22.672 4.3711c-10.391-0.37891-14.172-2.0547-19.367-3.5195-4.4844-1.3008-9.6797-2.5039-18.891-3.0234-26.449-1.5117-34.008 6.0938-37.785 9.4219-4.9609 4.2773-5.4336 11.738-1.1836 16.676 4.2539 4.9102 11.809 5.4297 16.77 1.1562 1.8867-1.8203 6.375-4.5117 20.781-3.6836 8.5 0.49609 12.516 1.7461 16.531 2.9492 5.4336 1.6328 10.629 3.2148 22.199 3.6133 24.797 0.89844 37.312-8.7344 37.312-8.7344 5.4336-3.7812 6.6133-11.148 2.8359-16.461-3.7812-5.3164-11.102-6.543-16.531-2.7656zm-647.55 24.941s8.0312-4.9141 22.91-4.3711c10.625 0.37891 14.168 2.0547 19.363 3.5195 4.4883 1.2969 9.6836 2.5039 18.895 3.0234 26.449 1.5117 34.004-6.0938 37.785-9.4219 4.957-4.2773 5.4297-11.738 1.1797-16.676-4.25-4.9102-11.809-5.4297-16.766-1.1562-1.8906 1.8203-6.3789 4.5117-20.785 3.6836-8.5-0.49609-12.516-1.7461-16.531-2.9531-5.1953-1.6289-10.625-3.2109-22.199-3.6133-24.797-0.89453-37.547 8.7383-37.547 8.7383-5.1953 3.7812-6.3789 11.148-2.5977 16.461 3.7773 5.3164 11.098 6.543 16.293 2.7656zm597.96-185.18s-4.2539 8.1953-17.477 15.234c-9.2109 4.8867-13.227 5.2891-18.422 6.5625-4.4844 1.1367-9.6836 2.7188-17.949 6.875-23.613 11.926-26.449 22.246-28.102 27.039-2.125 6.1641 1.1797 12.895 7.3203 15.02 6.1406 2.125 12.988-1.1562 15.117-7.3203 0.94141-2.6211 3.3047-7.1328 16.293-13.652 7.5586-3.8477 11.57-4.7461 15.586-5.668 5.668-1.2734 11.102-2.5977 21.254-7.9805 21.965-11.645 27.867-26.285 27.867-26.285 2.8359-5.9258 0.23828-12.941-5.668-15.656-5.9023-2.6914-12.988-0.09375-15.82 5.832zm-560.65 21.633s9.2109-0.35547 21.965 7.6523c8.7383 5.5273 11.098 8.8555 14.879 12.633 3.3047 3.3555 7.082 7.0625 14.879 12.117 22.199 14.547 32.59 11.688 37.547 10.719 6.3789-1.25 10.391-7.4609 9.2109-13.836-1.1797-6.4023-7.3203-10.605-13.695-9.3516-2.8359 0.54297-8.0312 0.66016-20.074-7.2773-7.0859-4.6758-9.918-7.7422-12.754-10.766-3.7773-4.0859-7.793-8.1484-17.477-14.266-21.016-13.176-36.84-11.148-36.84-11.148-6.375 0.61719-11.102 6.3789-10.629 12.871 0.71094 6.4961 6.3789 11.266 12.988 10.652zm437.61-135.58s0.46875 9.2539-7.5586 22.008c-5.668 8.8555-8.9727 11.219-12.754 14.879-3.3047 3.2578-6.8477 7.2031-12.043 14.926-14.641 22.199-11.57 32.449-10.629 37.43 1.1836 6.4023 7.3242 10.582 13.699 9.3281 6.375-1.2266 10.625-7.4375 9.4453-13.836-0.47266-2.7188-0.70703-7.8672 7.3203-19.98 4.4883-7.1328 7.5586-9.918 10.629-12.754 4.25-3.8242 8.2656-7.6758 14.406-17.453 12.988-21.039 11.098-36.77 11.098-36.77-0.70703-6.4922-6.375-11.266-12.988-10.648-6.375 0.63672-11.098 6.3984-10.625 12.871zm-323.78 12.492s8.2656 4.3203 15.352 17.617c4.7227 9.2344 5.1953 13.297 6.6094 18.395 0.94531 4.5352 2.5977 9.707 6.8516 17.949 11.805 23.711 22.199 26.355 26.922 28.008 6.1406 2.1016 12.988-1.1562 15.113-7.3203 2.125-6.1641-1.1797-12.895-7.3203-15.02-2.5977-0.89844-7.0859-3.3516-13.699-16.293-3.7773-7.6055-4.7227-11.668-5.668-15.707-1.4141-5.4531-2.5977-10.887-8.0273-21.066-11.574-21.938-26.215-28.055-26.215-28.055-5.9023-2.6914-12.988-0.09375-15.586 5.832-2.8359 5.9297-0.23828 12.941 5.668 15.66zm160.35-49.617s4.9609 7.8398 4.25 22.883c-0.23438 10.414-1.8867 14.145-3.5391 19.199-1.1836 4.4883-2.3633 9.7539-2.8359 18.965-1.6523 26.52 5.9062 33.961 9.4453 37.785 4.2539 4.9141 11.574 5.4336 16.531 1.1562 4.9609-4.2734 5.4336-11.734 1.1836-16.648-1.8906-2.1016-4.4883-6.4727-3.7812-20.949 0.47266-8.5 1.8906-12.469 3.0703-16.434 1.6523-5.3398 3.0703-10.699 3.543-22.223 0.94531-24.82-8.7383-37.434-8.7383-37.434-3.7773-5.3125-11.098-6.5391-16.531-2.7617-5.1953 3.7773-6.375 11.145-2.5977 16.461z" fill-rule="evenodd"/>
</svg>
