<?xml version="1.0" encoding="UTF-8"?>
<svg width="1200pt" height="1200pt" version="1.1" viewBox="0 0 1200 1200" xmlns="http://www.w3.org/2000/svg">
 <path d="m782.75 814.96-121.18 97.309v-539.56c79.184-19.637 138.12-94.492 138.12-183.83 0-104.31-80.316-188.88-179.43-188.88-99.121 0-179.46 84.57-179.46 188.88 0 83.148 51.059 153.77 121.98 179v276.26l-147.11-132.95c12.207-25.508 19.094-54.344 19.094-84.84 0-104.33-80.301-188.89-179.43-188.89-99.105 0-179.41 84.57-179.41 188.89 0 104.27 80.301 188.87 179.41 188.87 35.266 0 68.141-10.695 95.871-29.184l211.57 191.23v422.74h98.773v-161.04l184.24-147.96c28.336 19.711 62.301 31.211 98.82 31.211 99.105 0 179.43-84.57 179.43-188.88 0-104.3-80.316-188.88-179.43-188.88-99.105 0-179.46 84.586-179.46 188.88 0 29.227 6.3086 56.93 17.578 81.633z" fill-rule="evenodd"/>
</svg>
