<?xml version="1.0" encoding="UTF-8"?>
<svg width="1200pt" height="1200pt" version="1.1" viewBox="0 0 1200 1200" xmlns="http://www.w3.org/2000/svg">
 <path d="m335.29 723.53c-85.312 0-158.82-47.258-158.82-114.71s73.512-114.71 158.82-114.71 158.82 47.258 158.82 114.71-73.512 114.71-158.82 114.71zm-35.293 50.734c11.52 1.457 23.316 2.2031 35.293 2.2031 11.98 0 23.777-0.74609 35.297-2.2031v46.324c0 24.305 19.836 44.117 44.125 44.117h167.64v-460.15c11.609 0.87891 23.387 1.3281 35.297 1.3281 11.906 0 23.684-0.44922 35.293-1.3281v318.98h123.56c33.852 0 62.129-23.848 68.977-55.688 11.988 1.8086 24.324 2.7461 36.871 2.7461 11.715 0 23.242-0.81641 34.48-2.3984-7.6172 70.805-67.531 125.93-140.33 125.93h-123.56v335.29h300c9.7461 0 17.648 7.9023 17.648 17.648v35.293c0 9.7461-7.9023 17.648-17.648 17.648h-670.59c-9.7461 0-17.645-7.9023-17.645-17.648v-35.293c0-9.7461 7.8984-17.648 17.645-17.648h300v-194.12h-167.64c-63.254 0-114.71-51.395-114.71-114.7zm582.35-156.62c-75.664 0-141.18-43.676-141.18-105.88 0-62.211 65.512-105.88 141.18-105.88 75.668 0 141.18 43.672 141.18 105.88 0 62.207-65.512 105.88-141.18 105.88zm-264.7-264.71c-143.7 0-264.71-74.469-264.71-176.47 0-102 121.01-176.47 264.71-176.47 143.7 0 264.7 74.469 264.7 176.47 0 102-121.01 176.47-264.7 176.47z" fill-rule="evenodd"/>
</svg>
