<?xml version="1.0" encoding="UTF-8"?>
<svg width="1200pt" height="1200pt" version="1.1" viewBox="0 0 1200 1200" xmlns="http://www.w3.org/2000/svg">
 <path d="m310.08 874.45v150.94c0 7.7344-6.3281 14.062-14.062 14.062s-14.062-6.3281-14.062-14.062v-116.72c-107.58 3.75-187.97-98.438-158.67-202.27 1.6406-5.8594 6.7969-9.8438 12.656-10.312 25.547-2.5781 51.562 0.9375 75.703 10.781 32.109 12.891 59.297 36.094 77.578 66.562 20.391-62.812 82.734-102.19 147.89-94.453 6.0938 0.70312 11.016 5.3906 12.188 11.25 5.625 21.562 5.8594 44.297 0.9375 65.859-15 64.219-73.359 108.75-138.75 106.64-0.46875 3.9844-0.9375 7.7344-1.4062 11.719zm285.94-601.88c7.7344 0 14.062 6.3281 14.062 14.062s-6.3281 14.062-14.062 14.062c-188.91 0-347.81 139.69-373.36 324.84-1.1719 7.7344-8.2031 13.125-15.703 11.953-7.7344-1.1719-13.125-8.2031-11.953-15.703 27.422-199.22 198.28-349.22 401.02-349.22zm-202.5 755.86c-6.7969-3.9844-8.9062-12.422-5.1562-19.219 3.9844-6.7969 12.422-8.9062 19.219-5.1562 154.45 89.297 351.8 57.656 470.62-76.641 5.1562-5.8594 14.062-6.3281 19.688-1.1719 5.8594 5.1562 6.3281 14.062 1.1719 19.688-127.73 144.38-339.14 178.59-505.55 82.5zm530.16-717.42c-11.719 13.594-26.484 24.141-43.125 30.703-5.1562 2.1094-11.25 0.9375-15.234-3.5156-52.969-56.25-32.344-148.59 39.609-176.95 5.1562-2.1094 11.25-0.9375 15.469 3.5156 37.969 40.781 39.609 103.83 3.2812 146.25zm-83.906 256.88c12.891-107.58-16.406-215.86-81.562-301.88-52.734 2.5781-100.08-32.812-112.03-84.609-3.9844-17.109-3.75-35.156 0.70312-52.031 1.1719-5.8594 6.0938-10.547 12.188-11.25 73.828-8.6719 134.77 56.719 120.47 129.61 69.375 91.172 101.25 205.78 88.359 320.16zm-28.125-102.89c-61.875 58.594-163.12 36.328-194.77-42.891-2.1094-5.3906-0.70312-11.484 3.2812-15.234 61.641-58.594 163.12-36.328 194.53 42.891 2.5781 5.3906 0.9375 11.484-3.0469 15.234zm178.36 59.531c-22.266 8.9062-46.641 12.422-70.312 10.078-5.8594-0.23438-11.016-4.2188-12.656-10.312-20.391-72.656 16.875-149.53 87.422-177.89 22.5-8.9062 46.641-12.422 70.312-10.078 5.8594 0.23438 11.016 4.2188 12.656 10.312 20.391 72.656-17.109 149.53-87.422 177.89zm-19.922 75.234h-219.14c-19.453 0-35.391 15.938-35.391 35.391v181.64c0 19.453 15.938 35.391 35.391 35.391h219.14c19.219 0 35.391-15.938 35.391-35.391v-181.64c-0.23438-19.453-16.172-35.391-35.391-35.391z"/>
</svg>
