<?xml version="1.0" encoding="UTF-8"?>
<svg width="1200pt" height="1200pt" version="1.1" viewBox="0 0 1200 1200" xmlns="http://www.w3.org/2000/svg">
 <path d="m920 320h-140v-20c0-99.199-80.801-180-180-180s-180 80.801-180 180v20h-140c-9.6016 0-17.801 6.8008-19.602 16.199l-140 720c-1.1992 5.8008 0.39844 12 4.1992 16.602 3.8008 4.5977 9.4023 7.1992 15.402 7.1992h920c6 0 11.602-2.6016 15.398-7.1992 3.8008-4.6016 5.3984-10.602 4.1992-16.602l-140-720c-1.7969-9.3984-9.9961-16.199-19.598-16.199zm-460-20c0-77.199 62.801-140 140-140s140 62.801 140 140v20h-280zm-295.8 740 132.2-680h123.6v100h40v-100h280v100h40v-100h123.6l132.2 680z"/>
</svg>
