<?xml version="1.0" encoding="UTF-8"?>
<svg width="1200pt" height="1200pt" version="1.1" viewBox="0 0 1200 1200" xmlns="http://www.w3.org/2000/svg">
 <g>
  <path d="m732 1140h-528c-79.199 0-144-64.801-144-144v-528c0-79.199 64.801-144 144-144h528c79.199 0 144 64.801 144 144v528c0 79.199-64.801 144-144 144zm-528-720c-26.398 0-48 21.602-48 48v528c0 26.398 21.602 48 48 48h528c26.398 0 48-21.602 48-48v-528c0-26.398-21.602-48-48-48z"/>
  <path d="m996 60h-528c-79.199 0-144 64.801-144 144v72h96v-72c0-26.398 21.602-48 48-48h528c26.398 0 48 21.602 48 48v528c0 26.398-21.602 48-48 48h-72v96h72c79.199 0 144-64.801 144-144v-528c0-79.199-64.801-144-144-144z"/>
 </g>
</svg>
