<?xml version="1.0" encoding="UTF-8"?>
<svg width="1200pt" height="1200pt" version="1.1" viewBox="0 0 1200 1200" xmlns="http://www.w3.org/2000/svg">
 <path d="m600 192c-224.4 0-408 183.6-408 408s183.6 408 408 408 408-183.6 408-408-183.6-408-408-408zm0 780c-90 0-171.6-31.199-236.4-85.199 7.1992-21.602 20.398-66 20.398-82.801 0-24-48-24-60-36s-12-48-24-60c-9.6016-9.6016-48-26.398-64.801-32.398-4.8008-24-7.1992-49.199-7.1992-75.602 0-10.801 0-20.398 1.1992-31.199 26.398-13.199 82.801-44.398 82.801-52.801 0-12-24-72-24-84s24-36 36-36 12 48 24 48 48-72 48-84c0-10.801-26.398-38.398-33.602-45.602 64.801-54 147.6-86.398 237.6-86.398 64.801 0 124.8 16.801 177.6 45.602-21.602 13.199-61.203 38.398-69.602 38.398h-72c-12 0-68.398 51.602-60 60 12 12 48-12 60-12s12 36 0 48-84 12-96 12-36 48-36 60 12 24 24 24 72-48 84-48 36 24 48 24 48-36 60-24-36 36-36 48 12 12 24 12 12 24 0 24h-84c-12 0-24-24-36-24s-132 48-132 60v72c0 12 48 48 60 48s36-12 48-12 48 60 48 72-12 24-12 36 12 36 24 48 36 24 48 12 72-72 72-84v-36c0-12 42-33.602 36-48-3.6016-8.3984-24 0-36-12s-12-108-12-108 24 72 36 84 48-24 48-36-24-60-24-60l24 24c12 12 24 0 36 0s36 84 48 84 12-36 24-48c8.3984-8.3984 32.398-10.801 48-12 0 205.2-166.8 372-372 372z"/>
</svg>
