<?xml version="1.0" encoding="UTF-8"?>
<svg width="1200pt" height="1200pt" version="1.1" viewBox="0 0 1200 1200" xmlns="http://www.w3.org/2000/svg">
 <path d="m850.2 199.8h-500.4c-39.777 0.015625-77.922 15.824-106.05 43.949-28.125 28.129-43.934 66.273-43.949 106.05v500.4c0.011719 39.777 15.82 77.922 43.949 106.05s66.273 43.938 106.05 43.949h500.4c39.777-0.011719 77.922-15.82 106.05-43.949s43.938-66.273 43.949-106.05v-500.4c-0.015625-39.777-15.824-77.922-43.949-106.05-28.129-28.125-66.273-43.934-106.05-43.949zm-456.6 440.4h30.602-0.003906c10.719 0 20.621 5.7188 25.98 15 5.3594 9.2812 5.3594 20.719 0 30-5.3594 9.2812-15.262 15-25.98 15h-30.598c-10.719 0-20.625-5.7188-25.98-15-5.3594-9.2812-5.3594-20.719 0-30 5.3555-9.2812 15.262-15 25.98-15zm206.4 180h-206.4c-10.719 0-20.625-5.7188-25.98-15-5.3594-9.2812-5.3594-20.719 0-30 5.3555-9.2812 15.262-15 25.98-15h206.4c10.719 0 20.621 5.7188 25.98 15s5.3594 20.719 0 30-15.262 15-25.98 15zm206.4 0h-87c-10.715 0-20.621-5.7188-25.98-15s-5.3594-20.719 0-30 15.266-15 25.98-15h87c10.719 0 20.625 5.7188 25.98 15 5.3594 9.2812 5.3594 20.719 0 30-5.3555 9.2812-15.262 15-25.98 15zm0.60156-120h-264c-10.719 0-20.621-5.7188-25.98-15s-5.3594-20.719 0-30 15.262-15 25.98-15h264c10.719 0 20.621 5.7188 25.98 15s5.3594 20.719 0 30-15.262 15-25.98 15z"/>
</svg>
