<?xml version="1.0" encoding="UTF-8"?>
<svg width="1200pt" height="1200pt" version="1.1" viewBox="0 0 1200 1200" xmlns="http://www.w3.org/2000/svg">
 <path d="m804 1048.8c-67.199 38.398-144 60-223.2 60-74.398 0-147.6-18-212.4-54-9.6016-6-22.801-1.1992-27.602 8.3984-4.8008 9.6016-1.1992 22.801 8.3984 27.602 70.801 38.398 151.2 58.801 231.6 58.801 85.199 0 169.2-22.801 243.6-64.801 9.6016-6 13.199-18 7.1992-27.602-4.8008-10.801-18-14.398-27.602-8.3984zm3.6016-770.4c121.2 72 202.8 198 217.2 338.4 1.1992 10.801 9.6016 18 20.398 18h2.3984c10.801-1.1992 19.199-10.801 18-22.801-15.598-152.39-104.4-290.39-237.6-368.39-9.6016-6-22.801-2.3984-27.602 7.1992-6 9.5977-2.3984 21.598 7.2031 27.598zm-692.4 356.4h2.3984c10.801 0 19.199-8.3984 20.398-18 14.398-140.4 96-267.6 218.4-339.6 9.6016-6 13.199-18 7.1992-27.602-6-9.6016-18-13.199-27.602-7.1992-134.39 78-223.19 216-238.79 369.6-1.1992 12 7.1992 21.602 18 22.801zm466.8-316.8c73.199 0 133.2-60 133.2-133.2s-60-133.2-133.2-133.2-133.2 60-133.2 133.2 60 133.2 133.2 133.2zm0-225.6c51.602 0 92.398 42 92.398 92.398 0 51.602-42 92.398-92.398 92.398-51.602 0-92.398-42-92.398-92.398 0-51.598 42-92.398 92.398-92.398zm-320.4 636h-228c-10.801 0-20.398 9.6016-20.398 20.398v228c0 10.801 9.6016 20.398 20.398 20.398h228c10.801 0 20.398-9.6016 20.398-20.398v-228c0-11.996-8.3984-20.398-20.398-20.398zm-20.402 228h-187.2v-187.2h187.2zm942 3.6016-133.2-213.6c-3.6016-6-10.801-9.6016-18-9.6016s-13.199 3.6016-18 9.6016l-132 213.6c-3.6016 6-3.6016 14.398 0 20.398s10.801 10.801 18 10.801h266.4c7.1992 0 14.398-3.6016 18-10.801 3.6016-6 3.6016-14.398-1.1992-20.398zm-246-9.6016 96-153.6 96 153.6zm-538.8-356.4c2.3984 1.1992 6 2.3984 9.6016 2.3984 7.1992 0 14.398-3.6016 18-10.801 30-61.199 92.398-99.602 160.8-99.602 58.801 0 112.8 27.602 146.4 75.602h-60c-10.801 0-20.398 9.6016-20.398 20.398 0 10.801 9.6016 20.398 20.398 20.398h128.4l0.003906-130.79c0-10.801-9.6016-20.398-20.398-20.398-10.801 0-20.398 9.6016-20.398 20.398v57.602c-42-54-104.4-85.199-174-85.199-84 0-159.6 46.801-196.8 122.4-6.0039 9.5977-1.2031 21.598 8.3945 27.598zm9.6016 284.4c10.801 0 20.398-9.6016 20.398-20.398v-57.602c42 54 104.4 85.199 174 85.199 84 0 159.6-46.801 196.8-122.4 4.8008-9.6016 1.1992-22.801-9.6016-27.602-9.6016-4.8008-22.801-1.1992-27.602 9.6016-31.199 61.199-92.398 99.602-160.8 99.602-58.801 0-112.8-27.602-146.4-75.602h60c10.801 0 20.398-9.6016 20.398-20.398 0.003907-10.801-7.1953-20.402-19.195-20.402h-128.4v129.6c0 10.801 9.5977 20.398 20.398 20.398z"/>
</svg>
