<?xml version="1.0" encoding="UTF-8"?>
<svg width="1200pt" height="1200pt" version="1.1" viewBox="0 0 1200 1200" xmlns="http://www.w3.org/2000/svg">
 <path d="m228.6 1080h742.6c31.398 0 61.398-13.398 82-36.602 20-22.602 29.602-52.602 26-82.398l-61.004-507c-6.3984-53.602-52.801-94-108-94h-90.199v-20c0-121.4-98.602-220-220-220s-220 98.602-220 220v20h-90.199c-55 0-101.4 40.398-107.8 94l-61.199 507c-3.6016 29.801 5.8008 59.801 26 82.398 20.598 23.203 50.398 36.602 81.801 36.602zm191.4-740c0-99.199 80.801-180 180-180s180 80.801 180 180v20h-360zm-259.6 625.8 61-506.8c4-33.602 33.398-58.801 68.199-58.801h90.402v100h40v-100h360v100h40v-100h90.199c34.801 0 64.199 25.398 68.199 58.801l61 506.8c2.1992 18.602-3.3984 36.801-16.199 51.199-13 14.801-32 23.199-52 23.199h-742.6c-20 0-39-8.3984-52-23.199-12.602-14.398-18.402-32.602-16.203-51.199z"/>
</svg>
