<?xml version="1.0" encoding="UTF-8"?>
<svg width="1200pt" height="1200pt" version="1.1" viewBox="0 0 1200 1200" xmlns="http://www.w3.org/2000/svg">
 <g>
  <path d="m1087.5 731.25c0-14.918-5.9258-29.227-16.477-39.773-10.547-10.551-24.855-16.477-39.773-16.477h-93.75v-300h46.5c17.488-0.050781 34.246-7.0195 46.613-19.387 12.367-12.367 19.336-29.125 19.387-46.613v-131.25c-0.24609-17.359-7.3008-33.926-19.648-46.133-12.344-12.203-28.992-19.07-46.352-19.117h-140.25v-18.75c0-4.9727-1.9766-9.7422-5.4922-13.258-3.5156-3.5156-8.2852-5.4922-13.258-5.4922h-112.5c-4.9727 0-9.7422 1.9766-13.258 5.4922-3.5156 3.5156-5.4922 8.2852-5.4922 13.258v18.75h-187.5v-18.75c0-4.9727-1.9766-9.7422-5.4922-13.258-3.5156-3.5156-8.2852-5.4922-13.258-5.4922h-112.5c-4.9727 0-9.7422 1.9766-13.258 5.4922-3.5156 3.5156-5.4922 8.2852-5.4922 13.258v18.75h-140.25c-17.488 0.050781-34.246 7.0195-46.613 19.387-12.367 12.367-19.336 29.125-19.387 46.613v131.25c0.24609 17.359 7.3008 33.926 19.648 46.133 12.344 12.203 28.992 19.07 46.352 19.117h46.5v300h-93.75c-17.73 0.13672-34.359 8.625-44.867 22.906-10.508 14.281-13.672 32.68-8.5312 49.648 5.1406 16.969 17.98 30.523 34.648 36.57v134.62c0 24.863 9.8789 48.711 27.457 66.293 17.582 17.578 41.43 27.457 66.293 27.457h18.75v18.75c-1.0156 23.812 7.4531 47.055 23.551 64.633 16.102 17.574 38.516 28.047 62.324 29.117h503.25c23.809-1.0703 46.223-11.543 62.324-29.117 16.098-17.578 24.566-40.82 23.551-64.633v-18.75h18.75c24.863 0 48.711-9.8789 66.293-27.457 17.578-17.582 27.457-41.43 27.457-66.293v-134.62c10.941-3.8672 20.418-11.027 27.133-20.492 6.7148-9.4648 10.336-20.777 10.367-32.383zm-103.5-581.25c7.5586 0 14.809 3.0039 20.152 8.3477s8.3477 12.594 8.3477 20.152v131.25c-0.19531 7.4297-3.2852 14.484-8.6094 19.668-5.3242 5.1836-12.461 8.0859-19.891 8.082h-140.25v-187.5zm-252.75 393.75h75v32.438c0.3125 23.23-10.75 45.145-29.625 58.688-4.6445 3.5625-11.105 3.5625-15.75 0-18.875-13.543-29.938-35.457-29.625-58.688zm0-37.5v-37.5h75v37.5zm0-393.75h75v243.75h-75zm93.75 281.25v37.5h-112.5v-37.5zm-131.25-243.75v187.5h-187.5v-187.5zm-300 393.75h75v32.438c0.3125 23.23-10.75 45.145-29.625 58.688-4.6445 3.5625-11.105 3.5625-15.75 0-18.875-13.543-29.938-35.457-29.625-58.688zm0-37.5v-37.5h75v37.5zm93.75-75h-112.5v-37.5h112.5zm-300-122.25v-131.25c0.19531-7.4297 3.2852-14.484 8.6094-19.668 5.3242-5.1836 12.461-8.0859 19.891-8.082h140.25v18.75c0 6.6992 3.5742 12.887 9.375 16.238 5.8008 3.3477 12.949 3.3477 18.75 0 5.8008-3.3516 9.375-9.5391 9.375-16.238v-56.25h75v243.75h-75v-112.5c0-6.6992-3.5742-12.887-9.375-16.238-5.8008-3.3477-12.949-3.3477-18.75 0-5.8008 3.3516-9.375 9.5391-9.375 16.238v93.75h-140.25c-7.5586 0-14.809-3.0039-20.152-8.3477s-8.3477-12.594-8.3477-20.152zm-18.75 403.5h93.75v37.5h-93.75c-6.6992 0-12.887-3.5742-16.238-9.375-3.3477-5.8008-3.3477-12.949 0-18.75 3.3516-5.8008 9.5391-9.375 16.238-9.375zm75 262.5c-14.918 0-29.227-5.9258-39.773-16.477-10.551-10.547-16.477-24.855-16.477-39.773v-131.25h75v187.5zm607.88 112.5h-503.25c-13.832-1.1484-26.66-7.6914-35.707-18.215-9.0508-10.527-13.602-24.188-12.668-38.035v-656.25h37.5v75c0 4.9727 1.9766 9.7422 5.4922 13.258 3.5156 3.5156 8.2852 5.4922 13.258 5.4922v107.44c-0.23828 35.441 16.75 68.793 45.562 89.438 8.5898 6.1289 18.887 9.4062 29.438 9.375 10.539-0.054688 20.809-3.3242 29.438-9.375 28.812-20.645 45.801-53.996 45.562-89.438v-107.44c4.9727 0 9.7422-1.9766 13.258-5.4922 3.5156-3.5156 5.4922-8.2852 5.4922-13.258v-75h150v75c0 4.9727 1.9766 9.7422 5.4922 13.258 3.5156 3.5156 8.2852 5.4922 13.258 5.4922v107.44c-0.23828 35.441 16.75 68.793 45.562 89.438 8.5898 6.1289 18.887 9.4062 29.438 9.375 10.539-0.054688 20.809-3.3242 29.438-9.375 28.812-20.645 45.801-53.996 45.562-89.438v-107.44c4.9727 0 9.7422-1.9766 13.258-5.4922 3.5156-3.5156 5.4922-8.2852 5.4922-13.258v-75h37.5v656.25c0.93359 13.848-3.6172 27.508-12.668 38.035-9.0469 10.523-21.875 17.066-35.707 18.215zm160.88-168.75c0 14.918-5.9258 29.227-16.477 39.773-10.547 10.551-24.855 16.477-39.773 16.477h-18.75v-187.5h75zm18.75-168.75h-93.75v-37.5h93.75c6.6992 0 12.887 3.5742 16.238 9.375 3.3477 5.8008 3.3477 12.949 0 18.75-3.3516 5.8008-9.5391 9.375-16.238 9.375z"/>
  <path d="m843.75 712.5h-375c-6.6992 0-12.887 3.5742-16.238 9.375-3.3477 5.8008-3.3477 12.949 0 18.75 3.3516 5.8008 9.5391 9.375 16.238 9.375h356.25v243.75c0 4.9727-1.9766 9.7422-5.4922 13.258-3.5156 3.5156-8.2852 5.4922-13.258 5.4922h-412.5c-4.9727 0-9.7422-1.9766-13.258-5.4922-3.5156-3.5156-5.4922-8.2852-5.4922-13.258v-243.75h18.75c6.6992 0 12.887-3.5742 16.238-9.375 3.3477-5.8008 3.3477-12.949 0-18.75-3.3516-5.8008-9.5391-9.375-16.238-9.375h-37.5c-4.9727 0-9.7422 1.9766-13.258 5.4922-3.5156 3.5156-5.4922 8.2852-5.4922 13.258v262.5c0 14.918 5.9258 29.227 16.477 39.773 10.547 10.551 24.855 16.477 39.773 16.477h412.5c14.918 0 29.227-5.9258 39.773-16.477 10.551-10.547 16.477-24.855 16.477-39.773v-262.5c0-4.9727-1.9766-9.7422-5.4922-13.258-3.5156-3.5156-8.2852-5.4922-13.258-5.4922z"/>
  <path d="m431.25 825h37.5c6.6992 0 12.887-3.5742 16.238-9.375 3.3477-5.8008 3.3477-12.949 0-18.75-3.3516-5.8008-9.5391-9.375-16.238-9.375h-37.5c-6.6992 0-12.887 3.5742-16.238 9.375-3.3477 5.8008-3.3477 12.949 0 18.75 3.3516 5.8008 9.5391 9.375 16.238 9.375z"/>
  <path d="m768.75 825c6.6992 0 12.887-3.5742 16.238-9.375 3.3477-5.8008 3.3477-12.949 0-18.75-3.3516-5.8008-9.5391-9.375-16.238-9.375h-225c-6.6992 0-12.887 3.5742-16.238 9.375-3.3477 5.8008-3.3477 12.949 0 18.75 3.3516 5.8008 9.5391 9.375 16.238 9.375z"/>
 </g>
</svg>
