<?xml version="1.0" encoding="UTF-8"?>
<svg width="1200pt" height="1200pt" version="1.1" viewBox="0 0 1200 1200" xmlns="http://www.w3.org/2000/svg">
 <path d="m600 75c-289.95 0-525 235.05-525 525s235.05 525 525 525h75c41.25 0 75-33.75 75-75s-33.75-75-75-75c-41.398 0-75-33.602-75-75s33.602-75 75-75h225c124.27 0 225-100.73 225-225 0-289.95-235.05-525-525-525zm-300 525c-41.398 0-75-33.602-75-75s33.602-75 75-75 75 33.602 75 75-33.602 75-75 75zm150-225c-41.398 0-75-33.602-75-75s33.602-75 75-75 75 33.602 75 75-33.602 75-75 75zm300 0c-41.398 0-75-33.602-75-75s33.602-75 75-75 75 33.602 75 75-33.602 75-75 75zm150 225c-41.398 0-75-33.602-75-75s33.602-75 75-75 75 33.602 75 75-33.602 75-75 75z"/>
</svg>
