<?xml version="1.0" encoding="UTF-8"?>
<svg width="1200pt" height="1200pt" version="1.1" viewBox="0 0 1200 1200" xmlns="http://www.w3.org/2000/svg">
 <path d="m970.08 599.77h-219.14c-19.453 0-35.391 15.938-35.391 35.391v181.64c0 19.453 15.938 35.391 35.391 35.391h219.14c19.453 0 35.391-15.938 35.391-35.391v-181.64c-0.23438-19.453-16.172-35.391-35.391-35.391zm-219.14-28.125h88.359c14.062-108.98-15.234-218.67-80.859-305.86-52.734 2.5781-100.08-32.812-112.03-84.609-3.9844-17.109-3.75-35.156 0.70312-52.031 1.1719-5.8594 5.8594-10.547 12.188-11.25 73.828-8.6719 134.77 56.719 120.47 129.61 70.312 92.109 101.95 208.36 87.891 323.91h102.42c34.922 0 63.516 28.594 63.516 63.281v181.64c0 34.922-28.594 63.516-63.516 63.516h-219.14c-34.922 0-63.516-28.594-63.516-63.516v-181.17c0-34.922 28.594-63.516 63.516-63.516zm1.875-333.75c6.7969-48.75-31.172-92.578-80.625-92.578-6.5625 48.984 31.406 92.578 80.625 92.578zm58.828 227.11c-61.641 58.594-163.12 36.328-194.53-42.891-2.1094-5.3906-0.70312-11.484 3.2812-15.234 61.641-58.594 163.12-36.328 194.53 42.891 2.3438 5.3906 0.70312 11.484-3.2812 15.234zm-58.125 1.6406c11.25-3.0469 22.031-8.4375 31.406-15.703-26.719-50.391-92.344-64.688-137.58-30.234 20.156 38.203 64.219 57.656 106.17 45.938zm178.12 40.312c76.875 1.875 135.7-67.969 120.94-143.44-76.875-1.6406-135.7 67.969-120.94 143.44zm58.359 17.578c-22.266 8.9062-46.641 12.422-70.312 10.078-5.8594-0.46875-11.016-4.2188-12.656-10.312-20.391-72.656 16.875-149.53 87.422-177.89 22.5-8.9062 46.641-12.422 70.312-10.078 5.8594 0.23438 11.016 4.2188 12.656 10.312 20.156 72.656-17.109 149.53-87.422 177.89zm-110.86-213.05c43.359-23.438 56.016-79.922 26.953-119.77-43.594 23.672-56.016 80.156-26.953 119.77zm44.531-0.46875c-11.719 13.594-26.484 24.141-43.125 30.703-5.1562 2.1094-11.25 0.9375-15.234-3.5156-52.969-56.25-32.344-148.59 39.609-176.95 5.1562-2.1094 11.25-0.9375 15.234 3.5156 37.969 40.781 39.844 103.83 3.5156 146.25zm-530.16 717.42c-6.7969-3.9844-8.9062-12.422-5.1562-19.219 3.9844-6.7969 12.422-8.9062 19.219-5.1562 154.45 89.297 351.8 57.656 470.62-76.641 5.1562-5.8594 14.062-6.3281 19.688-1.1719 5.8594 5.1562 6.3281 14.062 1.1719 19.688-127.5 144.38-339.14 178.59-505.55 82.5zm202.5-755.86c7.7344 0 14.062 6.3281 14.062 14.062s-6.3281 14.062-14.062 14.062c-188.67 0-347.81 139.69-373.36 324.84-0.9375 7.7344-8.2031 13.125-15.703 11.953-7.7344-1.1719-13.125-8.2031-11.953-15.703 27.422-199.22 198.28-349.22 401.02-349.22zm-314.06 567.89c0-0.9375 0.23438-1.875 0.23438-2.5781-0.46875-3.75-1.1719-7.5-1.875-11.25-13.359-62.109-69.375-105.23-132.42-103.36-16.641 82.969 48.281 159.84 132.66 157.27 0.46875-2.5781 0.9375-5.1562 1.1719-7.7344v-32.344zm28.125 33.984v150.94c0 7.7344-6.3281 14.062-14.062 14.062s-14.062-6.3281-14.062-14.062v-116.72c-107.58 3.75-187.97-98.438-158.67-202.27 1.6406-6.0938 6.7969-9.8438 12.656-10.312 25.547-2.5781 51.562 0.9375 75.703 10.781 32.109 12.891 59.297 36.094 77.578 66.562 20.391-62.812 82.734-102.19 148.12-94.453 6.0938 0.70312 11.016 5.3906 12.188 11.25 5.625 21.562 5.8594 44.297 0.9375 65.859-15 64.219-73.359 108.75-138.98 106.88-0.46875 3.75-0.9375 7.5-1.4062 11.484zm3.0469-83.438c-3.2812 14.531-3.75 29.297-1.1719 43.828 69.609 2.3438 123.75-60 112.03-128.67-52.5-1.875-98.906 33.75-110.86 84.844z"/>
</svg>
