<?xml version="1.0" encoding="UTF-8"?>
<svg width="1200pt" height="1200pt" version="1.1" viewBox="0 0 1200 1200" xmlns="http://www.w3.org/2000/svg">
 <g>
  <path d="m942.96 940.8v-58.441c0-6.9453-3.707-13.363-9.7227-16.836-6.0117-3.4727-13.422-3.4727-19.438 0-6.0156 3.4727-9.7227 9.8906-9.7227 16.836l1.3203 105.24v0.003906c-0.015626 5.1523 2.0625 10.09 5.7617 13.68 3.5352 3.6172 8.3828 5.6523 13.441 5.6406l105.24-1.3203c5.1367-0.125 10.02-2.2539 13.605-5.9336 3.5898-3.6758 5.5977-8.6094 5.5938-13.746-0.0625-5.1172-2.1367-10-5.7773-13.594-3.6367-3.5938-8.5469-5.6094-13.66-5.6094h-58.441l2.7617-3c87.539-89.719 139.89-207.93 147.51-333.05 7.6172-125.12-30.016-248.81-106.02-348.49-76.012-99.676-185.33-168.7-308.01-194.46-94.852-19.652-193.29-12.633-284.4 20.281-5.5391 2.9219-9.3164 8.3477-10.137 14.555-0.82031 6.2109 1.418 12.43 6.0078 16.691 4.5898 4.2578 10.957 6.0312 17.09 4.7539 103.06-37.238 215.72-38.359 319.5-3.1797 103.79 35.18 192.54 104.57 251.71 196.8 59.176 92.23 85.266 201.83 73.992 310.83-11.277 109-59.246 210.94-136.05 289.11z"/>
  <path d="m777 1092c5.4766-1.1406 10.191-4.6016 12.922-9.4844 2.7266-4.8828 3.207-10.711 1.3125-15.973-1.8945-5.2656-5.9766-9.4492-11.195-11.469-5.2148-2.0234-11.051-1.6836-16 0.92578-103.14 37.473-215.96 38.75-319.93 3.625-103.96-35.125-192.89-104.57-252.17-196.91-59.281-92.348-85.391-202.11-74.039-311.26 11.348-109.15 59.484-211.2 136.5-289.37l2.8789-3v58.559l0.003906 0.003906c0.0625 5.1133 2.1367 9.9961 5.7773 13.59 3.6367 3.5938 8.5469 5.6094 13.66 5.6094 5.1367-0.125 10.02-2.2539 13.609-5.9297 3.5859-3.6797 5.5938-8.6133 5.5938-13.75l-1.3203-105.24c-0.058593-4.9727-2.0195-9.7344-5.4766-13.305-3.4609-3.5742-8.1562-5.6836-13.125-5.8984l-105.24 1.1992v0.003906c-5.1367 0.125-10.02 2.2539-13.609 5.9297-3.5859 3.6758-5.5938 8.6094-5.5938 13.75 0.066406 5.1133 2.1406 9.9961 5.7812 13.59 3.6367 3.5938 8.5469 5.6094 13.66 5.6094h58.441l-2.7617 3c-95.949 98.629-149.11 231.13-147.95 368.73 1.1602 137.6 56.551 269.18 154.15 366.18 97.598 97 229.52 151.58 367.12 151.89 60.305-0.13281 120.15-10.48 177-30.602z"/>
 </g>
</svg>
