<?xml version="1.0" encoding="UTF-8"?>
<svg width="1200pt" height="1200pt" version="1.1" viewBox="0 0 1200 1200" xmlns="http://www.w3.org/2000/svg">
 <path d="m392.4 432c-80.398 0-146.4 66-146.4 146.4 0 80.398 66 146.4 146.4 146.4 37.199 0 70.801-14.398 97.199-37.199l106.8 106.8v267.6c0 7.1992 4.8008 12 12 12 7.1992 0 12-4.8008 12-12v-267.6l108-108c26.398 22.801 60 37.199 97.199 37.199 80.398 0 146.4-66 146.4-146.4 0-80.398-66-146.4-146.4-146.4-80.398 0-146.4 66-146.4 146.4 0 34.801 12 66 32.398 91.199l-91.199 91.199v-267.6c91.199-6 164.4-82.801 164.4-175.2 0-97.199-79.199-176.4-176.4-176.4-97.199-0.003906-176.4 79.199-176.4 176.4 0 93.602 72 169.2 164.4 175.2v267.6l-91.199-91.199c20.398-25.199 32.398-56.398 32.398-91.199 0.003906-80.402-64.797-145.2-145.2-145.2zm432 24c67.199 0 122.4 55.199 122.4 122.4 0 67.199-55.199 122.4-122.4 122.4-67.199 0-122.4-55.199-122.4-122.4 0-67.199 55.199-122.4 122.4-122.4zm-368.4-139.2c0-84 68.398-152.4 152.4-152.4s152.4 68.398 152.4 152.4-68.398 152.4-152.4 152.4-152.4-68.398-152.4-152.4zm-63.602 382.8c-67.199 0-122.4-55.199-122.4-122.4 0-67.203 54-121.2 122.4-121.2 68.398 0 122.4 55.199 122.4 122.4 0.003906 67.203-55.195 121.2-122.4 121.2z"/>
</svg>
