<?xml version="1.0" encoding="UTF-8"?>
<svg width="1200pt" height="1200pt" version="1.1" viewBox="0 0 1200 1200" xmlns="http://www.w3.org/2000/svg">
 <path d="m639 1087.5v-116.66c0-20.699-16.801-37.5-37.5-37.5s-37.5 16.801-37.5 37.5v116.66c0 20.699 16.801 37.5 37.5 37.5s37.5-16.801 37.5-37.5zm199.24-199.16 82.461 82.465c14.664 14.66 38.402 14.66 53.062 0 14.625-14.625 14.625-38.402 0-53.027l-82.5-82.5c-14.625-14.625-38.398-14.625-53.023 0-14.664 14.664-14.664 38.402 0 53.062zm-555.94 82.465 82.5-82.465c14.625-14.66 14.625-38.398 0-53.062-14.625-14.625-38.402-14.625-53.027 0l-82.5 82.5c-14.625 14.625-14.625 38.402 0 53.027 14.625 14.66 38.402 14.66 53.027 0zm318.22-633.3c-146.02 0-264.6 118.57-264.6 264.64 0 146.03 118.57 264.6 264.6 264.6 146.06 0 264.64-118.57 264.64-264.6 0-146.06-118.58-264.64-264.64-264.64zm373.24 298.57h116.66c20.699 0 37.5-16.801 37.5-37.5s-16.801-37.5-37.5-37.5h-116.66c-20.699 0-37.5 16.801-37.5 37.5s16.801 37.5 37.5 37.5zm-861.19 0h116.66c20.699 0 37.5-16.801 37.5-37.5s-16.801-37.5-37.5-37.5h-116.66c-20.699 0-37.5 16.801-37.5 37.5s16.801 37.5 37.5 37.5zm116.7-356.7 82.5 82.5c14.625 14.625 38.402 14.625 53.027 0 14.625-14.664 14.625-38.398 0-53.062l-82.5-82.461c-14.625-14.664-38.402-14.664-53.027 0-14.625 14.625-14.625 38.398 0 53.023zm661.99 82.5 82.5-82.5c14.625-14.625 14.625-38.398 0-53.023-14.66-14.664-38.398-14.664-53.062 0l-82.461 82.461c-14.664 14.664-14.664 38.398 0 53.062 14.625 14.625 38.398 14.625 53.023 0zm-252.26-135.56v-116.66c0-20.699-16.801-37.5-37.5-37.5s-37.5 16.801-37.5 37.5v116.66c0 20.699 16.801 37.5 37.5 37.5s37.5-16.801 37.5-37.5z" fill-rule="evenodd"/>
</svg>
