<svg xmlns="http://www.w3.org/2000/svg" xmlns:xlink="http://www.w3.org/1999/xlink" version="1.1" x="0px" y="0px" viewBox="0 0 100 100" style="enable-background:new 0 0 100 100;" xml:space="preserve"><g><path d="M70.647,25.58C70.598,14.224,61.357,5,50,5c-11.367,0-20.617,9.225-20.665,20.582   c-7.936,3.064-13.201,10.658-13.201,19.256c0,11.387,9.272,20.651,20.669,20.651h11.688V93.5c0,0.829,0.672,1.5,1.5,1.5   s1.5-0.671,1.5-1.5V65.489h11.705c11.396,0,20.669-9.264,20.669-20.651C83.865,36.225,78.594,28.63,70.647,25.58z M63.196,62.489   H51.491V36.46c0-0.829-0.672-1.5-1.5-1.5s-1.5,0.671-1.5,1.5v13.557l-5.8-5.799c-0.586-0.586-1.535-0.586-2.121,0   s-0.586,1.536,0,2.121l7.921,7.92v8.23H36.804c-9.743,0-17.669-7.918-17.669-17.651c0-7.671,4.895-14.419,12.179-16.792   c0.032-0.01,0.06-0.028,0.091-0.04c0.049-0.02,0.098-0.039,0.144-0.064c0.043-0.023,0.083-0.05,0.124-0.076   c0.04-0.027,0.08-0.053,0.117-0.083c0.039-0.031,0.074-0.066,0.109-0.101c0.034-0.033,0.067-0.066,0.097-0.103   c0.03-0.036,0.057-0.075,0.084-0.114c0.029-0.041,0.056-0.083,0.08-0.127c0.021-0.039,0.039-0.079,0.057-0.119   c0.021-0.048,0.042-0.096,0.058-0.147c0.014-0.042,0.023-0.086,0.033-0.13c0.011-0.05,0.022-0.101,0.028-0.153   c0.006-0.049,0.006-0.098,0.007-0.147c0.001-0.036,0.007-0.07,0.005-0.107c-0.017-0.289-0.016-0.579-0.016-0.868   C32.331,15.926,40.257,8,50,8c9.733,0,17.651,7.926,17.651,17.669c0,0.289,0.001,0.579-0.016,0.868   c-0.002,0.035,0.004,0.069,0.005,0.103c0.001,0.052,0.001,0.103,0.007,0.155c0.006,0.049,0.016,0.096,0.027,0.144   c0.01,0.047,0.02,0.093,0.035,0.139c0.015,0.048,0.035,0.093,0.055,0.138c0.019,0.043,0.037,0.086,0.06,0.127   c0.023,0.042,0.05,0.081,0.077,0.121c0.028,0.04,0.055,0.08,0.087,0.118c0.029,0.035,0.062,0.067,0.094,0.099   c0.036,0.036,0.072,0.071,0.112,0.103c0.037,0.03,0.076,0.055,0.115,0.081c0.041,0.027,0.082,0.054,0.126,0.078   c0.046,0.024,0.095,0.043,0.144,0.063c0.032,0.013,0.06,0.03,0.093,0.041c7.293,2.359,12.193,9.106,12.193,16.791   C80.865,54.571,72.939,62.489,63.196,62.489z"/></g></svg>