<?xml version="1.0" encoding="UTF-8"?>
<svg width="1200pt" height="1200pt" version="1.1" viewBox="0 0 1200 1200" xmlns="http://www.w3.org/2000/svg">
 <path d="m900.84 574.44h-211.8c-26.883-0.17578-52.105 12.977-67.352 35.125-15.242 22.145-18.523 50.402-8.7578 75.453 9.7617 25.047 31.301 43.633 57.512 49.621-0.10938 26.738-9.8906 52.539-27.535 72.633s-41.965 33.125-68.465 36.688v-352.56c31.938-3.5586 61.672-18.027 84.188-40.957 22.516-22.93 36.434-52.922 39.41-84.922h4.3203c29.023 0 55.844-15.484 70.355-40.621 14.512-25.133 14.512-56.102 0-81.238-14.512-25.137-41.332-40.621-70.355-40.621h-75.961c-29.023 0-55.844 15.484-70.355 40.621-14.512 25.137-14.512 56.105 0 81.238 14.512 25.137 41.332 40.621 70.355 40.621h42.84c-3.168 26.891-16.074 51.688-36.285 69.711-20.207 18.02-46.316 28.012-73.395 28.09h-14.398v109.56c-24.125-3.1719-46.527-14.219-63.734-31.426s-28.25-39.609-31.426-63.734h0.96094c29.023 0 55.844-15.484 70.355-40.617 14.512-25.137 14.512-56.105 0-81.242-14.512-25.137-41.332-40.621-70.355-40.621h-151.8c-29.023 0-55.844 15.484-70.355 40.621-14.512 25.137-14.512 56.105 0 81.242 14.512 25.133 41.332 40.617 70.355 40.617h122.04c3.2734 31.773 17.383 61.449 39.957 84.043 22.574 22.598 52.234 36.734 84.004 40.039v395.16h28.801v-124.2c33.852-3.4531 65.27-19.176 88.324-44.199 23.059-25.023 36.16-57.621 36.836-91.641h201.72c29.023 0 55.844-15.484 70.355-40.621 14.512-25.137 14.512-56.105 0-81.242-14.512-25.133-41.332-40.617-70.355-40.617zm-326.88-290.16c0.03125-13.898 5.5664-27.219 15.395-37.047s23.145-15.363 37.043-15.395h75.961c18.734 0 36.047 9.9961 45.414 26.219 9.3672 16.227 9.3672 36.215 0 52.441-9.3672 16.227-26.68 26.219-45.414 26.219h-75.961c-13.898-0.03125-27.215-5.5664-37.043-15.395-9.8281-9.8242-15.363-23.145-15.395-37.043zm-327.24 111.72c0.03125-13.898 5.5664-27.219 15.395-37.047s23.148-15.363 37.047-15.395h151.8c18.734 0 36.047 9.9961 45.414 26.223 9.3672 16.223 9.3672 36.215 0 52.438-9.3672 16.227-26.68 26.223-45.414 26.223h-151.8c-13.898-0.03125-27.219-5.5664-37.047-15.395s-15.363-23.148-15.395-37.047zm654.12 312h-211.8c-18.734 0-36.047-9.9961-45.414-26.219-9.3672-16.227-9.3672-36.215 0-52.441 9.3672-16.227 26.68-26.219 45.414-26.219h211.8c18.734 0 36.047 9.9922 45.414 26.219 9.3672 16.227 9.3672 36.215 0 52.441-9.3672 16.223-26.68 26.219-45.414 26.219z"/>
</svg>
