<?xml version="1.0" encoding="UTF-8"?>
<svg width="1200pt" height="1200pt" version="1.1" viewBox="0 0 1200 1200" xmlns="http://www.w3.org/2000/svg">
 <path d="m862.4 723.29c0 134.45-102.93 245.49-234.75 259.73v-143.65l145.43-103.81c10.637-7.5898 13.051-22.297 5.3984-32.844-7.6523-10.543-22.477-12.941-33.117-5.3516l-117.71 84.023v-217.7l95.832-68.402c10.637-7.5898 13.051-22.297 5.3984-32.844-7.6523-10.543-22.477-12.941-33.117-5.3516l-68.113 48.617v-135.28c0-12.992-10.625-23.527-23.727-23.527-13.102 0-23.723 10.535-23.723 23.527v283.44l-115.82-82.668c-10.633-7.5898-25.461-5.1953-33.117 5.3516-7.6562 10.551-5.2383 25.254 5.3984 32.844l143.54 102.45v272.07c-136.58-9.5586-244.75-122.79-244.75-260.62v-414.95c0-144.07 118.2-261.29 263.47-261.29 145.29 0 263.48 117.21 263.48 261.29zm-263.48-723.29c-171.45 0-310.93 138.32-310.93 308.35v414.95c0 163.79 129.45 298.14 292.21 307.77v145.4c0 12.996 10.621 23.531 23.723 23.531 13.102 0 23.727-10.535 23.727-23.531v-146.15c158.03-14.43 282.2-146.61 282.2-307.02v-414.95c0-170.02-139.48-308.35-310.93-308.35z" fill-rule="evenodd"/>
</svg>
