<?xml version="1.0" encoding="UTF-8"?>
<svg width="1200pt" height="1200pt" version="1.1" viewBox="0 0 1200 1200" xmlns="http://www.w3.org/2000/svg">
 <g>
  <path d="m133.08 36h931.48c73.992 0 133.08 58.969 133.08 131.9 0 72.949-59.09 131.14-133.08 131.14h-931.48c-73.234 0-133.08-58.188-133.08-131.14 0-72.934 59.844-131.9 133.08-131.9z"/>
  <path d="m135.43 474.42h931.49c73.223 0 133.08 58.199 133.08 131.12 0 72.949-59.855 131.94-133.08 131.94l-931.49-0.003906c-74.016 0-133.07-58.992-133.07-131.94-0.003907-72.934 59.047-131.12 133.07-131.12z"/>
  <path d="m133.86 912.07h931.49c73.992 0 133.08 58.969 133.08 131.88 0 72.168-59.09 131.18-133.08 131.18l-931.49 0.003907c-74.016 0-133.07-59.016-133.07-131.18 0-72.914 59.051-131.88 133.07-131.88z"/>
 </g>
</svg>
