<?xml version="1.0" encoding="UTF-8"?>
<svg width="1200pt" height="1200pt" version="1.1" viewBox="0 0 1200 1200" xmlns="http://www.w3.org/2000/svg">
 <g>
  <path d="m600 1022.5c-61.809-0.042969-122.52-16.355-176.02-47.301-53.504-30.945-97.918-75.426-128.78-128.98l89.52-51.602-247.08-66.355-65.641 247.2 122.16-70.441c55.422 95.891 142.93 169.12 247.09 206.77 104.16 37.656 218.26 37.309 322.19-0.97266l-40.801-110.16c-39.258 14.512-80.789 21.906-122.64 21.84z"/>
  <path d="m1006.8 905.16c55.562-95.996 75.32-208.57 55.77-317.75-19.551-109.18-77.148-207.9-162.57-278.65l-74.879 90.48v-0.003907c39.906 32.988 72.008 74.406 94.004 121.27 21.992 46.871 33.328 98.035 33.195 149.81-0.003906 23.816-2.375 47.574-7.082 70.918-7.6172 37.027-21.191 72.566-40.199 105.24l-89.762-51.84 66.121 247.08 247.2-66.238z"/>
  <path d="m600 200.64c-110.94 0.027344-218.29 39.324-303.03 110.93-84.738 71.605-141.39 170.89-159.93 280.27l115.92 19.441c13.938-81.969 56.422-156.36 119.94-210.01 63.512-53.652 143.96-83.109 227.1-83.148v103.56l180.96-180.72-180.96-180.96z"/>
 </g>
</svg>
