<?xml version="1.0" encoding="UTF-8"?>
<svg width="1200pt" height="1200pt" version="1.1" viewBox="0 0 1200 1200" xmlns="http://www.w3.org/2000/svg">
 <path d="m1131 712.3c-5.4336-16.023-11.859-32.613-19.34-49.695-6.3516-14.398-13.199-28.66-20.684-42.637-0.054688 0.32422-0.14844 0.63672-0.20312 0.96094-39.492-74.688-94.172-142.97-163.53-204.33h0.32422c-9.3242-8.2227-18.996-16.285-28.848-24.27-1.1289-0.91797-2.2461-1.8359-3.3867-2.7539-7.5742-6.0781-15.254-12.098-23.141-18.035-0.19141-0.14062-0.375-0.28906-0.56641-0.4375-6.75-5.0742-13.602-10.102-20.582-15.07-0.75391-0.53516-1.5547-1.0508-2.3086-1.582-8.0391-5.6953-16.258-11.309-24.586-16.855-1.1016-0.73438-2.1523-1.4805-3.2539-2.2109-9.9883-6.6016-20.141-13.117-30.543-19.512l82.023-123.11c0.070313-0.070312 0.14062-0.21094 0.21094-0.28125 20.613-31.27 22.445-71.082 4.7305-103.91-17.578-32.824-51.812-53.293-89.223-53.293h-376.17c-37.41 0-71.648 20.469-89.223 53.293-17.719 32.824-15.883 72.637 4.7305 103.91 0.070312 0.070313 0.14062 0.21094 0.21094 0.28125l82.023 123.11c-10.406 6.3945-20.562 12.91-30.551 19.512-1.0859 0.71484-2.125 1.4609-3.2031 2.1758-8.3516 5.5625-16.582 11.18-24.637 16.891-0.75391 0.53516-1.5586 1.043-2.3086 1.582-6.9805 4.9688-13.836 10.004-20.582 15.07-0.19141 0.14062-0.375 0.28906-0.56641 0.4375-7.8828 5.9375-15.566 11.965-23.141 18.035-1.1367 0.91016-2.25 1.8281-3.3828 2.7461-9.8555 7.9844-19.523 16.051-28.855 24.273h0.32422c-69.359 61.363-124.04 129.64-163.53 204.33-0.0625-0.32422-0.14844-0.63672-0.20312-0.96094-7.4805 13.977-14.328 28.234-20.684 42.637-7.4805 17.082-13.906 33.672-19.34 49.695-29.957 88.293-30.727 158.02-30.359 188.23 0 1.9414-0.027343 3.875 0 5.8164v3.7422c0 140.4 126 254.61 280.87 254.61h560.97c154.87 0 280.87-114.21 280.87-254.61v-3.7422c0.027344-1.9414 0-3.875 0-5.8164 0.36719-30.211-0.40234-99.938-30.359-188.23zm-744.49-558.7c-6.2812-9.3867-6.8477-21.531-1.5547-31.48 5.3633-10.023 15.742-16.234 27.035-16.234h376.02c11.293 0 21.672 6.2109 27.035 16.234 5.293 9.9531 4.7305 22.094-1.5547 31.48l-89.074 133.83c-0.54297-0.070313-1.0781-0.13281-1.625-0.13281h-245.58c-0.54297 0-1.0781 0.070313-1.625 0.13281l-89.074-133.83zm704.11 756.49c0 101.65-94.094 184.02-210.28 184.02h-560.67c-116.19 0-210.28-82.375-210.28-184.02 0-6.043-0.52344-18.895 0.26172-37.102 0.035156-0.70703 0.0625-1.3984 0.10547-2.125 0.019531-0.38281 0.042968-0.78516 0.0625-1.1641 4.6797-84.715 38.66-276.76 266.03-445.81 1.0586-0.78516 2.1602-1.5664 3.2266-2.3516 3.4883-2.5703 6.9961-5.1406 10.574-7.6953 10.277-7.3203 20.914-14.582 31.949-21.797 7.8984-5.2031 16.016-10.363 24.324-15.488 0.55078-0.33984 1.1094-0.67578 1.6602-1.0156 8.3086-5.1055 16.809-10.172 25.539-15.184 1.3906 0.070313 2.7734 0.21094 4.0938 0.21094h245.58c1.3203 0 2.7031-0.13281 4.0938-0.21094 8.7305 5.0117 17.23 10.078 25.539 15.184 0.55078 0.33984 1.1094 0.67578 1.6602 1.0156 8.3086 5.125 16.426 10.285 24.324 15.488 11.027 7.2148 21.672 14.477 31.949 21.797 3.5781 2.5547 7.0859 5.125 10.574 7.6953 1.0664 0.78516 2.168 1.5664 3.2266 2.3516 227.39 169.07 261.36 361.13 266.03 445.84 0.019531 0.375 0.042968 0.76172 0.0625 1.1289 0.035156 0.72656 0.070312 1.4258 0.10547 2.1406 0.78516 18.203 0.26172 31.059 0.26172 37.102z"/>
</svg>
