<?xml version="1.0" encoding="UTF-8"?>
<svg width="1200pt" height="1200pt" version="1.1" viewBox="0 0 1200 1200" xmlns="http://www.w3.org/2000/svg">
 <g>
  <path d="m1125 937.5h37.5v37.5h-37.5z"/>
  <path d="m112.5 918.75c13.02 0.015625 25.898-2.6836 37.816-7.9297l74.684 89.711v161.97h37.5v-161.97l74.684-89.711c11.918 5.2461 24.797 7.9453 37.816 7.9297 41.422 0 75-25.184 75-56.25s-33.578-56.25-75-56.25-75 25.184-75 56.25c0.15234 8.8711 2.9336 17.496 7.9883 24.789l-45.488 54.633v-137.66c32.293-6.2695 56.25-28.078 56.25-54.258 0-31.066-33.578-56.25-75-56.25s-75 25.184-75 56.25c0 26.18 23.957 47.988 56.25 54.262v137.66l-45.488-54.637c5.0547-7.293 7.8359-15.918 7.9883-24.789 0-31.066-33.578-56.25-75-56.25s-75 25.184-75 56.25 33.578 56.25 75 56.25z"/>
  <path d="m975 1162.5h37.5v-198.49l107.01-107-26.516-26.516-80.492 80.496v-142.24h-37.5v142.24l-80.492-80.496-26.516 26.516 107.01 107z"/>
  <path d="m806.25 900h37.5v37.5h-37.5z"/>
  <path d="m862.5 1106.2h37.5v37.5h-37.5z"/>
  <path d="m1050 1050h37.5v37.5h-37.5z"/>
  <path d="m1125 1125h37.5v37.5h-37.5z"/>
  <path d="m881.25 993.75h37.5v37.5h-37.5z"/>
  <path d="m112.5 600c0.003906 19.539 1.1602 39.062 3.4609 58.465l37.242-4.4297c-2.1289-17.934-3.1992-35.977-3.2031-54.035-0.27344-69.914 15.875-138.91 47.141-201.45 31.266-62.531 76.777-116.85 132.87-158.58l-22.523-29.992c-60.762 45.211-110.06 104.05-143.93 171.8-33.867 67.742-51.355 142.49-51.059 218.23z"/>
  <path d="m348.01 972.89-21.02 31.055h-0.003907c74.195 50.098 160.74 78.82 250.17 83.02 89.43 4.2031 178.29-16.277 256.85-59.199l-18.02-32.887h0.003907c-72.52 39.609-154.54 58.508-237.07 54.629-82.539-3.8789-162.42-30.387-230.91-76.617z"/>
  <path d="m1050 600c0.035156 42.77-6.0273 85.328-18 126.39l36 10.527v0.003907c27.762-95.254 25.84-196.7-5.5039-290.84-31.344-94.133-90.625-176.48-169.95-236.08l-22.523 29.973v0.003907c56.082 41.738 101.58 96.059 132.84 158.59 31.262 62.531 47.406 131.53 47.137 201.43z"/>
  <path d="m487.34 108.43c-52.715 4.625-93.59 37.18-93.59 76.727 1.0977 14.406 6.3047 28.199 15.008 39.734 8.6992 11.535 20.527 20.336 34.078 25.352-13.816 11.945-21.973 29.152-22.473 47.414 0 42.715 47.66 77.344 106.45 77.344 18.711 0.078125 37.238-3.6953 54.434-11.082v254.83h37.5v-250.02c13.32 4.1289 27.184 6.2422 41.129 6.2695 58.793 0 106.45-34.629 106.45-77.344-0.32031-16.355-6.9453-31.957-18.492-43.547 34.629-12.762 58.41-38.812 58.41-68.953 0-42.715-47.66-77.344-106.45-77.344l-0.48828 0.019531c-4.8828-39.426-50.43-70.332-105.96-70.332-55.812 0-101.51 31.223-106.01 70.93z"/>
 </g>
</svg>
