<?xml version="1.0" encoding="UTF-8"?>
<svg width="1200pt" height="1200pt" version="1.1" viewBox="0 0 1200 1200" xmlns="http://www.w3.org/2000/svg">
 <path d="m763.99 234.9h-24.07v-7.7773c0-68.387-55.645-124.02-124.03-124.02h-31.777c-68.375 0-124.01 55.633-124.01 124.02v7.7773h-24.098c-99.254 0-180 80.746-180 180v502c0 99.254 80.746 180 180 180h327.98c99.254 0 180-80.746 180-180v-502c0-99.238-80.734-180-180-180zm-231.89-7.7734c0-28.691 23.328-52.02 52.008-52.02h31.777c28.691 0 52.031 23.328 52.031 52.02v7.7773l-135.82-0.003906zm339.89 689.77c0 59.555-48.445 108-108 108h-327.98c-59.555 0-108-48.445-108-108v-347.33c25.621 19.309 56.398 32.09 90 35.438v131.64h72v-130.73h220.01v130.73h72v-131.64c33.602-3.3477 64.367-16.141 89.977-35.438z"/>
</svg>
