<?xml version="1.0" encoding="UTF-8"?>
<svg width="1200pt" height="1200pt" version="1.1" viewBox="0 0 1200 1200" xmlns="http://www.w3.org/2000/svg">
 <path d="m595.11 526.14 133.77-115.93v-129.97c0-4.0234 1.6016-7.8867 4.4453-10.73 2.8477-2.8477 6.7109-4.4492 10.734-4.4492h136.8c4.0273 0 7.8867 1.6016 10.734 4.4492 2.8477 2.8438 4.4453 6.707 4.4453 10.73v136.8c0 4.0273-1.5977 7.8867-4.4453 10.734-2.8477 2.8477-6.707 4.4453-10.734 4.4453h-131.21l-133.09 115.38 36.887 36.887h0.003907c2.8438 2.8477 4.4453 6.707 4.4453 10.734 0 4.0234-1.6016 7.8867-4.4453 10.734l-36.48 36.48 143.2 115.75 131.54-0.003906c4.0273 0 7.8867 1.6016 10.734 4.4453 2.8477 2.8477 4.4453 6.7109 4.4453 10.734v136.8c0 4.0273-1.5977 7.8867-4.4453 10.734-2.8477 2.8477-6.707 4.4453-10.734 4.4453h-136.8c-4.0234 0-7.8867-1.5977-10.73-4.4453-2.8477-2.8477-4.4492-6.707-4.4492-10.734v-129.6l-144.29-116.6-38.762 38.762v-0.003906c-2.8477 2.8477-6.707 4.4492-10.734 4.4492-4.0234 0-7.8867-1.6016-10.734-4.4492l-96.766-96.719c-2.8438-2.8516-4.4375-6.7109-4.4375-10.734s1.5938-7.8828 4.4375-10.734l96.754-96.816c2.8516-2.8398 6.7109-4.4336 10.734-4.4336 4.0234 0 7.8828 1.5938 10.734 4.4336l38.398 38.398zm431.86 454.8h113.04c4.0273 0 7.8867 1.5977 10.734 4.4453 2.8477 2.8477 4.4453 6.707 4.4453 10.734v112.98c0.007812 4.0273-1.5898 7.8945-4.4375 10.746-2.8477 2.8555-6.7109 4.457-10.742 4.457h-113.04c-4.0273 0-7.8867-1.6016-10.734-4.4453-2.8477-2.8477-4.4453-6.7109-4.4453-10.734v-112.98c0-4.0273 1.6016-7.8867 4.4492-10.73 2.8438-2.8477 6.7031-4.4453 10.73-4.4492zm-191.46 28.801h84.145v-0.003907c4.0312 0.007813 7.8945 1.6172 10.738 4.4766s4.4336 6.7344 4.418 10.766v84.145c0 4.0234-1.6016 7.8867-4.4453 10.734-2.8477 2.8438-6.7109 4.4453-10.734 4.4453h-84.121c-4.0273 0-7.8867-1.6016-10.734-4.4453-2.8477-2.8477-4.4453-6.7109-4.4453-10.734v-84.145c0-4.0273 1.5977-7.8867 4.4453-10.734s6.707-4.4453 10.734-4.4453zm-163.32-15.984h69.602c4.0234 0 7.8828 1.5977 10.727 4.4414 2.8477 2.8438 4.4492 6.6992 4.4531 10.727v69.602-0.003906c-0.003907 4.0273-1.6055 7.8867-4.4492 10.73-2.8477 2.8477-6.707 4.4453-10.73 4.4492h-69.602c-4.0273 0-7.8867-1.5977-10.734-4.4453-2.8477-2.8477-4.4453-6.707-4.4453-10.734v-69.602 0.003906c0-4.0273 1.6016-7.8867 4.4453-10.73 2.8477-2.8477 6.7109-4.4414 10.734-4.4375zm309.24-206.51 100.14-0.003906c4.0469-0.015625 7.9336 1.5859 10.797 4.4492 2.8594 2.8594 4.4609 6.7461 4.4453 10.793v100.14c-0.003906 4.0234-1.6055 7.8828-4.4492 10.727-2.8477 2.8438-6.707 4.4414-10.73 4.4414h-100.2c-4.0273 0-7.8867-1.5977-10.73-4.4414-2.8477-2.8438-4.4492-6.7031-4.4531-10.727v-100.14c0-4.0273 1.6016-7.8867 4.4492-10.734 2.8438-2.8477 6.707-4.4453 10.734-4.4453zm158.58-568.21h-113.04c-4.0273-0.003906-7.8867-1.6016-10.73-4.4492-2.8477-2.8438-4.4492-6.7031-4.4492-10.73v-112.98c0-4.0234 1.5977-7.8867 4.4453-10.734 2.8477-2.8438 6.707-4.4453 10.734-4.4453h113.04c4.0156 0.015626 7.8594 1.6211 10.695 4.4688 2.832 2.8438 4.4258 6.6953 4.4258 10.711v112.98c0 4.0156-1.5938 7.8672-4.4258 10.715-2.8359 2.8438-6.6797 4.4492-10.695 4.4648zm-220.3-28.801h-84.203c-4.0273 0-7.8867-1.5977-10.734-4.4453-2.8477-2.8477-4.4453-6.707-4.4453-10.734v-84.18c0-4.0234 1.5977-7.8867 4.4453-10.734 2.8477-2.8438 6.707-4.4453 10.734-4.4453h84.145c4.0195 0.007813 7.875 1.6094 10.719 4.457 2.8398 2.8438 4.4375 6.7031 4.4375 10.723v84.145c0 4.0273-1.6016 7.8867-4.4453 10.734-2.8477 2.8477-6.7109 4.4453-10.734 4.4453zm-177.91 15.949h-69.602c-4.0234 0.003906-7.8867-1.5938-10.734-4.4375-2.8438-2.8438-4.4453-6.707-4.4453-10.73v-69.602c0-4.0234 1.5977-7.8867 4.4453-10.73 2.8477-2.8477 6.707-4.4492 10.734-4.4492h69.602c4.0234 0.003906 7.8828 1.6055 10.73 4.4531 2.8438 2.8438 4.4453 6.7031 4.4492 10.727v69.602c-0.003906 4.0234-1.6055 7.8828-4.4492 10.727-2.8477 2.8438-6.707 4.4414-10.73 4.4414zm339.77 206.51h-100.14c-4.0273 0-7.8906-1.5977-10.734-4.4453-2.8477-2.8477-4.4492-6.707-4.4492-10.734v-100.14c0.003907-4.0234 1.6055-7.8828 4.4531-10.727 2.8438-2.8438 6.7031-4.4414 10.73-4.4414h100.14c4.0352-0.015625 7.9102 1.5742 10.77 4.4219 2.8594 2.8438 4.4688 6.7109 4.4727 10.746v100.14c0 4.0273-1.6016 7.8867-4.4453 10.734-2.8477 2.8477-6.7109 4.4453-10.734 4.4453zm-562.69 405.13c-56.449-3.8008-109.34-28.906-147.98-70.234-38.637-41.324-60.133-95.789-60.133-152.37 0-56.574 21.496-111.04 60.133-152.37 38.641-41.324 91.535-66.43 147.98-70.23v-266.57h-26.602l-31.609 31.609v70.883c0 3.4375-1.1719 6.7695-3.3164 9.4531-2.1445 2.6797-5.1406 4.5547-8.4922 5.3086-41.258 9.3906-80.656 25.617-116.57 48-2.9258 2.1523-6.5273 3.1914-10.152 2.918-3.6211-0.26953-7.0273-1.8281-9.6016-4.3945l-50.074-50.074h-44.762l-59.074 59.074v44.711l50.102 50.102h-0.003906c2.4219 2.4297 3.9492 5.6055 4.332 9.0156s-0.40625 6.8477-2.2305 9.75c-22.523 35.828-38.883 75.172-48.41 116.4-0.53125 3.6016-2.3398 6.8945-5.0938 9.2734-2.7578 2.3828-6.2734 3.6953-9.918 3.6992h-70.906l-31.609 31.656v83.555l31.609 31.621h70.883c3.4375 0 6.7734 1.1719 9.4609 3.3164 2.6836 2.1484 4.5586 5.1484 5.3125 8.5039 9.3789 41.262 25.602 80.664 48 116.57 2.1562 2.9219 3.1914 6.5234 2.9219 10.145-0.26953 3.6211-1.832 7.0273-4.3984 9.5938l-50.074 50.074v44.723l59.137 59.137h44.594l50.16-50.16-0.003906 0.003906c2.4258-2.4258 5.6055-3.957 9.0156-4.3359 3.4102-0.38281 6.8477 0.40625 9.75 2.2383 35.824 22.523 75.168 38.887 116.4 48.406 3.6055 0.52734 6.8984 2.3359 9.2812 5.0898 2.3828 2.7578 3.6914 6.2773 3.6914 9.9219v70.871l31.609 31.621h26.605z" fill-rule="evenodd"/>
</svg>
