<?xml version="1.0" encoding="UTF-8"?>
<svg width="1200pt" height="1200pt" version="1.1" viewBox="0 0 1200 1200" xmlns="http://www.w3.org/2000/svg">
 <path d="m897.24 607.2c0-166.92-133.2-422.64-297.24-422.64s-297.24 255.72-297.24 422.64c0.12109 76.27 29.547 149.57 82.188 204.76s124.47 88.039 200.65 91.762v111.72h28.801l-0.003906-111.72c76.18-3.7227 148.01-36.574 200.65-91.762s82.066-128.49 82.188-204.76zm-282.84 267.72v-267.72h-28.797v114.84c-27.559-2.3945-53.223-15.02-71.941-35.383-18.723-20.363-29.145-46.996-29.219-74.656h-28.441c0.09375 35.227 13.5 69.117 37.539 94.867 24.039 25.75 56.926 41.457 92.062 43.973v124.08c-68.535-3.7109-133.05-33.523-180.29-83.312-47.246-49.785-73.633-115.77-73.75-184.41 0-151.92 122.88-393.84 268.44-393.84 145.56 0 268.44 241.92 268.44 393.84-0.11719 68.637-26.504 134.62-73.75 184.41-47.242 49.789-111.76 79.602-180.29 83.312z"/>
</svg>
