<?xml version="1.0" encoding="UTF-8"?>
<svg width="1200pt" height="1200pt" version="1.1" viewBox="0 0 1200 1200" xmlns="http://www.w3.org/2000/svg">
 <g>
  <path d="m768.1 676.27 3.6367-0.71875 0.003907-0.003907c6.2031-0.86328 11.863-4.0117 15.867-8.832 3.8008-4.8555 5.5273-11.016 4.8086-17.141-0.72266-6.125-3.832-11.715-8.6602-15.555-4.8242-3.8398-10.969-5.6172-17.098-4.9492-8.7852 1.4922-17.656 2.4375-26.559 2.832-9.1406 0.66406-18.199 1.832-27.277 3.0625l-5.3633 0.71875 0.003906 0.003906c25.691-37.957 53.387-74.512 82.973-109.52 13.902-14.754 26.457-30.719 37.52-47.703l-3.1641 5.3398 1.3828-2.0898h-0.003906c3.4336-4.5586 5.125-10.191 4.7773-15.887-0.35156-5.6953-2.7188-11.078-6.6797-15.184-3.4844-3.7422-8.1328-6.1953-13.191-6.9609-5.3438-0.5625-10.73 0.55469-15.414 3.1914l1.0586-0.59375c-2.6875 1.3359-5.3438 2.832-7.8828 4.4297l2.3633-1.3281-0.003906 0.003906c-11.59 7.2227-22.395 15.641-32.234 25.113-11.434 10.363-22.438 21.199-33.293 32.16l-9.4648 9.8789-0.16797-4.9688c-0.23828-8.8789-0.41406-17.879-1.3164-26.711l-1.5117-13.988c-0.57031-4.2422-1.3867-8.4492-2.4414-12.602l-0.62891-4.2188c-0.89453-7.5195-5.3789-14.141-12.031-17.758-6.6523-3.6211-14.648-3.7891-21.445-0.45312-6.8008 3.3359-11.559 9.7617-12.77 17.238-0.93359 6.8359-2.543 13.465-3.1992 20.367-0.62891 6.6367-1.1992 13.223-1.4414 19.891-0.48047 13.793-0.71875 27.582-0.91406 41.379v-0.003906c-0.76172 7.0586-0.75781 14.176 0.015625 21.23 1.2344 7.4609 2.8906 14.844 4.9688 22.113l0.9375 1.6797c-15.812 21.395-30.551 43.613-44.273 66.445-0.56641-48.102-1.3359-96.203-2.7305-144.28-0.69141-23.879-1.8398-47.73-2.9102-71.594-0.53906-11.934-0.96094-23.836-2.1406-35.723-0.58984-5.9297-1.043-11.871-1.5664-17.809-0.55078-6.2656-1.7148-12.238-1.7383-18.539v0.003906c-0.6875-6.1914-3.8359-11.844-8.7344-15.691-4.8281-3.7773-10.957-5.4844-17.043-4.7422-6.0859 0.74219-11.625 3.875-15.402 8.7031-3.4219 4.8906-5.1016 10.793-4.7734 16.754v1.2227c-0.57422 4.9922-1.3594 9.9102-1.7656 14.949l-1.3555 16.258-0.55859 7.4961-5.4727-4.6641c-9.0039-8.2344-18.555-15.852-28.59-22.797l1.6602 0.98047c-5.5703-4.0742-10.797-8.5977-15.637-13.516-4.7188-3.6797-10.688-5.3828-16.637-4.7422-6.1367 0.72656-11.734 3.8438-15.586 8.6758-3.668 4.7227-5.3672 10.688-4.7422 16.637 1.0156 6.0391 4.0781 11.543 8.6758 15.586l4.3398 4.2812c4.2031 4.6914 7.6055 9.9805 11.824 14.672 4.4297 4.9258 9.0977 9.6211 13.371 14.688 4.2734 5.0625 9.1211 9.625 13.336 14.711v-0.003907c6.9062 10.637 17.73 18.113 30.117 20.805l0.73828 0.066406c-0.25 7.1914-0.45703 14.383-0.62109 21.574-0.44922 20.941-0.79297 41.883-1.0312 62.824-5.707-5.6055-11.422-11.207-17.25-16.68-9.0469-8.4961-18.262-16.867-27.539-25.109v0.003906c-9.9922-9.5547-20.809-18.215-32.316-25.879l3.6758 2.1797c-6.5781-4.4375-12.859-9.3047-18.797-14.566-5.9062-5.3086-12.695-9.4766-18.574-14.855-4.8242-3.7734-10.93-5.5117-17.016-4.8438-5.1953 0.70313-10.027 3.0664-13.77 6.7422-4.0977 3.9414-6.6094 9.25-7.0547 14.918-0.44141 5.668 1.207 11.305 4.6406 15.84 4.3867 4.8008 8.0039 10.004 11.887 15.184 1.7773 2.3711 3.9922 4.4336 5.9258 6.6758 2.2539 2.6172 4.2266 5.4922 6.2891 8.2617 7.7031 10.34 15.359 20.598 24.047 30.164l5.6055 6.1641c-4.1406 2.7031-8.2305 5.5195-12.238 8.375-12.223 7.8555-23.391 17.242-33.23 27.93-2.7266 3.543-4.3477 7.8125-4.6562 12.273-0.30859 4.457 0.71094 8.9102 2.9258 12.793 1.8906 3.4766 4.7031 6.3633 8.1289 8.3438 4.1289 2.7031 9.0859 3.8438 13.984 3.2188 5.3555-1.0156 10.617-2.4688 15.734-4.3555 3.1211-1.3242 6.2227-2.7969 9.2422-4.3203 8.3242-4.2109 16.535-8.6992 24.668-13.262l-6.5508 3.6797c6.9297-3.8789 13.953-7.6289 20.75-11.727l0.76172-0.44922 7.2422 7.5156c6.7852 6.9844 13.418 14.18 20.688 20.672h-0.003906c5.7188 4.7656 11.746 9.1484 18.039 13.125l3.8398 2.3086c-0.40625 47.152-1.2344 356.26-0.57422 380.2v0.003906c1.0156 9.2812 5.6992 17.777 13.004 23.59 7.3086 5.8164 16.637 8.4727 25.91 7.3828 9.2734-1.0938 17.73-5.8438 23.484-13.199l4.5586-7.7031h0.003907c2.4062-5.5664 3.3242-11.66 2.668-17.688 0.86328-42.879-0.37891-85.879-0.71875-128.77-0.24609-30.98-0.55469-61.965-0.92578-92.945l0.14453-0.32422 7.0859-16.199c5-11.133 10.176-22.191 15.523-33.172 7.1211-14.574 14.637-28.941 22.539-43.109h0.003906c4.3008 0.60547 8.6797 0.40234 12.906-0.59766 6.2383-1.3398 12.48-3.0156 18.656-4.5977l24.273-6.3281c15.363-4.0039 30.402-8.6484 45.465-13.57z"/>
  <path d="m984.51 376.8c-15.363-30.316-34.684-58.457-57.453-83.688-22.156-24.445-47.043-46.273-74.176-65.047-55.09-37.324-117.25-62.957-182.64-75.312-31.98-5.793-64.473-8.2852-96.961-7.4375-27.988 0.60156-55.848 3.9531-83.18 10.008-31.945 6.4961-63.098 16.422-92.918 29.598-29.441 13.254-57.207 29.949-82.715 49.738-24.812 19.402-46.984 41.961-65.949 67.105-10.34 14.254-19.785 29.133-28.285 44.555-6.5273 11.52-12.324 23.438-17.359 35.684-6.4609 16.375-11.938 33.125-16.398 50.16-3.4727 12.52-6.1602 25.242-8.043 38.098-2.2617 17.422-3.4062 34.965-3.4258 52.531-0.25 13.043 0.39844 26.09 1.9336 39.047 2.3711 17.469 5.9727 34.75 10.781 51.715 3.3555 12.594 7.7344 24.895 13.086 36.781 7.3281 16.285 16.012 31.93 25.961 46.758 10.348 14.586 22.059 28.156 34.973 40.527 9.3359 9.5273 19.566 18.133 30.551 25.703 14.555 10.223 30.145 18.883 46.512 25.844 31.754 13.051 66.105 18.555 100.35 16.078 16.504-1.1953 32.715-4.9922 48.035-11.25 11.625-4.7305 20.957-13.793 26.023-25.277l3.3594-11.648v0.003907c1.2188-6.1562 0.77344-12.523-1.2891-18.449-0.47266-4.25-2.0781-8.293-4.6484-11.711-2.5703-5.7266-6.6172-10.66-11.727-14.301-9.7578-7.5781-22.07-11.09-34.359-9.793-5.2734 0.81641-10.586 1.3516-15.918 1.5977l4.5977 0.097656c-5.5039 0.0625-10.977 0.40234-16.48 0.5625-8.1992-0.69922-16.328-2.0352-24.32-3.9961-11.25-3.7656-22.141-8.5312-32.539-14.246-13.566-8.4648-26.223-18.309-37.762-29.371-10.109-10.984-19.125-22.922-26.922-35.652-7.75-15.137-13.965-31.016-18.555-47.391-4.043-18.82-6.125-38.012-6.2109-57.262 1.0547-21.348 4.3203-42.527 9.7344-63.203 6.5781-20.914 15.281-41.102 25.98-60.238 10.965-17.516 23.699-33.859 38.004-48.773 17.434-16.219 36.566-30.508 57.066-42.625 24.574-12.969 50.512-23.164 77.34-30.398 30.242-6.6953 61.156-9.8906 92.129-9.5312 31.199 1.2109 62.172 5.8789 92.344 13.918 29.098 8.918 57.145 20.957 83.652 35.91 23.23 14.34 44.844 31.148 64.469 50.125 16.484 17.5 31.031 36.734 43.387 57.359 10.875 20.621 19.512 42.348 25.754 64.812 4.6641 20.965 7.1094 42.363 7.2969 63.84-1.0781 19.781-4.1602 39.402-9.2031 58.559-5.3945 16.867-12.441 33.16-21.031 48.645-4.8633 7.7422-9.9766 15.34-14.785 23.113-7.1602 8.5977-14.25 17.156-21.969 25.23l-5.4609 5.1367 0.93359-0.91797c-5.5469 4.3711-10.633 9.3594-16.48 13.352-4.1406 2.8164-8.3555 5.5078-12.652 8.0703-7.7227 4.0977-15.625 7.9219-23.68 11.258v-0.003906c-7.4883 3.0195-15.129 5.6406-22.895 7.8633-5.6836 0.73828-11.109 2.8125-15.84 6.0508-5.832 2.6172-10.863 6.7422-14.57 11.949-7.8906 10.086-11.457 22.895-9.9023 35.609 1.5508 12.711 8.0898 24.285 18.18 32.176 9.8828 7.8359 22.473 11.422 35.004 9.9766 19.574-3.3203 38.84-8.2539 57.598-14.75 7.2969-2.7578 14.41-5.9844 21.289-9.6602 9.4414-4.9883 18.961-10.164 27.988-15.973v-0.003906c17.07-9.707 32.855-21.523 46.98-35.172l-0.39844 0.39062c7.082-6.3672 13.828-13.102 20.207-20.176 2.9961-3.0156 5.8945-6.1641 8.7695-9.2266 2.2461-2.3984 4.4727-4.7891 6.4961-7.3672 4.1406-5.2812 7.9805-10.82 11.629-16.457 9.7656-14.66 18.379-30.059 25.766-46.051 13.309-30.02 21.465-62.07 24.125-94.801 3.0742-33.793 1.1992-67.852-5.5664-101.11-6.7031-33.809-18.016-66.535-33.617-97.27zm-407.57-114.73 10.199 0.20703 0.96094 0.03125z"/>
 </g>
</svg>
