<?xml version="1.0" encoding="UTF-8"?>
<svg width="1200pt" height="1200pt" version="1.1" viewBox="0 0 1200 1200" xmlns="http://www.w3.org/2000/svg">
 <path d="m1002.9 840 5 5c23.07 23.266 56.449 33.098 88.449 26.051 31.477-6.6094 57.422-28.785 68.848-58.852 27.605-72.484 40.805-149.66 38.852-227.2-5.6289-152.3-68.27-296.93-175.51-405.21-107.24-108.29-251.25-172.33-403.49-179.43-107.62-3.7422-214.26 21.547-308.73 73.211-94.477 51.668-173.31 127.81-228.22 220.43-54.918 92.625-83.895 198.32-83.895 306 0.1875 159.07 63.461 311.58 175.94 424.06 112.48 112.48 264.99 175.76 424.06 175.94 16.898 0 33.5-1.1016 50-2.5 12.52-1.0547 24.184-6.7852 32.672-16.051 8.4883-9.2656 13.176-21.387 13.129-33.949l-1.6016-179.4h0.003906c-0.40625-35.453 9.7656-70.219 29.211-99.863s47.285-52.82 79.965-66.57c32.68-13.746 68.719-17.445 103.51-10.617 34.789 6.8281 66.754 23.871 91.816 48.949zm-147.1-437.5c19.223-5.1016 39.688-2.3555 56.891 7.6289 17.199 9.9844 29.73 26.395 34.832 45.621 5.1055 19.223 2.3633 39.688-7.6211 56.891-9.9844 17.199-26.391 29.734-45.617 34.84-19.223 5.1016-39.688 2.3633-56.891-7.6172-17.203-9.9844-29.738-26.391-34.844-45.613-5.1094-19.227-2.3672-39.699 7.6172-56.906 9.9883-17.207 26.402-29.742 45.633-34.844zm-461.5 445c-19.223 5.1016-39.688 2.3555-56.891-7.6289-17.199-9.9844-29.73-26.395-34.832-45.621-5.1055-19.223-2.3633-39.688 7.6211-56.891 9.9844-17.199 26.391-29.734 45.617-34.84 19.223-5.1016 39.688-2.3633 56.891 7.6172 17.203 9.9844 29.738 26.391 34.844 45.613 5.1094 19.227 2.3672 39.699-7.6172 56.906-9.9883 17.207-26.402 29.742-45.633 34.844zm0-300c-19.223 5.1016-39.688 2.3555-56.891-7.6289-17.199-9.9844-29.73-26.395-34.832-45.621-5.1055-19.223-2.3633-39.688 7.6211-56.891 9.9844-17.199 26.391-29.734 45.617-34.84 19.223-5.1016 39.688-2.3633 56.891 7.6172 17.203 9.9844 29.738 26.391 34.844 45.613 5.1094 19.227 2.3672 39.699-7.6172 56.906-9.9883 17.207-26.402 29.742-45.633 34.844zm250-150c-19.223 5.1016-39.688 2.3555-56.891-7.6289-17.199-9.9844-29.73-26.395-34.832-45.621-5.1055-19.223-2.3633-39.688 7.6211-56.891 9.9844-17.199 26.391-29.734 45.617-34.84 19.223-5.1016 39.688-2.3633 56.891 7.6172 17.203 9.9844 29.738 26.391 34.844 45.613 5.1094 19.227 2.3672 39.699-7.6172 56.906-9.9883 17.207-26.402 29.742-45.633 34.844z"/>
</svg>
