<?xml version="1.0" encoding="UTF-8"?>
<svg width="1200pt" height="1200pt" version="1.1" viewBox="0 0 1200 1200" xmlns="http://www.w3.org/2000/svg">
 <g fill-rule="evenodd">
  <path d="m932.52 522.77v273.71c0 76.836-59.172 136.03-136.03 136.03h-392.97c-76.836 0-136.03-59.172-136.03-136.03v-392.97c0-76.836 59.168-136.03 136.03-136.03h392.97c29.965 0 57.246 9 79.383 24.539-2.7422 3.1992-5.7773 6.8242-9.0352 10.824-1.8086 2.2188-3.6172 4.4688-5.4219 6.7461-18.191-12.34-40.453-19.438-64.926-19.438h-392.97c-64.336 0-113.36 49.039-113.36 113.36v392.97c0 64.336 49.039 113.36 113.36 113.36h392.97c64.336 0 113.36-49.039 113.36-113.36v-265.99c7.9688-1.6172 15.57-4.2383 22.672-7.7227z"/>
  <path d="m690.86 738.19c-21.762-24.457-54.023-39.945-90.891-39.945-36.871 0-69.133 15.488-90.895 39.945-19.582 22.012-27.18 48.129-15.148 61.086 6.9844 7.5156 15.918 8.25 26.746 4.1094 3.7617-1.4375 7.7227-3.3945 13.277-6.4336 0.26562-0.14453 11.098-6.1914 14.48-7.9961 19-10.133 34.27-15.141 51.535-15.141s32.535 5.0078 51.535 15.141c3.3828 1.8047 14.219 7.8516 14.484 7.9961 5.5508 3.0391 9.5117 4.9961 13.277 6.4336 10.828 4.1406 19.758 3.4062 26.742-4.1094 12.035-12.957 4.4375-39.074-15.145-61.086z"/>
  <path d="m822.57 541.58c-17.816 16.203-43.375 25.711-70.922 25.711s-53.109-9.5078-70.926-25.711c-6.3906-5.8125-15.961 1.918-11.617 9.3867 16.582 28.527 47.938 46.551 82.543 46.551 34.602 0 65.961-18.023 82.539-46.551 4.3438-7.4688-5.2227-15.199-11.617-9.3867z"/>
  <path d="m520.29 541.58c-17.816 16.203-43.375 25.711-70.922 25.711-27.551 0-53.109-9.5078-70.926-25.711-6.3906-5.8125-15.961 1.918-11.617 9.3867 16.582 28.527 47.938 46.551 82.543 46.551 34.602 0 65.957-18.023 82.539-46.551 4.3438-7.4688-5.2266-15.199-11.617-9.3867z"/>
  <path d="m890.95 517.27c43.824 0 79.348-35.523 79.348-79.348 0-51.383-79.348-140.21-79.348-140.21s-79.352 88.824-79.352 140.21c0 43.824 35.527 79.348 79.352 79.348z"/>
 </g>
</svg>
