<?xml version="1.0" encoding="UTF-8"?>
<svg width="1200pt" height="1200pt" version="1.1" viewBox="0 0 1200 1200" xmlns="http://www.w3.org/2000/svg">
 <g>
  <path d="m1047.7 1090v-153.98c-0.11719-0.9375-0.23438-1.9922-0.35156-2.9297-3.6328-24.609-9.375-48.75-17.227-72.305-2.9297-8.7891-6.2109-17.578-9.7266-26.133-2.4609-5.7422-5.1562-11.367-7.8516-16.992-7.0312-14.414-15-28.477-23.672-42.07-5.625-8.9062-11.602-17.578-17.93-25.898 0.46875 0.58594 0.70312 0.9375 0.82031 1.0547-0.23438-0.35156-0.9375-1.2891-1.5234-2.1094-0.11719-0.23438-0.35156-0.35156-0.46875-0.58594 0-0.11719-0.11719-0.23437-0.23437-0.23437-0.11719-0.11719-0.23438-0.35156-0.35156-0.46875-1.2891-1.5234-2.4609-3.1641-3.75-4.6875-3.2812-3.9844-6.5625-7.9688-9.9609-11.719-13.945-15.82-29.062-30.703-45.117-44.297-2.3438-1.9922-4.6875-3.9844-7.1484-5.8594-0.46875-0.35156-0.9375-0.82031-1.4062-1.1719-1.4062-1.2891-3.0469-2.8125-4.5703-3.5156 0.23438 0.11719 2.4609 1.875 3.75 2.8125-0.11719 0-0.23438-0.11719-0.35156-0.23438-1.0547-0.82031-2.1094-1.5234-3.0469-2.3438-1.875-1.4062-3.75-2.8125-5.625-4.1016-8.7891-6.3281-17.812-12.422-27.07-18.047-16.875-10.312-34.336-19.453-52.5-27.305-31.055-12.656-63.516-21.68-96.68-26.602-0.11719 0-0.11719-0.11719-0.23437-0.11719-18.867-2.3438-37.734-3.2812-56.719-3.2812h-86.953c-30 0-59.883-0.23438-89.766 3.6328-32.344 5.0391-63.984 13.945-94.336 26.367-20.508 8.9062-40.312 19.453-59.062 31.523-8.7891 5.625-17.344 11.602-25.664 17.812 0.46875-0.35156 0.70312-0.58594 0.82031-0.70312-0.35156 0.23438-1.2891 0.9375-2.1094 1.5234-0.23438 0.23437-0.46875 0.35156-0.70312 0.58594l-0.11719 0.11719c-0.23437 0.23438-0.46875 0.35156-0.82031 0.58594 0.11719-0.11719 0.23438-0.11719 0.35156-0.23438-1.5234 1.2891-3.1641 2.4609-4.6875 3.75-3.9844 3.2812-7.9688 6.5625-11.836 9.9609-15.82 13.945-30.703 29.062-44.297 45.117-1.9922 2.3438-3.9844 4.6875-5.8594 7.1484-0.35156 0.46875-0.82031 0.9375-1.1719 1.4062-1.2891 1.4062-2.8125 3.0469-3.5156 4.5703 0.11719-0.11719 1.2891-1.6406 2.2266-2.9297-0.58594 0.82031-1.2891 1.7578-1.875 2.5781-1.4062 1.875-2.8125 3.75-4.1016 5.625-6.3281 8.7891-12.422 17.812-18.047 27.07-7.0312 11.484-13.594 23.438-19.57 35.508-2.5781 5.3906-5.1562 10.781-7.5 16.172-3.6328 8.9062-7.0312 18.047-10.078 27.188-7.2656 22.031-12.773 44.531-16.406 67.5-0.46875 3.2812-0.82031 6.5625-1.1719 9.8438v146.6c0 16.406 0.46875 31.875 8.2031 47.227 12.07 24.023 37.852 39.141 64.453 39.492 1.5234 0 2.9297 0.23438 4.3359 0.23438h738.05c2.3438 0 4.8047-0.23438 7.1484-0.23438 18.75-0.23438 36.328-7.1484 50.156-19.805 14.766-13.594 22.734-33.398 22.969-53.32-0.11719-3.1641-0.11719-5.9766-0.11719-8.7891zm-305.86-150c0 0.35156 0 0.82031-0.11719 1.1719 0 0.35156-0.11719 0.82031-0.11719 1.1719v0.35156c0 0.35156-0.11719 0.70312-0.23438 1.0547 0 0.23437-0.11719 0.46875-0.11719 0.58594v0.23438c-1.7578 7.6172-6.9141 14.062-13.828 17.344-0.23437 0.11719-0.58594 0.23438-0.82031 0.35156-1.6406 0.70313-3.5156 1.2891-5.2734 1.6406-0.46875 0.11719-0.82031 0.11719-1.2891 0.23437-0.46875 0.11719-0.9375 0.11719-1.4062 0.11719h-0.9375-1.4062-232.27-1.4062-0.9375-0.11719c-0.46875 0-0.82031-0.11719-1.2891-0.11719-0.46875-0.11719-0.82031-0.11719-1.2891-0.23437-1.875-0.35156-3.6328-0.9375-5.2734-1.6406-0.23438-0.11719-0.58594-0.23437-0.82031-0.35156-6.9141-3.3984-12.07-9.7266-13.828-17.344v-0.23438c-0.11719-0.58594-0.23438-1.0547-0.35156-1.6406l-0.11719-0.11719c0-0.23437-0.23438-0.46875-0.23438-0.58594v-0.82031-1.1719-127.85c0-0.35156 0-0.82031 0.11719-1.1719 0-0.35156 0.11719-0.82031 0.11719-1.1719v-0.35156c0-0.35156 0.11719-0.70312 0.23437-1.0547 0-0.23438 0.11719-0.46875 0.11719-0.70312v-0.23438c1.7578-7.6172 6.9141-14.062 13.828-17.344 0.23438-0.11719 0.58594-0.23438 0.82031-0.35156 1.6406-0.70312 3.5156-1.2891 5.2734-1.6406 0.46875-0.11719 0.82031-0.11719 1.2891-0.23438 0.46875-0.11719 0.82031-0.11719 1.2891-0.11719h0.11719c0.35156 0 0.58594-0.11719 0.9375-0.11719 0.46875 0 0.9375-0.11719 1.4062-0.11719h232.03c0.46875 0 0.9375 0.11719 1.4062 0.11719 0.35156 0 0.70312 0.11719 0.9375 0.11719 0.46875 0 0.9375 0.11719 1.4062 0.23438 0.46875 0 0.82031 0.11719 1.2891 0.23438 1.875 0.35156 3.6328 0.9375 5.2734 1.6406 0.23437 0.11719 0.58594 0.23438 0.82031 0.35156 6.9141 3.3984 12.07 9.7266 13.828 17.344v0.23438c0.11719 0.58594 0.23438 1.0547 0.35156 1.6406l0.11719 0.11719c0 0.23438 0.23438 0.46875 0.23438 0.58594v0.82031 1.1719 127.85z"/>
  <path d="m916.99 284.65c-33.867-21.68-72.305-35.273-111.91-40.781v-7.1484c0-31.523-6.4453-61.055-19.102-89.883-14.883-33.633-40.195-61.641-69.961-82.852-61.641-44.062-145.9-47.109-212.34-12.188-66.328 34.922-108.4 106.41-108.75 180.94v11.25c-76.875 10.898-146.72 53.555-192.07 117.77-27.422 38.789-43.711 84.141-48.867 131.25-1.5234 14.18-1.5234 28.242-1.5234 42.539v202.15c5.625-8.7891 11.484-17.344 17.578-25.664 5.625-7.6172 11.484-15.117 17.578-22.383 14.414-17.227 30.234-33.398 47.227-48.398 54.844-48.047 120.35-83.555 191.25-101.25 36.445-9.1406 74.297-13.828 111.91-13.828h45.469c48.516 0 97.031-1.5234 145.31 5.0391 70.195 9.7266 138.63 37.148 196.29 78.281 32.344 23.086 61.992 50.039 87.656 80.273 6.0938 7.1484 11.953 14.531 17.578 22.031 6.2109 8.2031 12.07 16.641 17.578 25.195v-215.39c-0.46875-95.508-50.508-185.51-130.9-236.95zm-357.07-43.242c-31.523 0-63.164-0.11719-94.688-0.23438v-2.4609c0-8.0859 0.23438-16.172 1.0547-24.141 1.9922-11.602 5.0391-22.852 9.2578-33.867 3.8672-8.4375 8.3203-16.523 13.359-24.141 1.1719-1.875 2.4609-3.6328 3.75-5.3906-0.35156 0.35156-0.70312 0.82031-1.0547 1.2891 0.46875-0.58594 1.0547-1.1719 1.5234-1.7578 0.11719-0.11719 0.23438-0.23438 0.23438-0.35156 0.82031-1.0547 2.1094-2.4609 2.4609-2.8125v-0.11719c2.9297-3.3984 5.8594-6.6797 9.0234-9.7266 3.6328-3.6328 7.3828-7.0312 11.367-10.43 0.11719-0.11719 0.46875-0.35156 0.82031-0.70312 2.1094-1.5234 4.1016-2.9297 6.2109-4.4531 7.8516-5.2734 16.172-9.9609 24.844-13.828 11.016-4.2188 22.383-7.3828 33.984-9.2578 11.953-1.1719 23.906-1.1719 35.742 0 11.719 1.9922 23.086 5.0391 34.102 9.2578 8.4375 3.8672 16.523 8.3203 24.141 13.359 1.875 1.1719 3.6328 2.4609 5.3906 3.75-0.35156-0.35156-0.82031-0.70312-1.2891-1.0547 0.58594 0.46875 1.1719 1.0547 1.7578 1.5234 0.11719 0.11719 0.23438 0.23438 0.35156 0.23438 1.0547 0.82031 2.5781 2.1094 2.9297 2.4609 3.3984 2.9297 6.6797 5.8594 9.7266 9.0234 3.6328 3.6328 7.0312 7.3828 10.312 11.367 0.11719 0.11719 0.35156 0.46875 0.70312 0.82031 1.5234 2.1094 2.9297 4.1016 4.4531 6.2109 5.2734 7.8516 9.9609 16.172 13.828 24.844 4.2188 11.016 7.3828 22.266 9.2578 33.867 0.9375 8.9062 1.0547 17.344 1.0547 26.719z"/>
 </g>
</svg>
