<?xml version="1.0" encoding="UTF-8"?>
<svg width="1200pt" height="1200pt" version="1.1" viewBox="0 0 1200 1200" xmlns="http://www.w3.org/2000/svg">
 <g fill="#010101">
  <path d="m1072 417.05-132 223.99 75.406 0.68359c-9.4062 95.629-51.324 184.49-120.09 253.23-78.758 78.77-183.56 122.16-294.97 122.16-111.47 0-216.2-43.379-295.03-122.16-20.293-20.34-53.352-20.34-73.703 0-20.41 20.352-20.41 53.41 0 73.754 98.508 98.508 229.4 152.77 368.73 152.77 139.26 0 270.23-54.266 368.73-152.77 88.246-88.246 141.05-202.87 151.01-326.07l79.926 0.71875z"/>
  <path d="m184.55 565.64c7.9453-98.484 50.039-189.9 120.74-260.63 78.828-78.805 183.56-122.2 295.03-122.2 111.41 0 216.21 43.391 294.97 122.2 20.352 20.352 53.352 20.352 73.754 0 20.352-20.375 20.352-53.375 0-73.754-98.496-98.48-229.45-152.74-368.71-152.74-139.33 0-270.23 54.262-368.73 152.75-90.684 90.719-143.73 208.6-151.67 335.33l-79.934 0.69531 132 223.97 127.97-226.29z"/>
 </g>
</svg>
