<?xml version="1.0" encoding="UTF-8"?>
<svg width="1200pt" height="1200pt" version="1.1" viewBox="0 0 1200 1200" xmlns="http://www.w3.org/2000/svg">
 <g>
  <path d="m391.12 731.25 29.25 58.125c4.2344 9.2188 12.023 16.332 21.594 19.707 9.5664 3.3789 20.094 2.7344 29.18-1.7812 9.0859-4.5156 15.949-12.523 19.031-22.191 3.082-9.6641 2.1172-20.168-2.6797-29.109l-180.75-361.5c-2.9336-5.8125-7.9219-10.332-13.996-12.672-6.0781-2.3438-12.805-2.3438-18.883 0-6.0742 2.3398-11.062 6.8594-13.996 12.672l-180.75 361.5c-4.4492 8.8555-5.2109 19.113-2.1172 28.527 3.0898 9.418 9.7852 17.227 18.617 21.723 8.9023 4.4219 19.195 5.125 28.617 1.9609 9.4219-3.1641 17.203-9.9375 21.633-18.836l29.25-58.125zm-115.5-201.38c1.5312-2.6992 4.3984-4.3672 7.5-4.3672s5.9688 1.668 7.5 4.3672l63 126.38h-141z"/>
  <path d="m1108.5 475.5c10.609-10.48 16.59-24.77 16.609-39.684 0.019531-14.914-5.9258-29.219-16.512-39.727-10.586-10.504-24.934-16.344-39.848-16.215h-254.62c-13.398 0-25.777 7.1484-32.477 18.75-6.6992 11.602-6.6992 25.898 0 37.5 6.6992 11.602 19.078 18.75 32.477 18.75h191.62c2.8477 0.16797 5.3516 1.9336 6.4648 4.5586 1.1133 2.625 0.64453 5.6523-1.2148 7.8164l-229.12 228.75c-10.535 10.547-16.453 24.848-16.449 39.758 0 14.906 5.9219 29.207 16.457 39.75 10.539 10.547 24.832 16.48 39.742 16.492h254.62c13.398 0 25.777-7.1484 32.477-18.75 6.6992-11.602 6.6992-25.898 0-37.5-6.6992-11.602-19.078-18.75-32.477-18.75h-176.25c-5.7422 0.10938-10.957-3.3281-13.121-8.6484-2.1602-5.3242-0.82031-11.426 3.3711-15.352z"/>
  <path d="m568.5 581.25c-13.398 0-25.777 7.1484-32.477 18.75-6.6992 11.602-6.6992 25.898 0 37.5 6.6992 11.602 19.078 18.75 32.477 18.75h120c13.398 0 25.777-7.1484 32.477-18.75 6.6992-11.602 6.6992-25.898 0-37.5-6.6992-11.602-19.078-18.75-32.477-18.75z"/>
  <path d="m970.12 248.62c7.4961-7.4727 11.484-17.762 10.984-28.332-0.5-10.57-5.4414-20.438-13.609-27.168-97.109-83.859-219.97-132-348.2-136.43-128.23-4.4336-254.12 35.105-356.8 112.06v-37.5c0-9.9453-3.9492-19.484-10.984-26.516-7.0312-7.0352-16.57-10.984-26.516-10.984s-19.484 3.9492-26.516 10.984c-7.0352 7.0312-10.984 16.57-10.984 26.516v163.88c-0.046875 5.207 1.9922 10.215 5.6562 13.91 3.668 3.6953 8.6602 5.7695 13.867 5.7656 5.207-0.007812 10.195-2.0977 13.852-5.8008l20.625-21c84.715-88.91 198.73-144.18 321-155.62 64.266-4.7734 128.84 3.2383 189.99 23.578 61.152 20.34 117.66 52.605 166.26 94.922 7.2383 6.2422 16.586 9.4844 26.133 9.0664 9.5508-0.41797 18.578-4.4648 25.242-11.316z"/>
  <path d="m975 896.25-19.5 19.5c-84.234 85.93-196.29 139.1-316.12 150-63.801 5.1562-127.99-2.3594-188.88-22.117-60.883-19.762-117.25-51.367-165.87-93.008-7.2578-5.8203-16.418-8.7383-25.703-8.1836-9.2852 0.55469-18.035 4.5391-24.547 11.184-8.75 7.4492-13.598 18.5-13.16 29.984 0.4375 11.48 6.1172 22.129 15.41 28.891 97.273 82.23 219.57 129.01 346.89 132.69 127.32 3.6797 252.12-35.965 353.98-112.44v37.5c0 9.9453 3.9492 19.484 10.984 26.516 7.0312 7.0352 16.57 10.984 26.516 10.984s19.484-3.9492 26.516-10.984c7.0352-7.0312 10.984-16.57 10.984-26.516l-4.125-158.25c0.60938-5.4258-1.0859-10.855-4.668-14.973-3.582-4.1172-8.7266-6.543-14.184-6.6914-5.4531-0.14844-10.723 1.9961-14.523 5.9141z"/>
 </g>
</svg>
