<?xml version="1.0" encoding="UTF-8"?>
<svg width="1200pt" height="1200pt" version="1.1" viewBox="0 0 1200 1200" xmlns="http://www.w3.org/2000/svg">
 <path d="m72 648c0 42.129 11.09 83.516 32.152 120 21.066 36.484 51.363 66.781 87.848 87.848 36.484 21.062 77.871 32.152 120 32.152h240v240c0 17.148 9.1484 32.996 24 41.57 14.852 8.5742 33.148 8.5742 48 0 14.852-8.5742 24-24.422 24-41.57v-240h240c42.129 0 83.516-11.09 120-32.152 36.484-21.066 66.781-51.363 87.848-87.848 21.062-36.484 32.152-77.871 32.152-120 0.12891-38.141-8.9492-75.746-26.453-109.63-17.508-33.887-42.926-63.047-74.105-85.012 2.9961-14.934 4.5234-30.125 4.5586-45.359 0.023438-58.805-21.547-115.57-60.613-159.52-39.062-43.953-92.906-72.035-151.31-78.918-24.621-57.887-71.059-103.74-129.25-127.63-58.191-23.891-123.46-23.891-181.65 0-58.195 23.891-104.63 69.746-129.25 127.63-58.402 6.8828-112.25 34.965-151.31 78.918-39.066 43.953-60.637 100.72-60.613 159.52 0.035156 15.234 1.5625 30.426 4.5586 45.359-31.18 21.965-56.598 51.125-74.105 85.012-17.504 33.883-26.582 71.488-26.453 109.63zm177.84-129.12c10.754-5.2188 19.172-14.258 23.609-25.355 4.4375-11.098 4.5781-23.449 0.39062-34.645-17.023-43.598-11.617-92.766 14.465-131.62 26.082-38.863 69.539-62.488 116.34-63.254 1.8008 0 6.7188 0.71875 8.3984 0.71875 10.938 0.50391 21.707-2.8125 30.465-9.3828 8.7578-6.5664 14.957-15.977 17.535-26.617 10.449-41.582 38.969-76.297 77.734-94.621 38.762-18.32 83.691-18.32 122.45 0 38.766 18.324 67.285 53.039 77.734 94.621 2.7188 10.562 8.957 19.883 17.68 26.426 8.7266 6.543 19.418 9.9219 30.32 9.5742 2.8789 0 5.6406 0 5.0391-0.60156v0.003906c47.344-0.39062 91.801 22.707 118.7 61.668 26.895 38.965 32.734 88.723 15.586 132.85-4.1875 11.191-4.0508 23.547 0.39062 34.645 4.4375 11.094 12.855 20.137 23.609 25.355 39.176 19.156 67.559 55.031 77.188 97.562 9.6328 42.531-0.53125 87.137-27.633 121.3-27.105 34.16-68.23 54.199-111.84 54.496h-240v-116.88l164.88-79.922c14.945-7.7422 24.742-22.746 25.82-39.543s-6.7227-32.93-20.551-42.52c-13.832-9.5898-31.676-11.234-47.027-4.3359l-123.12 59.641v-208.44c0-17.148-9.1484-32.996-24-41.57-14.852-8.5742-33.148-8.5742-48 0-14.852 8.5742-24 24.422-24 41.57v257.4l-122.76-60c-15.391-7.5859-33.66-6.3867-47.926 3.1484-14.27 9.5352-22.363 25.957-21.242 43.078 1.125 17.125 11.297 32.348 26.691 39.934l165.24 80.762v67.68h-240c-38.191 0-74.816-15.172-101.82-42.176-27.004-27.008-42.176-63.633-42.176-101.82-0.027344-27.07 7.6562-53.59 22.148-76.457 14.492-22.867 35.199-41.133 59.691-52.664z"/>
</svg>
