<?xml version="1.0" encoding="UTF-8"?>
<svg width="1200pt" height="1200pt" version="1.1" viewBox="0 0 1200 1200" xmlns="http://www.w3.org/2000/svg">
 <path d="m600 267.26c-154.25 0-279.61 125.37-279.61 279.61 0 149.19 117.25 271.29 264.5 279.14v91.395c-0.054688 4.043 1.5117 7.9453 4.3516 10.824 2.8398 2.8828 6.7188 4.5039 10.762 4.5039 4.0469 0 7.9258-1.6211 10.766-4.5039 2.8398-2.8789 4.4062-6.7812 4.3516-10.824v-91.395c147.25-7.8555 264.5-129.95 264.5-279.14 0-154.25-125.37-279.61-279.61-279.61zm0 30.23c137.91 0 249.39 111.47 249.39 249.39 0 132.8-103.47 240.84-234.27 248.68v-245.14c0.0625-4.0898-1.5352-8.0312-4.4258-10.926-2.8945-2.8906-6.8359-4.4883-10.926-4.4258-4.0078 0.0625-7.8281 1.7148-10.617 4.5938-2.793 2.8789-4.3242 6.75-4.2617 10.758v245.14c-130.89-7.7461-234.27-115.81-234.27-248.68 0-137.91 111.47-249.39 249.39-249.39z" fill-rule="evenodd"/>
</svg>
