<?xml version="1.0" encoding="UTF-8"?>
<svg width="1200pt" height="1200pt" version="1.1" viewBox="0 0 1200 1200" xmlns="http://www.w3.org/2000/svg">
 <g>
  <path d="m600 853.12c-139.69 0-253.12-113.44-253.12-253.12s113.44-253.12 253.12-253.12c5.625 0 9.375-3.75 9.375-9.375v-206.25c0-5.625-3.75-9.375-9.375-9.375h-57.188c-4.6875 0-8.4375 3.75-9.375 7.5l-20.625 124.69c-16.875 3.75-32.812 9.375-47.812 15l-90.938-89.062c-2.8125-2.8125-8.4375-3.75-12.188-0.9375l-91.875 66.562c-3.75 2.8125-4.6875 7.5-2.8125 12.188l57.188 113.44c-11.25 13.125-20.625 26.25-29.062 40.312l-126.56-18.75c-4.6875-0.9375-8.4375 1.875-10.312 6.5625l-36.562 105.94c-1.875 4.6875 0.9375 9.375 4.6875 11.25l113.44 58.125c-0.9375 8.4375-0.9375 16.875-0.9375 24.375s0 15.938 0.9375 24.375l-113.44 58.125c-3.75 1.875-5.625 6.5625-4.6875 11.25l35.625 106.88c1.875 4.6875 5.625 7.5 10.312 6.5625l126.56-18.75c8.4375 14.062 18.75 27.188 29.062 40.312l-57.188 113.44c-1.875 3.75-0.9375 9.375 2.8125 12.188l91.875 66.562c3.75 2.8125 8.4375 1.875 12.188-0.9375l90.938-89.062c15 6.5625 30.938 11.25 47.812 15l20.625 124.69c0.9375 4.6875 4.6875 7.5 9.375 7.5h58.125c5.625 0 9.375-3.75 9.375-9.375v-205.31c0-5.625-3.75-9.375-9.375-9.375zm-9.375 206.25h-39.375l-20.625-122.81c-0.9375-3.75-3.75-6.5625-7.5-7.5-19.688-4.6875-38.438-10.312-56.25-17.812-3.75-1.875-7.5-0.9375-10.312 1.875l-90 87.188-78.75-57.188 56.25-111.56c1.875-3.75 0.9375-7.5-0.9375-10.312-13.125-15-25.312-30.938-34.688-47.812-1.875-2.8125-5.625-4.6875-9.375-4.6875l-124.69 18.75-30-91.875 111.56-57.188c3.75-1.875 5.625-5.625 4.6875-9.375-1.875-10.312-1.875-19.688-1.875-29.062s0-18.75 0.9375-29.062c0-3.75-1.875-7.5-4.6875-9.375l-111.56-57.188 30-91.875 124.69 18.75c3.75 0.9375 7.5-0.9375 9.375-4.6875 10.312-16.875 21.562-32.812 34.688-47.812 2.8125-2.8125 2.8125-6.5625 0.9375-10.312l-56.25-111.56 78.75-57.188 90 87.188c2.8125 2.8125 6.5625 3.75 10.312 1.875 17.812-7.5 36.562-14.062 56.25-17.812 3.75-0.9375 6.5625-3.75 7.5-7.5l21.562-122.81h39.375v187.5c-145.31 4.6875-262.5 124.69-262.5 271.88s117.19 267.19 262.5 271.88z"/>
  <path d="m1012.5 459.38c36.562 0 65.625-29.062 65.625-65.625s-29.062-65.625-65.625-65.625c-27.188 0-49.688 15.938-60 39.375l-72.188-19.688c0.9375-2.8125 0.9375-6.5625 0.9375-10.312 0-13.125-3.75-25.312-9.375-36.562l93.75-68.438c12.188 12.188 28.125 19.688 46.875 19.688 36.562 0 65.625-29.062 65.625-65.625s-29.062-65.625-65.625-65.625-65.625 29.062-65.625 65.625c0 11.25 2.8125 21.562 7.5 30.938l-93.75 68.438c-13.125-14.062-32.812-23.438-54.375-23.438-41.25 0-75 33.75-75 75 0 20.625 8.4375 39.375 21.562 52.5l-56.25 71.25c-27.188-18.75-60.938-30-96.562-30-92.812 0-168.75 75.938-168.75 168.75s75.938 168.75 168.75 168.75c35.625 0 69.375-11.25 96.562-30.938l56.25 71.25c-13.125 14.062-21.562 32.812-21.562 53.438 0 41.25 33.75 75 75 75 21.562 0 41.25-9.375 54.375-23.438l93.75 68.438c-4.6875 9.375-7.5 19.688-7.5 30.938 0 36.562 29.062 65.625 65.625 65.625s65.625-29.062 65.625-65.625-29.062-65.625-65.625-65.625c-18.75 0-34.688 7.5-46.875 19.688l-93.75-68.438c5.625-10.312 9.375-23.438 9.375-36.562 0-3.75 0-7.5-0.9375-10.312l72.188-19.688c10.312 23.438 32.812 39.375 60 39.375 36.562 0 65.625-29.062 65.625-65.625s-29.062-65.625-65.625-65.625-65.625 29.062-65.625 65.625c0 2.8125 0 5.625 0.9375 8.4375l-72.188 19.688c-11.25-28.125-38.438-46.875-69.375-46.875-14.062 0-27.188 3.75-38.438 10.312l-56.25-72.188c32.812-29.062 54.375-70.312 57.188-117.19h179.06c4.6875 31.875 31.875 56.25 64.688 56.25 36.562 0 65.625-29.062 65.625-65.625s-29.062-65.625-65.625-65.625c-32.812 0-60 24.375-64.688 56.25h-180c-2.8125-46.875-24.375-88.125-57.188-117.19l56.25-72.188c11.25 6.5625 24.375 10.312 38.438 10.312 30.938 0 58.125-18.75 69.375-45.938l72.188 19.688c0 2.8125-0.9375 5.625-0.9375 8.4375 0.9375 37.5 30 66.562 66.562 66.562zm0-112.5c26.25 0 46.875 20.625 46.875 46.875s-20.625 46.875-46.875 46.875-46.875-20.625-46.875-46.875 20.625-46.875 46.875-46.875zm0-206.25c26.25 0 46.875 20.625 46.875 46.875s-20.625 46.875-46.875 46.875-46.875-20.625-46.875-46.875 20.625-46.875 46.875-46.875zm0 825c26.25 0 46.875 20.625 46.875 46.875s-20.625 46.875-46.875 46.875-46.875-20.625-46.875-46.875 20.625-46.875 46.875-46.875zm0-206.25c26.25 0 46.875 20.625 46.875 46.875s-20.625 46.875-46.875 46.875-46.875-20.625-46.875-46.875 20.625-46.875 46.875-46.875zm-206.25 46.875c30.938 0 56.25 25.312 56.25 56.25s-25.312 56.25-56.25 56.25-56.25-25.312-56.25-56.25 25.312-56.25 56.25-56.25zm206.25-253.12c26.25 0 46.875 20.625 46.875 46.875s-20.625 46.875-46.875 46.875-46.875-20.625-46.875-46.875 20.625-46.875 46.875-46.875zm-262.5 46.875c0 82.5-67.5 150-150 150s-150-67.5-150-150 67.5-150 150-150 150 67.5 150 150zm56.25-206.25c-30.938 0-56.25-25.312-56.25-56.25s25.312-56.25 56.25-56.25 56.25 25.312 56.25 56.25-25.312 56.25-56.25 56.25z"/>
 </g>
</svg>
