<?xml version="1.0" encoding="UTF-8"?>
<svg width="1200pt" height="1200pt" version="1.1" viewBox="0 0 1200 1200" xmlns="http://www.w3.org/2000/svg">
 <path d="m1014 426.37c0-222.38-180.9-403.28-403.28-403.28s-403.28 180.9-403.28 403.28c0 217.25 172.77 395.15 388.31 402.85v319.46h-85.957c-8.125 0-14.969 6.8438-14.969 14.969s6.8438 14.969 14.969 14.969h201.85c8.125 0 14.969-6.8438 14.969-14.969s-6.8438-14.969-14.969-14.969h-85.957v-319.46c215.54-7.6992 388.3-185.6 388.3-402.85zm-776.62 0c0-205.7 167.64-373.34 373.34-373.34s373.34 167.64 373.34 373.34c0 201-159.52 365.22-358.38 372.91v-230.5l117.18-117.18c5.9883-5.9883 5.9883-15.395 0-21.383-5.9883-5.9883-15.395-5.9883-20.957 0l-95.793 95.793v-71.848c0-8.125-6.8438-14.969-14.969-14.969s-14.969 6.8438-14.969 14.969v199.71l-95.793-94.938c-5.9883-5.9883-15.395-5.9883-20.957 0-5.9883 5.9883-5.9883 15.395 0 20.957l116.75 117.18v102.21c-199.29-7.6992-358.8-171.92-358.8-372.92z"/>
</svg>
