<?xml version="1.0" encoding="UTF-8"?>
<svg width="1200pt" height="1200pt" version="1.1" viewBox="0 0 1200 1200" xmlns="http://www.w3.org/2000/svg">
 <path d="m306.11 425.33 13.992 40.25c1.3438 3.8516 5.5508 5.8906 9.4023 4.5469 3.8555-1.3281 5.875-5.5508 4.5469-9.3867l-19.039-54.746c-0.17969-0.51562-0.39844-1.0039-0.66406-1.4609-0.13281-0.22266-0.28125-0.42969-0.42969-0.63672l-0.027344-0.042969-0.03125-0.03125-0.03125-0.042969-0.027343-0.027344-0.03125-0.046875-0.011719-0.027343-0.046875-0.046876c-0.47266-0.55859-1.0156-1.0781-1.668-1.5039-0.78125-0.50391-1.6094-0.83984-2.4648-1.0352-0.38281-0.070312-0.78125-0.13281-1.1797-0.14453-0.53125-0.03125-1.0625 0-1.6094 0.085937l-61.387 9.2109c-4.0312 0.60547-6.8047 4.3711-6.2148 8.3984 0.62109 4.0312 4.3711 6.8047 8.3984 6.1992l45.711-6.8633c-31.527 53.371-49.621 115.6-49.621 182.02 0 197.92 160.68 358.6 358.61 358.6 197.92 0 358.59-160.68 358.59-358.6 0-197.91-160.68-358.59-358.59-358.59-4.0742 0-7.3789 3.3047-7.3789 7.3789 0 4.0586 3.3047 7.3828 7.3789 7.3828 189.77 0 343.84 154.06 343.84 343.83 0 189.77-154.07 343.84-343.84 343.84-189.79 0-343.85-154.06-343.85-343.84 0-63.746 17.387-123.46 47.672-174.67zm255.3 393.18c-0.66406-0.47266-1.3125-0.94141-1.9609-1.4297-11.188-8.4297-20.324-18.82-28.637-30.332-15.629-21.609-28.383-47.188-48.074-70.715-12.012-14.363-26.523-27.957-45.887-39.41 20.531 9.9492 36.352 22.449 49.652 35.984 21.562 21.934 36.43 46.422 53.52 66.98 10.996 13.227 22.895 24.797 38.715 32.504 4.0586-89.668-25.945-131.72-71.82-159.68-47.203-28.766-111.22-42.582-172.22-77.945 14.703 143.25 86.48 228.44 226.71 244.04zm64.398-6.418c-4.0586-89.668 25.949-131.72 71.824-159.68 47.203-28.766 111.23-42.582 172.22-77.945-14.699 143.25-86.48 228.44-226.71 244.04 0.66406-0.47266 1.3125-0.94141 1.9648-1.4297 11.188-8.4297 20.324-18.82 28.648-30.332 15.617-21.609 28.367-47.188 48.059-70.715 12.016-14.363 26.523-27.957 45.891-39.41-20.531 9.9492-36.355 22.449-49.656 35.984-21.562 21.934-36.426 46.422-53.52 66.98-10.996 13.227-22.891 24.797-38.715 32.504zm-33.875-118.26c-0.17578-1.0625-0.35156-2.1133-0.5-3.1602-1.9492-13.875-1.0625-27.676 1.1953-41.695 4.2344-26.332 13.297-53.434 16.027-84 1.6562-18.656 1.0039-38.523-4.5898-60.309 7.4844 21.547 9.832 41.562 9.668 60.559-0.26563 30.762-7.0703 58.566-9.5195 85.195-1.5508 16.855-1.3438 33.18 4.1172 49.551 46.348-51.203 69.582-102.94 69.594-155.22 0.03125-54.344-25.031-109.27-75.246-164.78-94.391 105.68-97.812 210.3-10.746 313.86z" fill-rule="evenodd"/>
</svg>
