<?xml version="1.0" encoding="UTF-8"?>
<svg width="1200pt" height="1200pt" version="1.1" viewBox="0 0 1200 1200" xmlns="http://www.w3.org/2000/svg">
 <path d="m976.21 637.22c-17.215 0-34.047 3.418-49.695 9.9922-0.59375-12.824-4.9375-25.383-12.812-36.07-10.461-14.203-25.824-23.48-43.262-26.125-15.02-2.2773-30.023 0.60547-42.969 8.1289-0.84375-37.281-8.582-73.461-23.039-107.64-14.816-35.027-36.02-66.48-63.031-93.488-27.008-27.008-58.461-48.215-93.488-63.031-36.27-15.34-74.789-23.117-114.49-23.117s-78.223 7.7773-114.49 23.117c-35.027 14.816-66.48 36.02-93.488 63.031-27.008 27.008-48.215 58.461-63.031 93.488-15.34 36.27-23.121 74.789-23.121 114.49 0 12.844 0.85156 25.734 2.5352 38.496-5.9688-0.84766-12-1.2773-18.047-1.2773-34.312 0-66.57 13.363-90.832 37.625-24.262 24.262-37.625 56.52-37.625 90.832s13.363 66.566 37.621 90.828c24.262 24.262 56.52 37.621 90.832 37.621h752.43c70.828 0 128.45-57.625 128.45-128.45 0.003907-70.828-57.617-128.45-128.45-128.45zm0 232.91h-752.43c-57.598 0-104.45-46.859-104.45-104.45 0-57.598 46.859-104.45 104.45-104.45 9.9297 0 19.793 1.4141 29.328 4.2031 0.70312 0.20703 1.2812 0.3125 1.7695 0.33594 0.52734 0.070312 1.0586 0.11719 1.5977 0.11719 0.75781 0 1.5312-0.074218 2.3047-0.22266 6.5039-1.2656 10.754-7.5664 9.4883-14.07-3.2969-16.957-4.9727-34.312-4.9727-51.586 0-148.95 121.18-270.13 270.13-270.13 148.95 0 270.13 121.18 270.13 270.13 0 6.5898-0.24219 13.242-0.72656 19.777-0.48828 6.6094 4.4766 12.363 11.086 12.848 4.8164 0.35156 9.1719-2.1992 11.371-6.168l0.4375 0.29688c2.6875-3.9766 6.0156-7.4375 9.8867-10.293 9.0391-6.6562 20.129-9.3984 31.23-7.7148s20.879 7.5898 27.535 16.629c8.4141 11.422 10.5 26.188 5.5859 39.492l0.023437 0.007812c-1.293 3.4922-0.95312 7.5352 1.2852 10.859 3.6992 5.5 11.156 6.9609 16.652 3.2617 17.293-11.629 37.449-17.777 58.289-17.777 57.594 0 104.45 46.859 104.45 104.45 0 57.598-46.855 104.46-104.45 104.46z"/>
</svg>
