<?xml version="1.0" encoding="UTF-8"?>
<svg width="1200pt" height="1200pt" version="1.1" viewBox="0 0 1200 1200" xmlns="http://www.w3.org/2000/svg">
 <g>
  <path d="m600 72.633c-290.79 0-527.37 236.57-527.37 527.37s236.57 527.37 527.37 527.37 527.37-236.57 527.37-527.37-236.57-527.37-527.37-527.37zm472.34 462.7c1.9219 14.121 3.2969 28.41 3.9531 42.883-5.5938-23.875-6.4414-37.051-3.9531-42.883zm-91.301-221.65c1.6562 7.3906 2.5156 11.887 2.5156 11.887v10.902l-7.5273 17.129-6.0234 10.902-16.875 1.5664s-13.238 4.6719-23.785 9.3359c-10.535 4.6875 0 0-9.0312 0s-19.578-1.5547-19.578-1.5547-7.5273-7.7812-12.039-10.902c-4.5078-3.1211-7.5273-9.3477-7.5273-9.3477h-10.535l-3.0078 7.793s10.523 7.793 15.043 14.008c4.5078 6.2383 7.543 4.6875 16.559 7.793 9.043 3.1211 16.574 12.453 21.082 22.344s6.0234 5.6953 7.5273 11.91c1.5039 6.2266 7.5273 9.3477 19.566 21.816 12.062 12.453 1.5039 12.453 0 23.355-1.4922 10.902 0 0-6.0234 4.6719-6.0234 4.6602-6.0234 20.07-6.0234 20.07s-4.5078 0.17578-9.0312 0c-4.5078-0.15234-7.5273 0-7.5273 0h-13.566s-7.5273-20.07-13.527-24.91c-6.0391-4.8398-9.043 0-9.043 0s-3.0195 14.184-16.574 0.16406c-13.543-14.008 0 0-6.0234-14.008-6.0234-14.02 0 0-9.0312-14.02-9.0312-14.02-15.059 0-15.059 0l1.5156 10.902v4.6719c0 4.6719 19.566 28.031 19.566 28.031l9.0312 4.6719c9.0312 4.6719 0 0 10.535 4.4961l9.043 15.75 12.039 14.008 9.043 6.2383 13.543 9.3359 21.07 7.793-1.4922 21.801v14.008l-6.0391 7.7812c-6.0234 7.793 0 10.914 0 10.914v12.453l-6.0234 23.367c-6.0234 23.355-9.0312 20.234-9.0312 20.234l-1.5039 7.793c-1.5039 7.793-6.0234 43.605-6.0234 43.605l-9.043 12.469v17.129c0 4.6719-15.043 46.332-15.043 46.332l-9.043 31.527-7.5156 14.008-16.574 23.367v6.2383l-9.0312 10.902c-9.043 10.902-12.051 12.453-12.051 12.453l-6.0234 4.6719c-6.0234 4.6602-16.574 17.129-16.574 17.129l-7.5273 9.3359-7.5273 6.2383-13.543 6.2266c-13.543 6.2266-13.543 14.008-13.543 14.008l-10.547 7.7812h-10.535c-10.535 0 0-4.6719 0-4.6719l-6.793 0.019531v-6.2266l-6.6953-9.3477s4.5078-23.355 6.0391-29.598c1.4922-6.2266 0-12.453 0-12.453l-7.6914-26.477c-4.9766-17.102-7.2109-17.305-8.1719-15.297 0.20312-0.85938 0.45312-1.9219 0.80859-3.3984 1.5039-6.2266-1.5039-14.02-1.5039-14.02l4.5078-14.008 3.0078-12.469c3.0078-12.453 0-24.922 0-24.922l-9.0312-18.684h-6.0273v-10.902l-15.043-12.453v-62.285h-6.0391l-19.578-7.793-10.535-6.2266-9.0312-1.5547-15.043-1.5664-10.547 3.1055-22.586 3.1211c-22.574 3.1211-19.566 10.902-19.566 10.902h-30.125l-7.5039-0.003907-43.656-26.477-19.742-15.574-19.742-21.121 3.3477-10.016s-7.5273-14.02 0-18.695c7.5273-4.6602 0-43.605 0-43.605v-21.816l9.0312-7.7812v-12.633l21.082-44.992 6.0391-7.793 22.574-18.684 7.5273-10.371 9.043-6.7695 9.0312-6.2266 18.074-10.902 21.07-14.02 7.1133-1.5547s4.9375-3.1211 13.969-3.1211c9.0195 0 24.09 1.5547 24.09 1.5547h15.055l16.559 6.2266s18.062 7.793 28.625 9.3477c10.535 1.5547 13.527 3.1055 13.527 3.1055h6.0391c6.0234 0 34.625-6.2266 48.176-12.453 13.543-6.2266 15.043-7.7812 15.043-7.7812l3.0078-4.6719c3.0078-4.6719 4.5078-9.3477 0-21.801l-7.5273-4.6719-15.043 6.2266h-37.062l-14.133-3.1211s-7.5273-4.6719-12.039-4.6719c-4.5234 0-10.559 1.5664-10.559 1.5664l-10.562 10.941-6.0234 12.469s-9.0312-1.5664-13.543-4.6719c-4.5078-3.1211-7.5273-4.6719-7.5273-4.6719l-7.5156-0.003906-18.074-4.6719s1.4922-18.695-1.5156-24.922c-3.0078-6.2266-10.523 1.5664-10.523 1.5664l-12.469 6.2266-7.1133 9.3477-10.535 14.004-15.043 14.008-7.5547 10.902s-13.527 1.5664-28.598 0c-15.043-1.5547 0 0-10.535-1.5547-10.535-1.5547 0-9.3477 0-9.3477l-12.051-9.3477s4.5078-7.7812 9.043-23.367c4.5078-15.562 0 0 3.0078-3.1211 3.0078-3.1211 6.0234-4.6602 6.0234-4.6602l22.586-4.6719c22.586-4.6719 7.5156 0 18.074-6.2266l-3.0195-9.3477-1.5039-12.453s6.0391-9.3477 13.555-21.801l7.5273-12.469 16.129-12.453 13.969-7.793h15.043l10.547-4.6719 6.0234-10.902v-12.453l-3.0078-12.453-10.535-13.844h-16.574l-7.5273 12.289h9.0312s9.0195 15.562 4.5078 24.922c0 0-16.574-1.5664-21.5-1.5664h-11.621l-10.535-6.2383-1.5039-9.3359s3.0078-12.469 6.0234-20.07c3.0078-7.6172 4.5078-1.7305 10.535-6.4023 6.0234-4.6602 7.1133-9.3477 7.1133-9.3477h12.469 21.082 9.0312l15.043 1.5664 7.5273-10.902-3.0078-7.793-12.039-3.1055-7.5273-14.02s-0.25391-0.26563-4.3203-4.4727c139.56 11.383 262.33 82.965 342.06 188.82zm-450.64-185.39v17.859l-9.4727 17.367h-7.8945l-14.211 15.789-18.945 9.4766-12.633 6.3164-4.7383 3.1562c-4.7383 3.1562-14.211 9.4727-11.051 14.211 3.1562 4.7383-12.633 4.7383-23.684 6.3164s-14.211 1.5781-14.211 1.5781l-4.7383-11.051 4.7383-11.051 7.8945-4.7383 11.051-9.4727 9.4727-9.4727 9.4727-11.051h-7.8945s-17.367 9.4727-22.105 12.633c-4.7383 3.1562-9.4727 6.3164-18.949 11.051-9.4727 4.7383-9.4727 7.8945-25.262 23.684-15.789 15.789 0 0-7.8945 12.633-7.8945 12.633-7.8945 0-7.8945 0l-20.523 55.258c-54.82 6.3281-123.65 63.285-163.4 100.48 69.5-132.45 199.38-228.43 352.88-250.98zm-407.24 471.71c0-9.0312 0.30469-18 0.80859-26.918 2.5391-3.6758 4.4727-8.4258 4.4727-8.4258s0 10.648 8.8672 0c8.8672-10.648 8.8672-21.297 21.297-10.648 12.418 10.648 15.98 23.066 15.98 23.066s12.418 26.398 21.297 29.18c8.8789 2.7656 14.199 15.195 21.309 20.527 7.0977 5.3164 7.0977 10.648 10.648 17.746l3.5508 7.0977 8.8672 14.199s-1.7812 5.3164 0 10.648c1.7812 5.332-3.5508 7.0977 0 14.199 3.5352 7.0977 0.37891 15.965 0.37891 15.965l1.3008 8.8789s3.6367 3.5508 8.9688 8.8789c5.332 5.3164 24.848 14.199 28.395 19.516 3.5508 5.3164 24.848 14.199 31.945 15.965 7.0977 1.7812-3.5508-1.7812 7.0977 1.7812 10.648 3.5508 23.066 14.199 23.066 14.199s5.332 10.648 10.648 14.199c5.332 3.5508 8.8789 10.648 17.746 14.199l8.8672 3.5508s1.7812 5.3164 0 17.746c-1.7812 12.43 0.79688 24.848 0.79688 24.848l-13.211 24.848-1.7695 28.395h5.3164l1.7812 10.648v8.8789l-17.746 17.746h-8.8672l1.7812 12.418h5.3164l1.7812 23.078 5.332 8.8672 1.7812 14.199v12.418s-0.10156 0.28906-0.125 0.37891c-142.01-82.727-237.68-236.49-237.68-412.27zm871.83 266.86-2.3867-6.0508h-12.633v-51.727l18.949-50.527v-25.262h15.789v-79.832l22.105-27.535 17.395-24.719s16.723 6.2773 22.637-1.707c0 0.17578 0.011719 0.32812 0.011719 0.50391-0.011719 98.793-30.227 190.65-81.867 266.86z"/>
  <path d="m600 72.633c-290.79 0-527.37 236.57-527.37 527.37s236.57 527.37 527.37 527.37 527.37-236.57 527.37-527.37-236.57-527.37-527.37-527.37zm472.34 462.7c1.9219 14.121 3.2969 28.41 3.9531 42.883-5.5938-23.875-6.4414-37.051-3.9531-42.883zm-91.301-221.65c1.6562 7.3906 2.5156 11.887 2.5156 11.887v10.902l-7.5273 17.129-6.0234 10.902-16.875 1.5664s-13.238 4.6719-23.785 9.3359c-10.535 4.6875 0 0-9.0312 0s-19.578-1.5547-19.578-1.5547-7.5273-7.7812-12.039-10.902c-4.5078-3.1211-7.5273-9.3477-7.5273-9.3477h-10.535l-3.0078 7.793s10.523 7.793 15.043 14.008c4.5078 6.2383 7.543 4.6875 16.559 7.793 9.043 3.1211 16.574 12.453 21.082 22.344s6.0234 5.6953 7.5273 11.91c1.5039 6.2266 7.5273 9.3477 19.566 21.816 12.062 12.453 1.5039 12.453 0 23.355-1.4922 10.902 0 0-6.0234 4.6719-6.0234 4.6602-6.0234 20.07-6.0234 20.07s-4.5078 0.17578-9.0312 0c-4.5078-0.15234-7.5273 0-7.5273 0h-13.566s-7.5273-20.07-13.527-24.91c-6.0391-4.8398-9.043 0-9.043 0s-3.0195 14.184-16.574 0.16406c-13.543-14.008 0 0-6.0234-14.008-6.0234-14.02 0 0-9.0312-14.02-9.0312-14.02-15.059 0-15.059 0l1.5156 10.902v4.6719c0 4.6719 19.566 28.031 19.566 28.031l9.0312 4.6719c9.0312 4.6719 0 0 10.535 4.4961l9.043 15.75 12.039 14.008 9.043 6.2383 13.543 9.3359 21.07 7.793-1.4922 21.801v14.008l-6.0391 7.7812c-6.0234 7.793 0 10.914 0 10.914v12.453l-6.0234 23.367c-6.0234 23.355-9.0312 20.234-9.0312 20.234l-1.5039 7.793c-1.5039 7.793-6.0234 43.605-6.0234 43.605l-9.043 12.469v17.129c0 4.6719-15.043 46.332-15.043 46.332l-9.043 31.527-7.5156 14.008-16.574 23.367v6.2383l-9.0312 10.902c-9.043 10.902-12.051 12.453-12.051 12.453l-6.0234 4.6719c-6.0234 4.6602-16.574 17.129-16.574 17.129l-7.5273 9.3359-7.5273 6.2383-13.543 6.2266c-13.543 6.2266-13.543 14.008-13.543 14.008l-10.547 7.7812h-10.535c-10.535 0 0-4.6719 0-4.6719l-6.793 0.019531v-6.2266l-6.6953-9.3477s4.5078-23.355 6.0391-29.598c1.4922-6.2266 0-12.453 0-12.453l-7.6914-26.477c-4.9766-17.102-7.2109-17.305-8.1719-15.297 0.20312-0.85938 0.45312-1.9219 0.80859-3.3984 1.5039-6.2266-1.5039-14.02-1.5039-14.02l4.5078-14.008 3.0078-12.469c3.0078-12.453 0-24.922 0-24.922l-9.0312-18.684h-6.0273v-10.902l-15.043-12.453v-62.285h-6.0391l-19.578-7.793-10.535-6.2266-9.0312-1.5547-15.043-1.5664-10.547 3.1055-22.586 3.1211c-22.574 3.1211-19.566 10.902-19.566 10.902h-30.125l-7.5039-0.003907-43.656-26.477-19.742-15.574-19.742-21.121 3.3477-10.016s-7.5273-14.02 0-18.695c7.5273-4.6602 0-43.605 0-43.605v-21.816l9.0312-7.7812v-12.633l21.082-44.992 6.0391-7.793 22.574-18.684 7.5273-10.371 9.043-6.7695 9.0312-6.2266 18.074-10.902 21.07-14.02 7.1133-1.5547s4.9375-3.1211 13.969-3.1211c9.0195 0 24.09 1.5547 24.09 1.5547h15.055l16.559 6.2266s18.062 7.793 28.625 9.3477c10.535 1.5547 13.527 3.1055 13.527 3.1055h6.0391c6.0234 0 34.625-6.2266 48.176-12.453 13.543-6.2266 15.043-7.7812 15.043-7.7812l3.0078-4.6719c3.0078-4.6719 4.5078-9.3477 0-21.801l-7.5273-4.6719-15.043 6.2266h-37.062l-14.133-3.1211s-7.5273-4.6719-12.039-4.6719c-4.5234 0-10.559 1.5664-10.559 1.5664l-10.562 10.941-6.0234 12.469s-9.0312-1.5664-13.543-4.6719c-4.5078-3.1211-7.5273-4.6719-7.5273-4.6719l-7.5156-0.003906-18.074-4.6719s1.4922-18.695-1.5156-24.922c-3.0078-6.2266-10.523 1.5664-10.523 1.5664l-12.469 6.2266-7.1133 9.3477-10.535 14.004-15.043 14.008-7.5547 10.902s-13.527 1.5664-28.598 0c-15.043-1.5547 0 0-10.535-1.5547-10.535-1.5547 0-9.3477 0-9.3477l-12.051-9.3477s4.5078-7.7812 9.043-23.367c4.5078-15.562 0 0 3.0078-3.1211 3.0078-3.1211 6.0234-4.6602 6.0234-4.6602l22.586-4.6719c22.586-4.6719 7.5156 0 18.074-6.2266l-3.0195-9.3477-1.5039-12.453s6.0391-9.3477 13.555-21.801l7.5273-12.469 16.129-12.453 13.969-7.793h15.043l10.547-4.6719 6.0234-10.902v-12.453l-3.0078-12.453-10.535-13.844h-16.574l-7.5273 12.289h9.0312s9.0195 15.562 4.5078 24.922c0 0-16.574-1.5664-21.5-1.5664h-11.621l-10.535-6.2383-1.5039-9.3359s3.0078-12.469 6.0234-20.07c3.0078-7.6172 4.5078-1.7305 10.535-6.4023 6.0234-4.6602 7.1133-9.3477 7.1133-9.3477h12.469 21.082 9.0312l15.043 1.5664 7.5273-10.902-3.0078-7.793-12.039-3.1055-7.5273-14.02s-0.25391-0.26563-4.3203-4.4727c139.56 11.383 262.33 82.965 342.06 188.82zm-450.64-185.39v17.859l-9.4727 17.367h-7.8945l-14.211 15.789-18.945 9.4766-12.633 6.3164-4.7383 3.1562c-4.7383 3.1562-14.211 9.4727-11.051 14.211 3.1562 4.7383-12.633 4.7383-23.684 6.3164s-14.211 1.5781-14.211 1.5781l-4.7383-11.051 4.7383-11.051 7.8945-4.7383 11.051-9.4727 9.4727-9.4727 9.4727-11.051h-7.8945s-17.367 9.4727-22.105 12.633c-4.7383 3.1562-9.4727 6.3164-18.949 11.051-9.4727 4.7383-9.4727 7.8945-25.262 23.684-15.789 15.789 0 0-7.8945 12.633-7.8945 12.633-7.8945 0-7.8945 0l-20.523 55.258c-54.82 6.3281-123.65 63.285-163.4 100.48 69.5-132.45 199.38-228.43 352.88-250.98zm-407.24 471.71c0-9.0312 0.30469-18 0.80859-26.918 2.5391-3.6758 4.4727-8.4258 4.4727-8.4258s0 10.648 8.8672 0c8.8672-10.648 8.8672-21.297 21.297-10.648 12.418 10.648 15.98 23.066 15.98 23.066s12.418 26.398 21.297 29.18c8.8789 2.7656 14.199 15.195 21.309 20.527 7.0977 5.3164 7.0977 10.648 10.648 17.746l3.5508 7.0977 8.8672 14.199s-1.7812 5.3164 0 10.648c1.7812 5.332-3.5508 7.0977 0 14.199 3.5352 7.0977 0.37891 15.965 0.37891 15.965l1.3008 8.8789s3.6367 3.5508 8.9688 8.8789c5.332 5.3164 24.848 14.199 28.395 19.516 3.5508 5.3164 24.848 14.199 31.945 15.965 7.0977 1.7812-3.5508-1.7812 7.0977 1.7812 10.648 3.5508 23.066 14.199 23.066 14.199s5.332 10.648 10.648 14.199c5.332 3.5508 8.8789 10.648 17.746 14.199l8.8672 3.5508s1.7812 5.3164 0 17.746c-1.7812 12.43 0.79688 24.848 0.79688 24.848l-13.211 24.848-1.7695 28.395h5.3164l1.7812 10.648v8.8789l-17.746 17.746h-8.8672l1.7812 12.418h5.3164l1.7812 23.078 5.332 8.8672 1.7812 14.199v12.418s-0.10156 0.28906-0.125 0.37891c-142.01-82.727-237.68-236.49-237.68-412.27zm871.83 266.86-2.3867-6.0508h-12.633v-51.727l18.949-50.527v-25.262h15.789v-79.832l22.105-27.535 17.395-24.719s16.723 6.2773 22.637-1.707c0 0.17578 0.011719 0.32812 0.011719 0.50391-0.011719 98.793-30.227 190.65-81.867 266.86z"/>
 </g>
</svg>
