<?xml version="1.0" encoding="UTF-8"?>
<svg width="1200pt" height="1200pt" version="1.1" viewBox="0 0 1200 1200" xmlns="http://www.w3.org/2000/svg">
 <g>
  <path d="m205.2 424.8c-96 0-175.2 78-175.2 175.2s79.199 175.2 175.2 175.2 175.2-78 175.2-175.2-78-175.2-175.2-175.2zm0 297.6c-67.199 0-122.4-55.199-122.4-122.4s55.199-122.4 122.4-122.4 122.4 55.199 122.4 122.4-54 122.4-122.4 122.4z"/>
  <path d="m1077.6 434.4h-145.2c-51.602 0-92.398 42-92.398 92.398v145.2c0 51.602 42 92.398 92.398 92.398h145.2c51.602 0 92.398-42 92.398-92.398l0.003906-145.2c0-50.402-42-92.402-92.398-92.402zm39.598 238.8c0 21.602-18 39.602-39.602 39.602h-145.2c-21.602 0-39.602-18-39.602-39.602l0.003906-146.4c0-21.602 18-39.602 39.602-39.602h145.2c21.602 0 39.602 18 39.602 39.602z"/>
  <path d="m678 502.8c-10.801-10.801-27.602-10.801-37.199 0-10.801 10.801-10.801 27.602 0 37.199l32.398 32.398h-199.2c-14.398 0-26.398 12-26.398 26.398s12 26.398 26.398 26.398h200.4l-32.398 32.398c-10.801 10.801-10.801 27.602 0 37.199 4.8008 4.8008 12 7.1992 19.199 7.1992s13.199-2.3984 19.199-7.1992l78-78c10.801-10.801 10.801-27.602 0-37.199z"/>
 </g>
</svg>
