<?xml version="1.0" encoding="UTF-8"?>
<svg width="1200pt" height="1200pt" version="1.1" viewBox="0 0 1200 1200" xmlns="http://www.w3.org/2000/svg">
 <g>
  <path d="m668.4 60h-132c-34.801 0-62.398 27.602-62.398 62.398v48h-114c-30 0-55.199 25.199-55.199 55.199v124.8c0 30 25.199 55.199 55.199 55.199h486c30 0 55.199-25.199 55.199-55.199v-123.6c0-30-25.199-55.199-55.199-55.199h-114v-48c0-36-28.801-63.602-63.602-63.602zm9.6016 111.6h-151.2v-48c0-4.8008 4.8008-9.6016 9.6016-9.6016h132c4.8008 0 9.6016 4.8008 9.6016 9.6016z"/>
  <path d="m182.4 1075.2h32.398c8.3984 0 14.398-6 14.398-14.398l0.003907-295.2c0-8.3984-6-14.398-14.398-14.398h-32.398c-34.801 0-62.398 27.602-62.398 62.398v200.4c-0.003906 33.602 27.598 61.199 62.395 61.199z"/>
  <path d="m985.2 1075.2h32.398c34.801 0 62.398-27.602 62.398-62.398l0.003906-200.4c0-34.801-27.602-62.398-62.398-62.398h-32.398c-8.3984 0-14.398 6-14.398 14.398v295.2c-0.003907 8.4023 5.9961 15.602 14.395 15.602z"/>
  <path d="m271.2 525.6v554.4c0 33.602 27.602 60 60 60h541.2c33.602 0 60-27.602 60-60v-554.4c0-33.602-27.602-60-60-60h-86.398c-7.1992 0-12 6-12 12v166.8c0 6-4.8008 10.801-10.801 10.801h-34.801c-6 0-10.801-4.8008-10.801-10.801l0.003906-166.8c0-7.1992-6-12-12-12h-214.8c-7.1992 0-12 6-12 12v166.8c0 6-4.8008 10.801-10.801 10.801h-34.801c-6 0-10.801-4.8008-10.801-10.801v-166.8c0-7.1992-6-12-12-12h-79.199c-33.598-1.2031-60 26.398-60 60z"/>
 </g>
</svg>
