<?xml version="1.0" encoding="UTF-8"?>
<svg width="1200pt" height="1200pt" version="1.1" viewBox="0 0 1200 1200" xmlns="http://www.w3.org/2000/svg">
 <path d="m84 996c-13.246 0-24-10.754-24-24v-588c0-13.246 10.754-24 24-24h337.02c-0.68359-1.9336-1.0312-3.9609-1.0195-6v-132c0-9.9492 8.0508-18 18-18h324c9.9492 0 18 8.0508 18 18v132c-0.011719 2.0391-0.34766 4.0664-1.0312 6h337.03c13.246 0 24 10.754 24 24v588c0 13.246-10.754 24-24 24zm12-36h1008v-348h-156v48c0 13.246-10.754 24-24 24h-96c-13.246 0-24-10.754-24-24v-48h-408v48c0 13.246-10.754 24-24 24h-96c-13.246 0-24-10.754-24-24v-48h-156zm744-312h72v-120h-72zm-552-120v120h72v-120zm816 48v-180h-1008v180h156v-60c0-13.246 10.754-24 24-24h96c13.246 0 24 10.754 24 24v60h408v-60c0-13.246 10.754-24 24-24h96c13.246 0 24 10.754 24 24v60zm-648-222c0 2.0391-0.33594 4.0664-1.0195 6h290.04c-0.68359-1.9336-1.0312-3.9609-1.0312-6v-114h-287.99z"/>
</svg>
