<?xml version="1.0" encoding="UTF-8"?>
<svg width="1200pt" height="1200pt" version="1.1" viewBox="0 0 1200 1200" xmlns="http://www.w3.org/2000/svg">
 <path d="m535.8 300.6v205.2c-0.125 7.918-3.3242 15.477-8.9258 21.074-5.5977 5.6016-13.156 8.8008-21.074 8.9258h-205.2c-7.9492-0.023437-15.57-3.1914-21.191-8.8125-5.6211-5.6211-8.7891-13.238-8.8086-21.188v-205.2c-0.082031-7.9805 3.0547-15.66 8.6992-21.301 5.6406-5.6445 13.32-8.7812 21.301-8.6992h205.2c7.9492 0.019532 15.566 3.1875 21.188 8.8086 5.6211 5.6211 8.7891 13.242 8.8125 21.191zm363.6-30h-205.2c-7.9492 0.019532-15.566 3.1875-21.188 8.8086-5.6211 5.6211-8.7891 13.242-8.8125 21.191v205.2c0.125 7.918 3.3242 15.477 8.9258 21.074 5.5977 5.6016 13.156 8.8008 21.074 8.9258h205.2c7.9492-0.023437 15.57-3.1914 21.191-8.8125 5.6211-5.6211 8.7891-13.238 8.8086-21.188v-205.2c0.082031-7.9805-3.0547-15.66-8.6992-21.301-5.6406-5.6445-13.32-8.7812-21.301-8.6992zm-393.6 393.6h-205.2c-7.9492 0.023437-15.57 3.1914-21.191 8.8125-5.6211 5.6211-8.7891 13.238-8.8086 21.188v205.2c-0.082031 7.9805 3.0547 15.66 8.6992 21.301 5.6406 5.6445 13.32 8.7812 21.301 8.6992h205.2c7.9492-0.023438 15.566-3.1914 21.188-8.8125 5.6211-5.6211 8.7891-13.238 8.8125-21.188v-205.2c-0.125-7.918-3.3242-15.477-8.9258-21.074-5.5977-5.6016-13.156-8.8008-21.074-8.9258zm192.39 4.0195h-0.003906c-7.9258 0.003906-15.531 3.1523-21.137 8.7617-5.6055 5.6055-8.7578 13.211-8.7539 21.141 0 7.9297 3.1484 15.531 8.7578 21.137 5.6055 5.6094 13.211 8.7578 21.141 8.7578 7.9258 0 15.531-3.1523 21.137-8.7578 5.6094-5.6055 8.7578-13.211 8.7578-21.141 0-7.9297-3.1484-15.535-8.7578-21.141-5.6094-5.6094-13.215-8.7578-21.145-8.7578zm197.45 0.078125c-7.9297 0-15.535 3.1484-21.145 8.7578-5.6055 5.6055-8.7539 13.211-8.7539 21.141-0.003906 7.9297 3.1484 15.535 8.7539 21.141 5.6094 5.6055 13.211 8.7578 21.141 8.7578s15.535-3.1523 21.145-8.7578c5.6055-5.6055 8.7539-13.211 8.7539-21.141 0.003907-7.9297-3.1484-15.535-8.7539-21.145-5.6094-5.6055-13.215-8.7578-21.145-8.7578zm-0.078125 197.45c-7.9297 0-15.535 3.1523-21.141 8.7578-5.6055 5.6055-8.7578 13.211-8.7578 21.141 0 7.9297 3.1523 15.535 8.7578 21.141 5.6055 5.6055 13.211 8.7578 21.141 8.7578 7.9297 0 15.535-3.1523 21.141-8.7578 5.6055-5.6055 8.7578-13.211 8.7578-21.141 0-7.9297-3.1484-15.535-8.7578-21.145-5.6055-5.6055-13.211-8.7539-21.141-8.7539zm-197.45-0.078125v0.003906c-7.9297 0-15.535 3.1523-21.141 8.7578-5.6055 5.6055-8.7539 13.211-8.7539 21.141 0 7.9297 3.1523 15.535 8.7578 21.141 5.6055 5.6055 13.211 8.7539 21.141 8.7539 7.9297 0 15.535-3.1484 21.141-8.7578 5.6055-5.6055 8.7539-13.211 8.7539-21.141 0.003906-7.9297-3.1484-15.535-8.7539-21.145-5.6094-5.6055-13.215-8.7539-21.148-8.7539zm98.727-98.727v0.003906c-7.9297-0.003906-15.535 3.1484-21.145 8.7539-5.6055 5.6094-8.7578 13.211-8.7578 21.145 0 7.9297 3.1484 15.535 8.7578 21.141 5.6055 5.6094 13.211 8.7578 21.141 8.7578 7.9297 0 15.535-3.1523 21.145-8.7578 5.6055-5.6094 8.7578-13.215 8.7539-21.145 0-7.9297-3.1484-15.535-8.7539-21.141-5.6094-5.6055-13.211-8.7578-21.141-8.7578z"/>
</svg>
