<?xml version="1.0" encoding="UTF-8"?>
<svg width="1200pt" height="1200pt" version="1.1" viewBox="0 0 1200 1200" xmlns="http://www.w3.org/2000/svg">
 <path d="m1140 660v336c0 13.246-10.754 24-24 24h-1032c-13.246 0-24-10.754-24-24v-336c0-13.246 10.754-24 24-24h144v60c0 13.246 10.754 24 24 24h120c13.246 0 24-10.754 24-24v-60h408v60c0 13.246 10.754 24 24 24h120c13.246 0 24-10.754 24-24v-60h144c13.246 0 24 10.754 24 24zm-876-120v144h96v-144zm180-192c13.246 0 24-10.754 24-24v-96h264v96c0 13.246 10.754 24 24 24s24-10.754 24-24v-120c0-13.246-10.754-24-24-24h-312c-13.246 0-24 10.754-24 24v120c0 13.246 10.754 24 24 24zm672 36h-1032c-13.246 0-24 10.754-24 24v168c0 13.246 10.754 24 24 24h144v-72c0-13.246 10.754-24 24-24h120c13.246 0 24 10.754 24 24v72h408v-72c0-13.246 10.754-24 24-24h120c13.246 0 24 10.754 24 24v72h144c13.246 0 24-10.754 24-24v-168c0-13.246-10.754-24-24-24zm-276 156v144h96v-144z"/>
</svg>
