<svg xmlns="http://www.w3.org/2000/svg" xmlns:xlink="http://www.w3.org/1999/xlink" version="1.1" x="0px" y="0px" viewBox="0 0 100 125" style="enable-background:new 0 0 100 100;" xml:space="preserve"><g><path d="M90.710022,2.5h-23.75c-3.7400513,0-6.7800293,3.039978-6.7800293,6.789978v23.75   c0,3.7399902,3.039978,6.7800293,6.7800293,6.7800293h23.75c3.75,0,6.789978-3.0400391,6.789978-6.7800293v-23.75   C97.5,5.539978,94.460022,2.5,90.710022,2.5z"/><path d="M33.039978,60.1799927h-23.75c-3.75,0-6.789978,3.039978-6.789978,6.7799683v23.75   C2.5,94.4599609,5.539978,97.5,9.289978,97.5h23.75c3.7400513,0,6.7800293-3.0400391,6.7800293-6.7900391v-23.75   C39.8200073,63.2199707,36.7800293,60.1799927,33.039978,60.1799927z"/><path d="M5.8900146,53.3900146H50c1.8699951,0,3.3900146-1.5200195,3.3900146-3.3900146V5.8900146   C53.3900146,4.0199585,51.8699951,2.5,50,2.5s-3.3900146,1.5199585-3.3900146,3.3900146v40.7199707H5.8900146   C4.0200195,46.6099854,2.5,48.1300049,2.5,50S4.0200195,53.3900146,5.8900146,53.3900146z"/><path d="M9.289978,39.8200073h23.75c3.7400513,0,6.7800293-3.0400391,6.7800293-6.7800293v-23.75   c0-3.75-3.039978-6.789978-6.7800293-6.789978h-23.75C5.539978,2.5,2.5,5.539978,2.5,9.289978v23.75   C2.5,36.7799683,5.539978,39.8200073,9.289978,39.8200073z"/><path d="M66.9642334,66.9643555V50c0-1.8737793-1.519043-3.3929443-3.3928223-3.3929443S60.1784668,48.1262207,60.1784668,50   v13.5714111H50c-1.8737793,0-3.3929443,1.5189819-3.3929443,3.3929443v23.749939   c0,1.8737793,1.519165,3.3929443,3.3929443,3.3929443s3.3927612-1.519165,3.3927612-3.3929443V70.3571167h10.1786499   C65.4451904,70.3571167,66.9642334,68.8381348,66.9642334,66.9643555z"/><path d="M90.7142944,77.1428223H63.5714111c-1.8737793,0-3.3929443,1.5189819-3.3929443,3.3929443   c0,1.8737793,1.519165,3.3927612,3.3929443,3.3927612h6.7857056v6.7857666c0,1.8737793,1.519043,3.3929443,3.3928223,3.3929443   c1.8739014,0,3.3929443-1.519165,3.3929443-3.3929443v-6.7857666h10.1786499v6.7857666   c0,1.8737793,1.5189819,3.3929443,3.3927612,3.3929443s3.3929443-1.519165,3.3929443-3.3929443V80.5357666   C94.1072388,78.6618042,92.5880737,77.1428223,90.7142944,77.1428223z"/><path d="M94.1072388,53.3927612C95.9810181,53.3927612,97.5,51.8737793,97.5,50s-1.5189819-3.3929443-3.3927612-3.3929443   H77.1428833c-1.8738403,0-3.3929443,1.519165-3.3929443,3.3929443v16.9643555c0,1.8737793,1.519104,3.3927612,3.3929443,3.3927612   h16.9643555c1.8737793,0,3.3927612-1.5189819,3.3927612-3.3927612c0-1.8739624-1.5189819-3.3929443-3.3927612-3.3929443H80.5357666   V53.3927612H94.1072388z"/></g></svg>