<svg xmlns="http://www.w3.org/2000/svg" width="3536.9" height="1789.376" viewBox="0 0 3536.9 1789.376">
  <defs>
    <style>
      .cls-1 {
        fill-rule: evenodd;
      }
    </style>
  </defs>
  <path id="Color_Fill_1_copy" data-name="Color Fill 1 copy" class="cls-1" d="M4653,10c468.54-5.129,754.02,247.478,889,577,53.49,130.6,70.17,371.737,21,549-102.92,371-484.37,733.74-1004,648-161.24-26.6-395.25-143.97-475-248-62.3-81.27-42.04-216.06,30-272,149-115.7,284.26,47.98,386,99,161.21,80.84,385.32,35.74,501-53,264.74-203.08,288.06-605.756,9-814-207.25-154.659-406.75-86.341-374-93-264.33,53.749-346.93,204.339-480,385q-164.985,214.978-330,430c-76.1,99.83-167.72,248.98-261,327-200.73,167.89-474.58,304.51-844,218-116.87-27.37-379.13-131.97-576-474-42.75-74.27-57.38-158.97-76-257-86.3-454.339,251.91-898.949,616-972,520.67-126.633,786.09,136.664,861,182,132.86,101.343,45.04,353.065-144,333-87.72-9.311-119.13-65.745-180-100-214.23-120.55-335.77-74.45-390-63-309.87,65.433-518.32,469.526-300,778,146.99,207.69,472.22,296.11,717,115,108.33-80.15,184.74-208.7,265-317q165.48-214.978,331-430c101.15-125.021,187.32-254.724,308-360C4356.4,20.568,4694.93-1.9,4653,10Z" transform="translate(-2055.38 -7.344)"/>
</svg>
