<svg xmlns="http://www.w3.org/2000/svg" width="7471.254" height="1812" viewBox="0 0 7471.254 1812">
  <defs>
    <style>
      .cls-1 {
        fill-rule: evenodd;
      }
    </style>
  </defs>
  <path id="Color_Fill_1" data-name="Color Fill 1" class="cls-1" d="M877,0c139.71,0.079,158,9.334,199,15,451.47,116.819,686.99,384.473,687,952,0,407.62,4,676.04-12,717-16.92,43.31-59.11,84.68-102,102-111.15,44.89-215.22-27.56-247-115-20.53-56.5.38-121.8-7-197q-1.5-301.965-3-604c6.31-231.468-203.57-438.943-402-475C652.981,333.761,447.453,561.423,397,825c-11.842,181.72-12.333,533.01-13,657-1.852,58.61,23.882,258.99-140,309-49.345,15.06-102.273,9.42-143-14-36.007-20.71-71.066-63.9-86-105-7.3-20.09-12.073-180.81-14-222V1100C2.333,989.011-6.1,881.714,12,767,85.318,380.8,285.3,168.387,604,45,724.537-1.667,795.13,0,877,0ZM4653,10c468.54-5.129,754.02,247.478,889,577,53.49,130.6,70.17,371.737,21,549-102.92,371-484.37,733.74-1004,648-161.24-26.6-395.25-143.97-475-248-62.3-81.27-42.04-216.06,30-272,149-115.7,284.26,47.98,386,99,161.21,80.84,385.32,35.74,501-53,264.74-203.08,288.06-605.756,9-814-207.25-154.659-406.75-86.341-374-93-264.33,53.749-346.93,204.339-480,385q-164.985,214.978-330,430c-76.1,99.83-167.72,248.98-261,327-200.73,167.89-474.58,304.51-844,218-116.87-27.37-379.13-131.97-576-474-42.75-74.27-57.38-158.97-76-257-86.3-454.339,251.91-898.949,616-972,520.67-126.633,786.09,136.664,861,182,132.86,101.343,45.04,353.065-144,333-87.72-9.311-119.13-65.745-180-100-214.23-120.55-335.77-74.45-390-63-309.87,65.433-518.32,469.526-300,778,146.99,207.69,472.22,296.11,717,115,108.33-80.15,184.74-208.7,265-317q165.48-214.978,331-430c101.15-125.021,187.32-254.724,308-360C4356.4,20.568,4694.93-1.9,4653,10Zm1380,7c96.95-.25,168.61,54.392,195,130,21.44,61.447,7,166.569,7,249-0.02,281.116-30.13,624.92,78,798,79.21,126.79,215.87,234.26,408,243q220.98,1.005,442,2c77.25,0.27,143.41-10.65,197,14,121.48,55.88,152.79,215.39,48,312-75.06,69.2-384.19,42-545,42-95.22,0-202.67,8.61-284-8-437.42-89.35-674.75-341.51-728-807V378c0-95.54-18.16-201.682,21-263C5910.2,55.183,5953.48,38.086,6033,17Z" transform="translate(-0.156)"/>
</svg>
